G04*
G04 #@! TF.GenerationSoftware,Altium Limited,Altium Designer,18.1.6 (161)*
G04*
G04 Layer_Color=32896*
%FSLAX44Y44*%
%MOMM*%
G71*
G01*
G75*
%ADD10C,0.2540*%
%ADD16C,0.1200*%
%ADD22C,0.1300*%
%ADD105C,0.0900*%
%ADD106C,0.0483*%
%ADD107C,0.0152*%
%ADD108C,0.0254*%
G54D10*
X25240Y250600D02*
X75240D01*
X25240D02*
Y300600D01*
X75240D01*
Y250600D02*
Y300600D01*
X25815Y275025D02*
X51190Y300400D01*
X250600Y476760D02*
Y526760D01*
X300600D01*
Y476760D02*
Y526760D01*
X250600Y476760D02*
X300600D01*
X275025Y526185D02*
X300400Y500810D01*
X500810Y251600D02*
X526185Y276975D01*
X476760Y251400D02*
Y301400D01*
Y251400D02*
X526760D01*
Y301400D01*
X476760D02*
X526760D01*
X251600Y51190D02*
X276975Y25815D01*
X251400Y75240D02*
X301400D01*
X251400Y25240D02*
Y75240D01*
Y25240D02*
X301400D01*
Y75240D01*
G54D16*
X471500Y250700D02*
Y259300D01*
X458500Y250700D02*
Y259300D01*
X288900Y458500D02*
X297500D01*
X288900Y471500D02*
X297500D01*
X91500Y288900D02*
Y297500D01*
X78500Y288900D02*
Y297500D01*
X273000Y79500D02*
X279000D01*
X273000Y92500D02*
X279000D01*
X458500Y281000D02*
Y287000D01*
X471500Y281000D02*
Y287000D01*
X257550Y471500D02*
X263550D01*
X257550Y458500D02*
X263550D01*
X91500Y260550D02*
Y266550D01*
X78500Y260550D02*
Y266550D01*
X301228Y441690D02*
Y451187D01*
X296479D01*
X294897Y449604D01*
Y446438D01*
X296479Y444856D01*
X301228D01*
X298062D02*
X294897Y441690D01*
X291731Y443273D02*
X290148Y441690D01*
X286983D01*
X285400Y443273D01*
Y449604D01*
X286983Y451187D01*
X290148D01*
X291731Y449604D01*
Y448021D01*
X290148Y446438D01*
X285400D01*
X451342Y250174D02*
Y259671D01*
X446594D01*
X445011Y258088D01*
Y254923D01*
X446594Y253340D01*
X451342D01*
X448176D02*
X445011Y250174D01*
X441845Y258088D02*
X440262Y259671D01*
X437097D01*
X435514Y258088D01*
Y256505D01*
X437097Y254923D01*
X435514Y253340D01*
Y251757D01*
X437097Y250174D01*
X440262D01*
X441845Y251757D01*
Y253340D01*
X440262Y254923D01*
X441845Y256505D01*
Y258088D01*
X440262Y254923D02*
X437097D01*
X514334Y280753D02*
Y271256D01*
X508003D01*
X504837Y280753D02*
Y271256D01*
X500089D01*
X498506Y272839D01*
Y279170D01*
X500089Y280753D01*
X504837D01*
X489009Y271256D02*
X495340D01*
X489009Y277587D01*
Y279170D01*
X490592Y280753D01*
X493757D01*
X495340Y279170D01*
X287004Y54947D02*
Y45450D01*
X280673D01*
X277507Y54947D02*
Y45450D01*
X272759D01*
X271176Y47033D01*
Y53364D01*
X272759Y54947D01*
X277507D01*
X268010Y45450D02*
X264844D01*
X266427D01*
Y54947D01*
X268010Y53364D01*
G54D22*
X63484Y280999D02*
Y271002D01*
X56820D01*
X53487Y280999D02*
Y271002D01*
X48489D01*
X46823Y272668D01*
Y279333D01*
X48489Y280999D01*
X53487D01*
X38492Y271002D02*
Y280999D01*
X43490Y276000D01*
X36826D01*
X117271Y266887D02*
X118938Y268553D01*
X122270D01*
X123936Y266887D01*
Y260222D01*
X122270Y258556D01*
X118938D01*
X117271Y260222D01*
X113939Y258556D02*
X110607D01*
X112273D01*
Y268553D01*
X113939Y266887D01*
X98944Y268553D02*
X105609D01*
Y263554D01*
X102276Y265221D01*
X100610D01*
X98944Y263554D01*
Y260222D01*
X100610Y258556D01*
X103942D01*
X105609Y260222D01*
X266369Y449513D02*
X268036Y451179D01*
X271368D01*
X273034Y449513D01*
Y442848D01*
X271368Y441182D01*
X268036D01*
X266369Y442848D01*
X263037Y441182D02*
X259705D01*
X261371D01*
Y451179D01*
X263037Y449513D01*
X249708Y441182D02*
Y451179D01*
X254707Y446180D01*
X248042D01*
X444423Y287207D02*
X446090Y288873D01*
X449422D01*
X451088Y287207D01*
Y280542D01*
X449422Y278876D01*
X446090D01*
X444423Y280542D01*
X441091Y278876D02*
X437759D01*
X439425D01*
Y288873D01*
X441091Y287207D01*
X432761D02*
X431094Y288873D01*
X427762D01*
X426096Y287207D01*
Y285541D01*
X427762Y283874D01*
X429428D01*
X427762D01*
X426096Y282208D01*
Y280542D01*
X427762Y278876D01*
X431094D01*
X432761Y280542D01*
X248081Y89341D02*
X249748Y91007D01*
X253080D01*
X254746Y89341D01*
Y82676D01*
X253080Y81010D01*
X249748D01*
X248081Y82676D01*
X244749Y81010D02*
X241417D01*
X243083D01*
Y91007D01*
X244749Y89341D01*
X229754Y81010D02*
X236419D01*
X229754Y87675D01*
Y89341D01*
X231420Y91007D01*
X234752D01*
X236419Y89341D01*
X123936Y288274D02*
Y298271D01*
X118938D01*
X117271Y296605D01*
Y293272D01*
X118938Y291606D01*
X123936D01*
X120604D02*
X117271Y288274D01*
X113939D02*
X110607D01*
X112273D01*
Y298271D01*
X113939Y296605D01*
X105609D02*
X103942Y298271D01*
X100610D01*
X98944Y296605D01*
Y294939D01*
X100610Y293272D01*
X102276D01*
X100610D01*
X98944Y291606D01*
Y289940D01*
X100610Y288274D01*
X103942D01*
X105609Y289940D01*
X289290Y506805D02*
Y496808D01*
X282626D01*
X279293Y506805D02*
Y496808D01*
X274295D01*
X272629Y498474D01*
Y505139D01*
X274295Y506805D01*
X279293D01*
X269296Y505139D02*
X267630Y506805D01*
X264298D01*
X262632Y505139D01*
Y503473D01*
X264298Y501806D01*
X265964D01*
X264298D01*
X262632Y500140D01*
Y498474D01*
X264298Y496808D01*
X267630D01*
X269296Y498474D01*
G54D105*
X400388Y521398D02*
Y521881D01*
X367088Y507403D02*
X369501D01*
X366123Y542150D02*
X368536D01*
X400388Y489064D02*
Y521398D01*
X369019Y471208D02*
Y504990D01*
X366606Y471208D02*
Y504990D01*
X369019Y471208D02*
X400388Y489064D01*
X369019Y504990D02*
X400388Y521881D01*
X369501Y507403D02*
X400388Y524294D01*
X368536Y542150D02*
X400388Y524294D01*
X335237Y489064D02*
Y521398D01*
Y521881D02*
X366606Y504990D01*
X335237Y489064D02*
X366606Y471208D01*
X334754Y524294D02*
X367088Y507403D01*
X334754Y524294D02*
X366123Y542150D01*
G54D106*
X391831Y450057D02*
X399070D01*
X382661D02*
X387005D01*
X391831Y449574D02*
X399070D01*
X382661D02*
X387005D01*
X391831Y449092D02*
X399070D01*
X382661D02*
X387005D01*
X391831Y448609D02*
X399070D01*
X382661D02*
X387005D01*
X391831Y448126D02*
X399070D01*
X382661D02*
X387005D01*
X382661Y447644D02*
X387005D01*
X382661Y447161D02*
X387005D01*
X382661Y446679D02*
X387005D01*
X382661Y446196D02*
X387005D01*
X382661Y445713D02*
X387005D01*
X382661Y445231D02*
X387005D01*
X391831Y451987D02*
X399070D01*
X382661D02*
X387005D01*
X391831Y451505D02*
X399070D01*
X382661D02*
X387005D01*
X391831Y451022D02*
X399070D01*
X382661D02*
X387005D01*
X391831Y450539D02*
X399070D01*
X382661D02*
X387005D01*
X391831Y465017D02*
X399070D01*
X391831Y464535D02*
X399070D01*
X391831Y464052D02*
X399070D01*
X391831Y463570D02*
X399070D01*
X391831Y463087D02*
X399070D01*
X391831Y462604D02*
X399070D01*
X391831Y462122D02*
X399070D01*
X391831Y461639D02*
X399070D01*
X391831Y461157D02*
X399070D01*
X394244Y460674D02*
X399070D01*
X397622Y460191D02*
X399070D01*
X383144Y458744D02*
X386522D01*
X382661Y458261D02*
X387005D01*
X382661Y457778D02*
X387005D01*
X382661Y457296D02*
X387005D01*
X382661Y456813D02*
X387005D01*
X382661Y456331D02*
X387005D01*
X382661Y455848D02*
X387005D01*
X382661Y455365D02*
X387005D01*
X382661Y454883D02*
X387005D01*
X382661Y454400D02*
X387005D01*
X382661Y453918D02*
X387005D01*
X397139Y453435D02*
X399070D01*
X382661D02*
X387005D01*
X395209Y452952D02*
X399070D01*
X382661D02*
X387005D01*
X367701Y450057D02*
X372044D01*
X367701Y449574D02*
X372044D01*
X367701Y449092D02*
X372044D01*
X367701Y448609D02*
X372044D01*
X367701Y448126D02*
X372044D01*
X367701Y447644D02*
X372044D01*
X367701Y447161D02*
X372044D01*
X367701Y446679D02*
X372044D01*
X367701Y446196D02*
X372044D01*
X367701Y445713D02*
X372044D01*
X367701Y445231D02*
X372044D01*
X367701Y451987D02*
X372044D01*
X367701Y451505D02*
X372044D01*
X367701Y451022D02*
X372044D01*
X367701Y450539D02*
X372044D01*
X359496Y448609D02*
X363840D01*
X359496Y448126D02*
X363840D01*
X359979Y447644D02*
X363840D01*
X359979Y447161D02*
X363840D01*
X359979Y446679D02*
X363840D01*
X359979Y446196D02*
X363840D01*
X359496Y445713D02*
X363840D01*
X359496Y445231D02*
X363840D01*
X359496Y451987D02*
X363840D01*
X368183Y458744D02*
X371561D01*
X367701Y458261D02*
X372044D01*
X367701Y457778D02*
X372044D01*
X367701Y457296D02*
X372044D01*
X367701Y456813D02*
X372044D01*
X367701Y456331D02*
X372044D01*
X367701Y455848D02*
X372044D01*
X367701Y455365D02*
X372044D01*
X367701Y454883D02*
X372044D01*
X367701Y454400D02*
X372044D01*
X367701Y453918D02*
X372044D01*
X367701Y453435D02*
X372044D01*
X367701Y452952D02*
X372044D01*
X359496Y455365D02*
X363840D01*
X359979Y454883D02*
X363840D01*
X359496Y454400D02*
X363840D01*
X359496Y453918D02*
X363840D01*
X359496Y453435D02*
X363840D01*
X359979Y452952D02*
X363840D01*
X345501Y448609D02*
X350327D01*
X345501Y448126D02*
X349844D01*
X345018Y447644D02*
X349362D01*
X345018Y447161D02*
X349362D01*
X345018Y446679D02*
X349362D01*
X345018Y446196D02*
X349362D01*
X345018Y445713D02*
X349362D01*
X345018Y445231D02*
X349844D01*
X345501Y451987D02*
X353705D01*
X345501Y455365D02*
X350327D01*
X345501Y454883D02*
X349844D01*
X345501Y454400D02*
X349362D01*
X345018Y453918D02*
X349362D01*
X345018Y453435D02*
X349362D01*
X345501Y452952D02*
X349362D01*
X329575Y450057D02*
X333919D01*
X329575Y449574D02*
X333919D01*
X329575Y449092D02*
X333919D01*
X329575Y448609D02*
X333919D01*
X329575Y448126D02*
X333919D01*
X329575Y447644D02*
X333919D01*
X329575Y447161D02*
X333919D01*
X329575Y446679D02*
X333919D01*
X329575Y446196D02*
X333919D01*
X329575Y445713D02*
X333919D01*
X329575Y445231D02*
X333919D01*
X329575Y451987D02*
X333919D01*
X329575Y451505D02*
X333919D01*
X329575Y451022D02*
X333919D01*
X329575Y450539D02*
X333919D01*
X325232Y458744D02*
X330540D01*
X329093Y454883D02*
X333919D01*
X329575Y454400D02*
X333919D01*
X329575Y453918D02*
X333919D01*
X329575Y453435D02*
X333919D01*
X329575Y452952D02*
X333919D01*
X318958Y458744D02*
X323784D01*
X392796Y452470D02*
X399070D01*
X382661D02*
X387005D01*
X367701D02*
X372044D01*
X359496D02*
X363840D01*
X345501D02*
X349844D01*
X329575D02*
X333919D01*
X391831Y447644D02*
X399552D01*
X354670Y451987D02*
X359014D01*
X416926Y450057D02*
X424165D01*
X416926Y449574D02*
X424165D01*
X416926Y449092D02*
X424165D01*
X416926Y448609D02*
X424165D01*
X416926Y448126D02*
X424165D01*
X416926Y447644D02*
X424165D01*
X391831Y447161D02*
X424165D01*
X391831Y446679D02*
X424165D01*
X392313Y446196D02*
X424165D01*
X392313Y445713D02*
X424165D01*
X392313Y445231D02*
X424165D01*
X392313Y444748D02*
X424165D01*
X367701D02*
X387005D01*
X392313Y444266D02*
X423682D01*
X367701D02*
X387005D01*
X392796Y443783D02*
X423682D01*
X367701D02*
X387005D01*
X393278Y443300D02*
X423200D01*
X367701D02*
X387005D01*
X393761Y442818D02*
X422717D01*
X368183D02*
X386522D01*
X394244Y442335D02*
X421752D01*
X368666D02*
X386522D01*
X395209Y441853D02*
X421269D01*
X369148D02*
X386039D01*
X416926Y451987D02*
X424165D01*
X416926Y451505D02*
X424165D01*
X416926Y451022D02*
X424165D01*
X416926Y450539D02*
X424165D01*
X394244Y470326D02*
X421752D01*
X393761Y469843D02*
X422717D01*
X393278Y469361D02*
X423200D01*
X392796Y468878D02*
X423682D01*
X392796Y468396D02*
X423682D01*
X392313Y467913D02*
X424165D01*
X392313Y467430D02*
X424165D01*
X392313Y466948D02*
X424165D01*
X392313Y466465D02*
X424165D01*
X391831Y465983D02*
X424165D01*
X401000Y465500D02*
X424165D01*
X391831D02*
X400517D01*
X416926Y465017D02*
X424165D01*
X416926Y464535D02*
X424165D01*
X416926Y464052D02*
X424165D01*
X416926Y463570D02*
X424165D01*
X416926Y463087D02*
X424165D01*
X416926Y462604D02*
X424165D01*
X416926Y462122D02*
X424165D01*
X416926Y461639D02*
X424165D01*
X416926Y461157D02*
X424165D01*
X416926Y460674D02*
X424165D01*
X416926Y460191D02*
X424165D01*
X416926Y459709D02*
X424165D01*
X416926Y459226D02*
X424165D01*
X416926Y458744D02*
X424165D01*
X416926Y458261D02*
X424165D01*
X416926Y457778D02*
X424165D01*
X416926Y457296D02*
X424165D01*
X416926Y456813D02*
X424165D01*
X416926Y456331D02*
X424165D01*
X416926Y455848D02*
X424165D01*
X416926Y455365D02*
X424165D01*
X416926Y454883D02*
X424165D01*
X416926Y454400D02*
X424165D01*
X416926Y453918D02*
X424165D01*
X416926Y453435D02*
X424165D01*
X416926Y452952D02*
X424165D01*
X395691Y470809D02*
X420304D01*
X349362Y458744D02*
X363840D01*
X337297Y450057D02*
X341640D01*
X337297Y449574D02*
X341640D01*
X337297Y449092D02*
X341640D01*
X337297Y448609D02*
X341640D01*
X337297Y448126D02*
X341640D01*
X316545D02*
X319441D01*
X337297Y447644D02*
X341640D01*
X315097D02*
X319441D01*
X337297Y447161D02*
X341640D01*
X315097D02*
X319441D01*
X337297Y446679D02*
X341640D01*
X315097D02*
X319441D01*
X337297Y446196D02*
X341640D01*
X315097D02*
X319441D01*
X337297Y445713D02*
X341640D01*
X315097D02*
X319441D01*
X337297Y445231D02*
X341640D01*
X315097D02*
X319441D01*
X337297Y444748D02*
X341640D01*
X315097D02*
X333919D01*
X337297Y444266D02*
X341640D01*
X315097D02*
X333436D01*
X337297Y443783D02*
X341640D01*
X315097D02*
X333436D01*
X337297Y443300D02*
X341640D01*
X315097D02*
X333436D01*
X337297Y442818D02*
X341640D01*
X315580D02*
X333436D01*
X337297Y442335D02*
X341640D01*
X315580D02*
X332953D01*
X337297Y441853D02*
X341640D01*
X316545D02*
X332471D01*
X337297Y451987D02*
X341640D01*
X337297Y451505D02*
X341640D01*
X337297Y451022D02*
X341640D01*
X337297Y450539D02*
X341640D01*
X337779Y458744D02*
X341640D01*
X337297Y458261D02*
X341640D01*
X316545D02*
X331988D01*
X337297Y457778D02*
X341640D01*
X315580D02*
X332953D01*
X337297Y457296D02*
X341640D01*
X315580D02*
X333436D01*
X337297Y456813D02*
X341640D01*
X315097D02*
X333436D01*
X337297Y456331D02*
X341640D01*
X315097D02*
X333436D01*
X337297Y455848D02*
X341640D01*
X315097D02*
X333436D01*
X337297Y455365D02*
X341640D01*
X315097D02*
X333919D01*
X337297Y454883D02*
X341640D01*
X315097D02*
X319441D01*
X337297Y454400D02*
X341640D01*
X315097D02*
X319441D01*
X337297Y453918D02*
X341640D01*
X315097D02*
X319441D01*
X337297Y453435D02*
X341640D01*
X315097D02*
X319441D01*
X337297Y452952D02*
X341640D01*
X315097D02*
X319441D01*
X416926Y452470D02*
X424165D01*
X337297D02*
X341640D01*
X316545D02*
X319441D01*
X346466Y450057D02*
X363840D01*
X345984Y449574D02*
X363840D01*
X345501Y449092D02*
X363840D01*
X345018Y444748D02*
X363840D01*
X345018Y444266D02*
X363840D01*
X345501Y443783D02*
X363840D01*
X345501Y443300D02*
X363840D01*
X345984Y442818D02*
X363840D01*
X346466Y442335D02*
X363840D01*
X346466Y441853D02*
X363840D01*
X345984Y451505D02*
X363840D01*
X345984Y451022D02*
X363840D01*
X346949Y450539D02*
X363840D01*
X346949Y458261D02*
X363840D01*
X345984Y457778D02*
X363840D01*
X345984Y457296D02*
X363840D01*
X345501Y456813D02*
X363840D01*
X345501Y456331D02*
X363840D01*
X345501Y455848D02*
X363840D01*
G54D107*
X52407Y16530D02*
X72524D01*
X51493Y16683D02*
X73438D01*
X50883Y16835D02*
X74048D01*
X50578Y16988D02*
X74658D01*
X49816Y17140D02*
X75420D01*
X49054Y17292D02*
X75724D01*
X48750Y17445D02*
X76182D01*
X48140Y17597D02*
X76791D01*
X47683Y17750D02*
X77401D01*
X47226Y17902D02*
X77706D01*
X46616Y18054D02*
X78315D01*
X46311Y18207D02*
X78620D01*
X45702Y18359D02*
X79077D01*
X45397Y18512D02*
X79534D01*
X44940Y18664D02*
X80144D01*
X44635Y18816D02*
X80449D01*
X44330Y18969D02*
X80601D01*
X43873Y19121D02*
X81211D01*
X43568Y19274D02*
X81516D01*
X43111Y19426D02*
X81820D01*
X42654Y19578D02*
X82278D01*
X42349Y19731D02*
X82582D01*
X42196Y19883D02*
X82887D01*
X41739Y20036D02*
X83192D01*
X41434Y20188D02*
X83497D01*
X41130Y20340D02*
X83802D01*
X40825Y20493D02*
X84106D01*
X40368Y20645D02*
X84564D01*
X40215Y20798D02*
X84868D01*
X39910Y20950D02*
X85173D01*
X39606Y21102D02*
X85478D01*
X39301Y21255D02*
X85630D01*
X38996Y21407D02*
X85935D01*
X38844Y21560D02*
X86240D01*
X38386Y21712D02*
X86545D01*
X38082Y21864D02*
X86850D01*
X37929Y22017D02*
X87002D01*
X37624Y22169D02*
X87459D01*
X37320Y22322D02*
X87612D01*
X37167Y22474D02*
X87764D01*
X36862Y22626D02*
X88221D01*
X36558Y22779D02*
X88374D01*
X36405Y22931D02*
X88678D01*
X36100Y23084D02*
X88831D01*
X35948Y23236D02*
X88983D01*
X35643Y23388D02*
X89288D01*
X35338Y23541D02*
X89440D01*
X35186Y23693D02*
X89745D01*
X34881Y23846D02*
X90050D01*
X34729Y23998D02*
X90202D01*
X34576Y24150D02*
X90507D01*
X34272Y24303D02*
X90660D01*
X34119Y24455D02*
X90812D01*
X33814Y24608D02*
X91117D01*
X33662Y24760D02*
X91422D01*
X33510Y24912D02*
X91574D01*
X33205Y25065D02*
X91726D01*
X33052Y25217D02*
X92031D01*
X32748Y25370D02*
X92184D01*
X32595Y25522D02*
X92336D01*
X32443Y25674D02*
X92641D01*
X32290Y25827D02*
X92793D01*
X31986Y25979D02*
X92946D01*
X31833Y26132D02*
X93098D01*
X31681Y26284D02*
X93250D01*
X31528Y26436D02*
X93555D01*
X31224Y26589D02*
X93708D01*
X31071Y26741D02*
X93860D01*
X30766Y26894D02*
X94012D01*
X30766Y27046D02*
X94317D01*
X30462Y27198D02*
X94470D01*
X30309Y27351D02*
X94622D01*
X30157Y27503D02*
X94774D01*
X30004Y27656D02*
X94927D01*
X29852Y27808D02*
X95079D01*
X29547Y27960D02*
X95232D01*
X29547Y28113D02*
X95536D01*
X29242Y28265D02*
X95689D01*
X29090Y28418D02*
X95841D01*
X28938Y28570D02*
X95994D01*
X28785Y28722D02*
X96146D01*
X28633Y28875D02*
X96298D01*
X28480Y29027D02*
X96451D01*
X28328Y29180D02*
X96603D01*
X28176Y29332D02*
X96756D01*
X28023Y29484D02*
X96908D01*
X27871Y29637D02*
X97213D01*
X27718Y29789D02*
X97213D01*
X27566Y29942D02*
X97518D01*
X27414Y30094D02*
X97670D01*
X27261Y30246D02*
X97670D01*
X27109Y30399D02*
X97975D01*
X26956Y30551D02*
X98127D01*
X26804Y30704D02*
X98127D01*
X26652Y30856D02*
X98432D01*
X26499Y31008D02*
X98432D01*
X26347Y31161D02*
X98584D01*
X26194Y31313D02*
X98737D01*
X99042D02*
X99194D01*
X26042Y31466D02*
X98889D01*
X25890Y31618D02*
X99042D01*
X25737Y31770D02*
X99194D01*
X25585Y31923D02*
X99346D01*
X25585Y32075D02*
X99499D01*
X25432Y32228D02*
X99651D01*
X25280Y32380D02*
X99651D01*
X25128Y32532D02*
X99804D01*
X24975Y32685D02*
X99956D01*
X24823Y32837D02*
X100108D01*
X24670Y32990D02*
X100261D01*
X24670Y33142D02*
X100413D01*
X24518Y33294D02*
X100566D01*
X24366Y33447D02*
X100566D01*
X24213Y33599D02*
X100718D01*
X24061Y33752D02*
X100870D01*
X23908Y33904D02*
X101023D01*
X23908Y34056D02*
X101175D01*
X23756Y34209D02*
X101175D01*
X23604Y34361D02*
X101328D01*
X23451Y34514D02*
X101632D01*
X23451Y34666D02*
X101632D01*
X23299Y34818D02*
X101785D01*
X23146Y34971D02*
X101785D01*
X22994Y35123D02*
X101937D01*
X22842Y35276D02*
X102090D01*
X22842Y35428D02*
X102242D01*
X22689Y35580D02*
X102242D01*
X22537Y35733D02*
X102394D01*
X22537Y35885D02*
X102547D01*
X22384Y36038D02*
X102699D01*
X22232Y36190D02*
X102699D01*
X22080Y36342D02*
X102852D01*
X22080Y36495D02*
X103004D01*
X21927Y36647D02*
X103004D01*
X21775Y36800D02*
X103156D01*
X21775Y36952D02*
X103309D01*
X21622Y37104D02*
X52255D01*
X53322D02*
X103309D01*
X21470Y37257D02*
X49969D01*
X54846D02*
X103461D01*
X21318Y37409D02*
X49207D01*
X55303D02*
X103614D01*
X21318Y37562D02*
X48750D01*
X55760D02*
X103614D01*
X21165Y37714D02*
X48445D01*
X56065D02*
X103766D01*
X21013Y37866D02*
X48140D01*
X56522D02*
X103918D01*
X21013Y38019D02*
X47835D01*
X56827D02*
X104071D01*
X20860Y38171D02*
X47683D01*
X56979D02*
X104071D01*
X20860Y38324D02*
X47530D01*
X57284D02*
X104223D01*
X20708Y38476D02*
X47530D01*
X57589D02*
X104223D01*
X20556Y38628D02*
X47530D01*
X57741D02*
X104376D01*
X20403Y38781D02*
X47530D01*
X57894D02*
X104528D01*
X20403Y38933D02*
X47530D01*
X58046D02*
X104528D01*
X20251Y39086D02*
X47530D01*
X58198D02*
X104680D01*
X20251Y39238D02*
X47683D01*
X58351D02*
X104833D01*
X20098Y39390D02*
X47683D01*
X58351D02*
X104833D01*
X20098Y39543D02*
X47683D01*
X58351D02*
X104985D01*
X19946Y39695D02*
X47835D01*
X58198D02*
X104985D01*
X19794Y39848D02*
X47988D01*
X58046D02*
X105138D01*
X19794Y40000D02*
X47988D01*
X58046D02*
X71000D01*
X72067D02*
X105138D01*
X19641Y40152D02*
X48140D01*
X57894D02*
X70848D01*
X72524D02*
X105290D01*
X19489Y40305D02*
X48140D01*
X57589D02*
X71000D01*
X72829D02*
X105442D01*
X19489Y40457D02*
X48292D01*
X57436D02*
X71000D01*
X73134D02*
X105442D01*
X19489Y40610D02*
X48445D01*
X57132D02*
X71000D01*
X73134D02*
X92793D01*
X92946D02*
X105595D01*
X19336Y40762D02*
X48445D01*
X56827D02*
X71000D01*
X73438D02*
X92641D01*
X93250D02*
X105747D01*
X19184Y40914D02*
X48597D01*
X56674D02*
X71000D01*
X73743D02*
X92488D01*
X93250D02*
X105747D01*
X19184Y41067D02*
X48750D01*
X56370D02*
X71000D01*
X73743D02*
X92488D01*
X93403D02*
X105900D01*
X19032Y41219D02*
X48902D01*
X56065D02*
X71000D01*
X74048D02*
X92336D01*
X93555D02*
X105900D01*
X19032Y41372D02*
X48902D01*
X55912D02*
X71000D01*
X74048D02*
X92184D01*
X93708D02*
X105900D01*
X18879Y41524D02*
X49054D01*
X55608D02*
X71000D01*
X74200D02*
X92184D01*
X93708D02*
X106052D01*
X18879Y41676D02*
X49054D01*
X55303D02*
X71000D01*
X74353D02*
X92031D01*
X93708D02*
X106204D01*
X18727Y41829D02*
X49207D01*
X54998D02*
X71000D01*
X74353D02*
X91879D01*
X93860D02*
X106204D01*
X18574Y41981D02*
X49207D01*
X54846D02*
X71000D01*
X74505D02*
X91879D01*
X93860D02*
X106357D01*
X18574Y42134D02*
X49359D01*
X54388D02*
X71152D01*
X74505D02*
X91726D01*
X93860D02*
X106357D01*
X18574Y42286D02*
X49359D01*
X54084D02*
X71152D01*
X74505D02*
X91726D01*
X93860D02*
X106509D01*
X18422Y42438D02*
X49359D01*
X53931D02*
X71152D01*
X74658D02*
X91574D01*
X94012D02*
X106509D01*
X18422Y42591D02*
X49359D01*
X53779D02*
X71152D01*
X74658D02*
X91574D01*
X94012D02*
X106662D01*
X18270Y42743D02*
X49359D01*
X53779D02*
X71152D01*
X74505D02*
X91422D01*
X94165D02*
X106662D01*
X18117Y42896D02*
X49207D01*
X53779D02*
X71152D01*
X74505D02*
X91269D01*
X94165D02*
X106814D01*
X18117Y43048D02*
X49207D01*
X53779D02*
X71152D01*
X74658D02*
X91269D01*
X94165D02*
X106966D01*
X18117Y43200D02*
X49207D01*
X53626D02*
X71152D01*
X74658D02*
X91269D01*
X94165D02*
X106966D01*
X17965Y43353D02*
X49207D01*
X53626D02*
X71152D01*
X74658D02*
X91117D01*
X94165D02*
X106966D01*
X17965Y43505D02*
X49207D01*
X53626D02*
X71152D01*
X74658D02*
X90964D01*
X94165D02*
X107119D01*
X17812Y43658D02*
X49054D01*
X53626D02*
X71152D01*
X74810D02*
X90812D01*
X94165D02*
X107119D01*
X17812Y43810D02*
X49054D01*
X53474D02*
X71152D01*
X74810D02*
X90812D01*
X94165D02*
X107271D01*
X17660Y43962D02*
X49054D01*
X53474D02*
X71152D01*
X74810D02*
X90812D01*
X94165D02*
X107271D01*
X17660Y44115D02*
X49054D01*
X53474D02*
X71152D01*
X74810D02*
X90660D01*
X94165D02*
X107424D01*
X17508Y44267D02*
X49054D01*
X53474D02*
X71152D01*
X74810D02*
X90507D01*
X94317D02*
X107424D01*
X17508Y44420D02*
X49054D01*
X53474D02*
X71152D01*
X74810D02*
X90507D01*
X94317D02*
X107424D01*
X17355Y44572D02*
X47988D01*
X48140D02*
X49054D01*
X53322D02*
X71152D01*
X74658D02*
X90355D01*
X94317D02*
X107576D01*
X17355Y44724D02*
X46616D01*
X53322D02*
X71152D01*
X74658D02*
X90202D01*
X94317D02*
X107576D01*
X17355Y44877D02*
X46311D01*
X53322D02*
X71152D01*
X74658D02*
X90202D01*
X94165D02*
X107728D01*
X17203Y45029D02*
X46311D01*
X53322D02*
X71152D01*
X74658D02*
X90050D01*
X94165D02*
X107728D01*
X17203Y45182D02*
X46311D01*
X53322D02*
X71152D01*
X74810D02*
X90050D01*
X94165D02*
X107881D01*
X17050Y45334D02*
X46159D01*
X53169D02*
X71152D01*
X74810D02*
X89898D01*
X94165D02*
X107881D01*
X17050Y45486D02*
X46159D01*
X53169D02*
X71152D01*
X74810D02*
X89898D01*
X94165D02*
X108033D01*
X16898Y45639D02*
X46006D01*
X53322D02*
X71152D01*
X74810D02*
X89745D01*
X94165D02*
X108033D01*
X16898Y45791D02*
X44940D01*
X54084D02*
X71152D01*
X74810D02*
X89745D01*
X94012D02*
X108033D01*
X16746Y45944D02*
X44940D01*
X54693D02*
X71152D01*
X74810D02*
X89593D01*
X94012D02*
X108186D01*
X16746Y46096D02*
X44940D01*
X55608D02*
X71152D01*
X74810D02*
X89440D01*
X93860D02*
X108186D01*
X16746Y46248D02*
X44787D01*
X56217D02*
X71152D01*
X74962D02*
X89440D01*
X93860D02*
X108338D01*
X16593Y46401D02*
X44787D01*
X56979D02*
X71152D01*
X74962D02*
X89440D01*
X93708D02*
X108338D01*
X16593Y46553D02*
X44635D01*
X57589D02*
X71152D01*
X74962D02*
X89288D01*
X93708D02*
X108490D01*
X16593Y46706D02*
X44635D01*
X58656D02*
X71152D01*
X74962D02*
X89136D01*
X93555D02*
X108490D01*
X16441Y46858D02*
X44635D01*
X59265D02*
X71152D01*
X74962D02*
X89136D01*
X93555D02*
X108490D01*
X16441Y47010D02*
X44482D01*
X59570D02*
X59722D01*
X59875D02*
X71152D01*
X74962D02*
X88983D01*
X93403D02*
X108643D01*
X16288Y47163D02*
X44482D01*
X60332D02*
X71305D01*
X74962D02*
X88983D01*
X93403D02*
X108643D01*
X16288Y47315D02*
X44330D01*
X60180D02*
X71305D01*
X74962D02*
X88831D01*
X93250D02*
X108795D01*
X16136Y47468D02*
X44178D01*
X60027D02*
X71305D01*
X74962D02*
X88678D01*
X93098D02*
X108795D01*
X16136Y47620D02*
X44178D01*
X59875D02*
X71305D01*
X74962D02*
X88678D01*
X93098D02*
X108795D01*
X16136Y47772D02*
X44178D01*
X59875D02*
X71305D01*
X74962D02*
X88526D01*
X92946D02*
X108948D01*
X15984Y47925D02*
X44025D01*
X59722D02*
X71305D01*
X74962D02*
X88526D01*
X92946D02*
X108948D01*
X15984Y48077D02*
X44025D01*
X59570D02*
X71305D01*
X74962D02*
X88374D01*
X92793D02*
X108948D01*
X15984Y48230D02*
X43873D01*
X59418D02*
X71305D01*
X74962D02*
X88374D01*
X92793D02*
X109100D01*
X15831Y48382D02*
X43873D01*
X59418D02*
X71305D01*
X74962D02*
X88221D01*
X92641D02*
X109100D01*
X15831Y48534D02*
X43873D01*
X59265D02*
X71305D01*
X74962D02*
X88221D01*
X92641D02*
X109252D01*
X15679Y48687D02*
X43720D01*
X59113D02*
X71305D01*
X75115D02*
X88069D01*
X92641D02*
X109252D01*
X15679Y48839D02*
X43720D01*
X59113D02*
X71305D01*
X75115D02*
X87916D01*
X92488D02*
X109252D01*
X15679Y48992D02*
X43568D01*
X58960D02*
X71305D01*
X75115D02*
X87916D01*
X92336D02*
X109405D01*
X15679Y49144D02*
X43568D01*
X58808D02*
X71305D01*
X75115D02*
X87764D01*
X92336D02*
X109405D01*
X15526Y49296D02*
X43416D01*
X58808D02*
X71305D01*
X75115D02*
X87764D01*
X92184D02*
X109405D01*
X15526Y49449D02*
X43416D01*
X58656D02*
X71305D01*
X75115D02*
X87612D01*
X92184D02*
X109557D01*
X15526Y49601D02*
X43416D01*
X58503D02*
X71305D01*
X75115D02*
X87612D01*
X92031D02*
X109557D01*
X15374Y49754D02*
X43263D01*
X58503D02*
X71305D01*
X75115D02*
X87459D01*
X92031D02*
X109557D01*
X15374Y49906D02*
X43263D01*
X58351D02*
X71305D01*
X75115D02*
X87307D01*
X91879D02*
X109557D01*
X15374Y50058D02*
X43111D01*
X58198D02*
X71305D01*
X75115D02*
X87307D01*
X91726D02*
X109710D01*
X15222Y50211D02*
X43111D01*
X58046D02*
X71305D01*
X75115D02*
X87154D01*
X91726D02*
X109710D01*
X15222Y50363D02*
X42958D01*
X57894D02*
X71305D01*
X75115D02*
X87154D01*
X91574D02*
X109862D01*
X15222Y50516D02*
X42958D01*
X57894D02*
X71305D01*
X75115D02*
X87002D01*
X91574D02*
X109862D01*
X15069Y50668D02*
X42806D01*
X57741D02*
X71305D01*
X75115D02*
X86850D01*
X91422D02*
X109862D01*
X15069Y50820D02*
X42806D01*
X57741D02*
X71305D01*
X75115D02*
X86850D01*
X91422D02*
X109862D01*
X15069Y50973D02*
X42806D01*
X57589D02*
X71457D01*
X75267D02*
X86850D01*
X91269D02*
X110014D01*
X15069Y51125D02*
X42654D01*
X57436D02*
X71457D01*
X75267D02*
X86697D01*
X91269D02*
X110014D01*
X14917Y51278D02*
X42654D01*
X57436D02*
X71457D01*
X75267D02*
X86545D01*
X91117D02*
X110014D01*
X14917Y51430D02*
X42654D01*
X57284D02*
X71457D01*
X75267D02*
X86545D01*
X91117D02*
X110014D01*
X14917Y51582D02*
X42501D01*
X57132D02*
X57894D01*
X58046D02*
X71457D01*
X75267D02*
X86392D01*
X90964D02*
X110167D01*
X14764Y51735D02*
X42501D01*
X56979D02*
X57741D01*
X58198D02*
X71457D01*
X75420D02*
X86392D01*
X90964D02*
X110167D01*
X14764Y51887D02*
X42349D01*
X56827D02*
X57589D01*
X58351D02*
X71457D01*
X75420D02*
X86240D01*
X90812D02*
X110167D01*
X14764Y52040D02*
X42349D01*
X56827D02*
X57436D01*
X58656D02*
X71457D01*
X75420D02*
X86240D01*
X90812D02*
X110167D01*
X14612Y52192D02*
X42196D01*
X56674D02*
X57284D01*
X58808D02*
X71457D01*
X75420D02*
X86088D01*
X90660D02*
X110319D01*
X14612Y52344D02*
X42196D01*
X56674D02*
X57284D01*
X58960D02*
X71457D01*
X75420D02*
X85935D01*
X90507D02*
X110319D01*
X14612Y52497D02*
X42044D01*
X56522D02*
X57436D01*
X59113D02*
X71457D01*
X75420D02*
X85935D01*
X90507D02*
X110319D01*
X14612Y52649D02*
X42044D01*
X56370D02*
X57589D01*
X59418D02*
X71457D01*
X75420D02*
X85783D01*
X90355D02*
X110472D01*
X14612Y52802D02*
X42044D01*
X56217D02*
X57741D01*
X59570D02*
X71457D01*
X75420D02*
X85783D01*
X90355D02*
X110472D01*
X14460Y52954D02*
X41892D01*
X56217D02*
X57894D01*
X59722D02*
X71457D01*
X75420D02*
X85630D01*
X90202D02*
X110472D01*
X14460Y53106D02*
X41892D01*
X56065D02*
X58046D01*
X60027D02*
X71457D01*
X75420D02*
X85630D01*
X90202D02*
X110472D01*
X14460Y53259D02*
X41739D01*
X55912D02*
X58198D01*
X60027D02*
X71457D01*
X75420D02*
X85478D01*
X90050D02*
X110472D01*
X14307Y53411D02*
X41739D01*
X55760D02*
X58351D01*
X60332D02*
X71457D01*
X75420D02*
X85478D01*
X90050D02*
X110624D01*
X14307Y53564D02*
X41587D01*
X55760D02*
X58503D01*
X60637D02*
X71457D01*
X75420D02*
X85326D01*
X89898D02*
X110624D01*
X14307Y53716D02*
X41587D01*
X55608D02*
X58656D01*
X60789D02*
X71457D01*
X75420D02*
X85173D01*
X89898D02*
X110624D01*
X14307Y53868D02*
X41434D01*
X55455D02*
X58960D01*
X60942D02*
X71457D01*
X75572D02*
X85173D01*
X89745D02*
X110624D01*
X14155Y54021D02*
X41434D01*
X55455D02*
X59265D01*
X61094D02*
X71457D01*
X75724D02*
X85021D01*
X89745D02*
X110776D01*
X14155Y54173D02*
X41434D01*
X55303D02*
X59418D01*
X61246D02*
X71457D01*
X75724D02*
X85021D01*
X89593D02*
X110776D01*
X14155Y54326D02*
X41282D01*
X55150D02*
X59418D01*
X61551D02*
X71457D01*
X75877D02*
X84868D01*
X89440D02*
X110776D01*
X14155Y54478D02*
X41282D01*
X54998D02*
X59722D01*
X61704D02*
X71457D01*
X75877D02*
X84868D01*
X89440D02*
X110929D01*
X14155Y54630D02*
X41130D01*
X54846D02*
X59875D01*
X61856D02*
X71457D01*
X76029D02*
X84716D01*
X89288D02*
X110929D01*
X14155Y54783D02*
X41130D01*
X54846D02*
X60027D01*
X62008D02*
X71457D01*
X76182D02*
X84716D01*
X89288D02*
X110929D01*
X14002Y54935D02*
X41130D01*
X54693D02*
X60180D01*
X62161D02*
X71457D01*
X76334D02*
X84564D01*
X89136D02*
X110929D01*
X14002Y55088D02*
X40977D01*
X54541D02*
X60332D01*
X62466D02*
X71457D01*
X76486D02*
X84411D01*
X89136D02*
X110929D01*
X14002Y55240D02*
X40825D01*
X54541D02*
X60637D01*
X62618D02*
X71610D01*
X76486D02*
X84411D01*
X88983D02*
X110929D01*
X14002Y55392D02*
X40825D01*
X54388D02*
X60637D01*
X62770D02*
X71610D01*
X76639D02*
X84411D01*
X88983D02*
X110929D01*
X14002Y55545D02*
X40672D01*
X54388D02*
X60942D01*
X63075D02*
X71610D01*
X76791D02*
X84259D01*
X88831D02*
X110929D01*
X14002Y55697D02*
X40672D01*
X54236D02*
X61094D01*
X63228D02*
X71762D01*
X76791D02*
X84106D01*
X88831D02*
X111081D01*
X14002Y55850D02*
X40672D01*
X54084D02*
X61246D01*
X63380D02*
X71762D01*
X76944D02*
X83954D01*
X88678D02*
X111081D01*
X14002Y56002D02*
X40520D01*
X53931D02*
X61399D01*
X63685D02*
X71914D01*
X77096D02*
X83954D01*
X88678D02*
X111081D01*
X14002Y56154D02*
X40520D01*
X53931D02*
X61551D01*
X63837D02*
X72067D01*
X77096D02*
X83802D01*
X88526D02*
X111234D01*
X14002Y56307D02*
X40520D01*
X53779D02*
X61856D01*
X63990D02*
X72067D01*
X77248D02*
X83802D01*
X88374D02*
X111234D01*
X14002Y56459D02*
X40368D01*
X53626D02*
X62008D01*
X64142D02*
X72219D01*
X77401D02*
X83649D01*
X88374D02*
X111234D01*
X14002Y56612D02*
X40368D01*
X53474D02*
X62161D01*
X64447D02*
X72219D01*
X77401D02*
X83649D01*
X88374D02*
X111234D01*
X14002Y56764D02*
X40215D01*
X53474D02*
X62313D01*
X64599D02*
X72372D01*
X77553D02*
X83497D01*
X88221D02*
X111234D01*
X14002Y56916D02*
X40215D01*
X53322D02*
X62618D01*
X64752D02*
X72524D01*
X77553D02*
X83344D01*
X88069D02*
X111386D01*
X14002Y57069D02*
X40215D01*
X53322D02*
X62618D01*
X64904D02*
X72524D01*
X77706D02*
X83344D01*
X88069D02*
X111386D01*
X14002Y57221D02*
X40063D01*
X53169D02*
X62770D01*
X65056D02*
X72676D01*
X77858D02*
X83344D01*
X87916D02*
X111386D01*
X14002Y57374D02*
X39910D01*
X53017D02*
X62923D01*
X65361D02*
X72829D01*
X78010D02*
X83192D01*
X87916D02*
X111386D01*
X14002Y57526D02*
X39910D01*
X52864D02*
X63075D01*
X65514D02*
X72829D01*
X78163D02*
X83192D01*
X87764D02*
X111386D01*
X14002Y57678D02*
X39910D01*
X52712D02*
X63380D01*
X65666D02*
X69019D01*
X69324D02*
X72981D01*
X78163D02*
X83040D01*
X87764D02*
X111386D01*
X14002Y57831D02*
X39758D01*
X52712D02*
X63380D01*
X65818D02*
X68714D01*
X69476D02*
X73134D01*
X78315D02*
X82887D01*
X87612D02*
X111386D01*
X14002Y57983D02*
X39758D01*
X52560D02*
X63685D01*
X66123D02*
X68562D01*
X69781D02*
X73134D01*
X78468D02*
X82887D01*
X87612D02*
X111386D01*
X14002Y58136D02*
X39606D01*
X52407D02*
X63837D01*
X66123D02*
X68562D01*
X69933D02*
X73286D01*
X78468D02*
X82735D01*
X87459D02*
X111538D01*
X14002Y58288D02*
X39606D01*
X52407D02*
X63990D01*
X66428D02*
X68409D01*
X70086D02*
X73286D01*
X78620D02*
X82735D01*
X87307D02*
X111538D01*
X14002Y58440D02*
X39606D01*
X52255D02*
X64294D01*
X66733D02*
X68409D01*
X70238D02*
X73438D01*
X78772D02*
X82582D01*
X87307D02*
X111538D01*
X14002Y58593D02*
X39453D01*
X52102D02*
X64294D01*
X66885D02*
X68257D01*
X70390D02*
X73591D01*
X78925D02*
X82430D01*
X87307D02*
X111538D01*
X14002Y58745D02*
X39453D01*
X52102D02*
X64599D01*
X67038D02*
X68257D01*
X70390D02*
X73743D01*
X78925D02*
X82430D01*
X87154D02*
X111538D01*
X14002Y58898D02*
X39301D01*
X51950D02*
X64752D01*
X67190D02*
X68257D01*
X70543D02*
X73896D01*
X79077D02*
X82278D01*
X87002D02*
X111538D01*
X14002Y59050D02*
X39301D01*
X51798D02*
X64904D01*
X67342D02*
X68104D01*
X70695D02*
X73896D01*
X79077D02*
X82278D01*
X87002D02*
X111538D01*
X14002Y59202D02*
X39301D01*
X51798D02*
X65056D01*
X70848D02*
X73896D01*
X79230D02*
X82125D01*
X86850D02*
X111538D01*
X14002Y59355D02*
X39148D01*
X51493D02*
X65209D01*
X70848D02*
X74048D01*
X79382D02*
X82125D01*
X86850D02*
X111538D01*
X14002Y59507D02*
X39148D01*
X51493D02*
X65514D01*
X71000D02*
X74200D01*
X79534D02*
X81973D01*
X86697D02*
X111538D01*
X14002Y59660D02*
X39453D01*
X51340D02*
X65666D01*
X71152D02*
X74200D01*
X79534D02*
X81973D01*
X86697D02*
X111538D01*
X14002Y59812D02*
X39606D01*
X50883D02*
X65818D01*
X71152D02*
X74353D01*
X79687D02*
X81820D01*
X86545D02*
X111538D01*
X14002Y59964D02*
X39606D01*
X50121D02*
X65971D01*
X71152D02*
X74505D01*
X79839D02*
X81668D01*
X86392D02*
X111538D01*
X14002Y60117D02*
X39606D01*
X49664D02*
X66123D01*
X71152D02*
X74658D01*
X79992D02*
X81668D01*
X86392D02*
X111538D01*
X14002Y60269D02*
X39606D01*
X48902D02*
X66276D01*
X71305D02*
X74658D01*
X79992D02*
X81516D01*
X86240D02*
X111538D01*
X14002Y60422D02*
X39453D01*
X48140D02*
X66580D01*
X71305D02*
X74810D01*
X80144D02*
X81363D01*
X86240D02*
X111538D01*
X14002Y60574D02*
X39453D01*
X47378D02*
X66733D01*
X71305D02*
X74810D01*
X80296D02*
X81363D01*
X86240D02*
X111538D01*
X14002Y60726D02*
X39301D01*
X46616D02*
X66885D01*
X71457D02*
X74962D01*
X80296D02*
X81211D01*
X86088D02*
X111538D01*
X14002Y60879D02*
X39301D01*
X45854D02*
X67038D01*
X71457D02*
X74962D01*
X80449D02*
X81211D01*
X85935D02*
X111538D01*
X14002Y61031D02*
X39301D01*
X45244D02*
X67190D01*
X71457D02*
X75115D01*
X80601D02*
X81058D01*
X85935D02*
X111538D01*
X14002Y61184D02*
X39148D01*
X44635D02*
X67342D01*
X71457D02*
X75267D01*
X85783D02*
X111538D01*
X14002Y61336D02*
X39148D01*
X43720D02*
X67495D01*
X71305D02*
X75420D01*
X85783D02*
X111538D01*
X14002Y61488D02*
X38996D01*
X43111D02*
X67647D01*
X71305D02*
X75420D01*
X85630D02*
X111538D01*
X14002Y61641D02*
X38996D01*
X42501D02*
X67647D01*
X71305D02*
X75572D01*
X85630D02*
X111538D01*
X14002Y61793D02*
X39301D01*
X41434D02*
X67647D01*
X71457D02*
X75724D01*
X85478D02*
X111538D01*
X14002Y61946D02*
X39301D01*
X40825D02*
X67800D01*
X71457D02*
X75724D01*
X85326D02*
X111538D01*
X14002Y62098D02*
X39606D01*
X40215D02*
X67800D01*
X71457D02*
X75877D01*
X85326D02*
X111538D01*
X14002Y62250D02*
X67647D01*
X71762D02*
X76029D01*
X85173D02*
X111538D01*
X14002Y62403D02*
X67647D01*
X71914D02*
X76182D01*
X85173D02*
X111538D01*
X14002Y62555D02*
X67647D01*
X72067D02*
X76182D01*
X85021D02*
X111538D01*
X14002Y62708D02*
X67647D01*
X72372D02*
X76486D01*
X85021D02*
X111538D01*
X14002Y62860D02*
X67647D01*
X72676D02*
X76639D01*
X84868D02*
X111538D01*
X14002Y63012D02*
X67647D01*
X72676D02*
X76944D01*
X84868D02*
X111538D01*
X14002Y63165D02*
X67647D01*
X72981D02*
X77248D01*
X84716D02*
X111538D01*
X14002Y63317D02*
X67647D01*
X73134D02*
X77553D01*
X84716D02*
X111538D01*
X14002Y63470D02*
X67647D01*
X73286D02*
X77706D01*
X84564D02*
X111538D01*
X14002Y63622D02*
X67647D01*
X73438D02*
X78010D01*
X84411D02*
X111538D01*
X14002Y63774D02*
X67647D01*
X73591D02*
X78468D01*
X84411D02*
X111538D01*
X14002Y63927D02*
X67647D01*
X73591D02*
X78620D01*
X84259D02*
X111538D01*
X14002Y64079D02*
X67647D01*
X73743D02*
X78925D01*
X84259D02*
X111538D01*
X14002Y64232D02*
X67647D01*
X73743D02*
X79230D01*
X84106D02*
X111538D01*
X14002Y64384D02*
X67647D01*
X73896D02*
X75420D01*
X75877D02*
X79534D01*
X84106D02*
X111538D01*
X14002Y64536D02*
X67647D01*
X73896D02*
X75420D01*
X76182D02*
X79839D01*
X83954D02*
X111538D01*
X14002Y64689D02*
X67647D01*
X73896D02*
X75267D01*
X76486D02*
X80144D01*
X83802D02*
X111538D01*
X14002Y64841D02*
X67647D01*
X71000D02*
X71762D01*
X73896D02*
X75115D01*
X76791D02*
X80449D01*
X83802D02*
X111538D01*
X14002Y64994D02*
X67647D01*
X71000D02*
X71914D01*
X73743D02*
X75115D01*
X77096D02*
X80601D01*
X83649D02*
X111538D01*
X14002Y65146D02*
X67647D01*
X71000D02*
X72067D01*
X73743D02*
X74962D01*
X77401D02*
X80906D01*
X83649D02*
X111538D01*
X14002Y65298D02*
X67647D01*
X71000D02*
X72372D01*
X73591D02*
X74962D01*
X77858D02*
X81363D01*
X83649D02*
X111538D01*
X14002Y65451D02*
X67647D01*
X71000D02*
X72524D01*
X73438D02*
X74810D01*
X78010D02*
X81668D01*
X83497D02*
X111538D01*
X14002Y65603D02*
X67495D01*
X71000D02*
X72829D01*
X73134D02*
X74658D01*
X78315D02*
X81973D01*
X83344D02*
X111538D01*
X14002Y65756D02*
X67495D01*
X71000D02*
X74658D01*
X78620D02*
X82278D01*
X83192D02*
X111538D01*
X14002Y65908D02*
X67495D01*
X71000D02*
X74658D01*
X78925D02*
X82735D01*
X83192D02*
X111538D01*
X14002Y66060D02*
X67495D01*
X71000D02*
X74505D01*
X79077D02*
X111538D01*
X14002Y66213D02*
X67495D01*
X71000D02*
X74353D01*
X79382D02*
X111538D01*
X14002Y66365D02*
X67495D01*
X71000D02*
X74353D01*
X79839D02*
X111538D01*
X14002Y66518D02*
X67495D01*
X71000D02*
X74200D01*
X79992D02*
X111538D01*
X14002Y66670D02*
X67495D01*
X71000D02*
X74200D01*
X80296D02*
X111538D01*
X14002Y66822D02*
X67495D01*
X71000D02*
X74048D01*
X80449D02*
X111538D01*
X14002Y66975D02*
X67495D01*
X71000D02*
X74048D01*
X80754D02*
X111538D01*
X14002Y67127D02*
X67495D01*
X71000D02*
X73896D01*
X81058D02*
X111538D01*
X14002Y67280D02*
X67495D01*
X71000D02*
X73743D01*
X81363D02*
X111538D01*
X14002Y67432D02*
X67495D01*
X71000D02*
X73743D01*
X81668D02*
X111538D01*
X14002Y67584D02*
X67495D01*
X71000D02*
X73591D01*
X81820D02*
X111538D01*
X14002Y67737D02*
X67495D01*
X71000D02*
X73591D01*
X82125D02*
X111538D01*
X14002Y67889D02*
X67495D01*
X71000D02*
X73438D01*
X82125D02*
X111538D01*
X14002Y68042D02*
X67495D01*
X71000D02*
X73438D01*
X82125D02*
X111538D01*
X14002Y68194D02*
X67495D01*
X71000D02*
X73286D01*
X81973D02*
X111538D01*
X14002Y68346D02*
X67495D01*
X71000D02*
X73286D01*
X81973D02*
X111538D01*
X14002Y68499D02*
X67495D01*
X71000D02*
X73134D01*
X81820D02*
X111538D01*
X14002Y68651D02*
X67495D01*
X71000D02*
X73134D01*
X81820D02*
X111538D01*
X14002Y68804D02*
X67495D01*
X71000D02*
X72981D01*
X81668D02*
X111538D01*
X14002Y68956D02*
X67495D01*
X71000D02*
X72829D01*
X81668D02*
X111538D01*
X14002Y69108D02*
X67495D01*
X71000D02*
X72829D01*
X81516D02*
X111538D01*
X14002Y69261D02*
X67495D01*
X71000D02*
X72829D01*
X81516D02*
X111538D01*
X14002Y69413D02*
X67342D01*
X71000D02*
X72676D01*
X81363D02*
X111538D01*
X14002Y69566D02*
X67342D01*
X71000D02*
X72524D01*
X81363D02*
X111538D01*
X14002Y69718D02*
X67342D01*
X71000D02*
X72524D01*
X81363D02*
X111538D01*
X14002Y69870D02*
X67342D01*
X71000D02*
X72372D01*
X81058D02*
X111538D01*
X14002Y70023D02*
X67342D01*
X71000D02*
X72372D01*
X81058D02*
X111538D01*
X14002Y70175D02*
X67342D01*
X71152D02*
X72219D01*
X80906D02*
X111538D01*
X14002Y70328D02*
X67342D01*
X71152D02*
X72219D01*
X80906D02*
X111538D01*
X14002Y70480D02*
X67342D01*
X71152D02*
X72067D01*
X80906D02*
X111538D01*
X14002Y70632D02*
X67342D01*
X71152D02*
X72067D01*
X80754D02*
X111538D01*
X14002Y70785D02*
X67342D01*
X71152D02*
X71914D01*
X80754D02*
X111538D01*
X14002Y70937D02*
X67342D01*
X71152D02*
X71762D01*
X80601D02*
X111538D01*
X14002Y71090D02*
X67190D01*
X71305D02*
X71610D01*
X80449D02*
X111538D01*
X14002Y71242D02*
X67190D01*
X80449D02*
X81668D01*
X82125D02*
X85783D01*
X86088D02*
X111538D01*
X14002Y71394D02*
X67190D01*
X80449D02*
X81516D01*
X82278D02*
X85630D01*
X86240D02*
X111538D01*
X14002Y71547D02*
X67190D01*
X80296D02*
X81516D01*
X82430D02*
X85630D01*
X86392D02*
X111538D01*
X14002Y71699D02*
X67342D01*
X80144D02*
X81363D01*
X82735D02*
X85478D01*
X86545D02*
X111538D01*
X14002Y71852D02*
X67342D01*
X80144D02*
X81363D01*
X82887D02*
X85326D01*
X86697D02*
X111538D01*
X14002Y72004D02*
X67342D01*
X80144D02*
X81211D01*
X83040D02*
X85326D01*
X86850D02*
X111538D01*
X14002Y72156D02*
X67342D01*
X79992D02*
X81211D01*
X83192D02*
X85173D01*
X87002D02*
X111386D01*
X14002Y72309D02*
X67190D01*
X79992D02*
X81363D01*
X83344D02*
X85021D01*
X87154D02*
X111386D01*
X14002Y72461D02*
X67190D01*
X79839D02*
X81363D01*
X83649D02*
X85021D01*
X87307D02*
X111386D01*
X14002Y72614D02*
X67190D01*
X79839D02*
X81516D01*
X83802D02*
X84868D01*
X87459D02*
X111386D01*
X14002Y72766D02*
X67190D01*
X79687D02*
X81668D01*
X83954D02*
X84868D01*
X87459D02*
X111386D01*
X14002Y72918D02*
X67190D01*
X79687D02*
X81820D01*
X84106D02*
X84716D01*
X87459D02*
X111386D01*
X14002Y73071D02*
X67190D01*
X79534D02*
X81973D01*
X87459D02*
X111234D01*
X14002Y73223D02*
X67190D01*
X79382D02*
X82125D01*
X87459D02*
X111234D01*
X14002Y73376D02*
X67190D01*
X79382D02*
X82278D01*
X87459D02*
X111234D01*
X14002Y73528D02*
X67190D01*
X79382D02*
X82582D01*
X87459D02*
X111234D01*
X14002Y73680D02*
X67190D01*
X79230D02*
X82582D01*
X87612D02*
X111234D01*
X14002Y73833D02*
X67190D01*
X79077D02*
X82887D01*
X87459D02*
X111081D01*
X14002Y73985D02*
X67190D01*
X79077D02*
X82887D01*
X87459D02*
X111081D01*
X14002Y74138D02*
X67190D01*
X78925D02*
X83040D01*
X87459D02*
X111081D01*
X14002Y74290D02*
X67190D01*
X78925D02*
X83344D01*
X87459D02*
X111081D01*
X14002Y74442D02*
X67190D01*
X78925D02*
X83344D01*
X87459D02*
X110929D01*
X14002Y74595D02*
X67190D01*
X78772D02*
X83344D01*
X87459D02*
X110929D01*
X14002Y74747D02*
X67190D01*
X78620D02*
X83497D01*
X87459D02*
X110929D01*
X14002Y74900D02*
X67190D01*
X78620D02*
X83344D01*
X87459D02*
X110929D01*
X14155Y75052D02*
X67190D01*
X78468D02*
X83344D01*
X87459D02*
X110929D01*
X14155Y75204D02*
X67190D01*
X78468D02*
X83344D01*
X87459D02*
X110929D01*
X14155Y75357D02*
X67190D01*
X78468D02*
X83344D01*
X87459D02*
X110929D01*
X14155Y75509D02*
X67190D01*
X78315D02*
X83344D01*
X87459D02*
X110929D01*
X14155Y75662D02*
X67190D01*
X78315D02*
X83192D01*
X87459D02*
X110776D01*
X14155Y75814D02*
X67190D01*
X78163D02*
X83192D01*
X87307D02*
X110776D01*
X14307Y75966D02*
X67190D01*
X78010D02*
X83040D01*
X87307D02*
X110776D01*
X14307Y76119D02*
X67190D01*
X78010D02*
X83040D01*
X87154D02*
X110624D01*
X14307Y76271D02*
X67190D01*
X78010D02*
X82887D01*
X87002D02*
X110624D01*
X14307Y76424D02*
X67190D01*
X77858D02*
X82887D01*
X87002D02*
X110624D01*
X14307Y76576D02*
X67190D01*
X77706D02*
X82735D01*
X86850D02*
X110624D01*
X14460Y76728D02*
X67190D01*
X77706D02*
X82735D01*
X86850D02*
X110472D01*
X14460Y76881D02*
X67190D01*
X77706D02*
X82582D01*
X86697D02*
X110472D01*
X14612Y77033D02*
X67190D01*
X77553D02*
X82582D01*
X86545D02*
X110472D01*
X14612Y77186D02*
X67190D01*
X77401D02*
X82430D01*
X86545D02*
X110472D01*
X14612Y77338D02*
X67190D01*
X77401D02*
X82430D01*
X86392D02*
X110319D01*
X14612Y77490D02*
X67038D01*
X77248D02*
X82278D01*
X86240D02*
X110319D01*
X14612Y77643D02*
X67038D01*
X77248D02*
X82278D01*
X86240D02*
X110319D01*
X14764Y77795D02*
X67038D01*
X77096D02*
X82125D01*
X86088D02*
X110319D01*
X14764Y77948D02*
X67038D01*
X77096D02*
X82125D01*
X86088D02*
X110167D01*
X14764Y78100D02*
X67038D01*
X76944D02*
X81973D01*
X85935D02*
X110167D01*
X14917Y78252D02*
X67038D01*
X76944D02*
X81973D01*
X85783D02*
X110167D01*
X14917Y78405D02*
X67038D01*
X76944D02*
X81820D01*
X85783D02*
X110014D01*
X14917Y78557D02*
X67038D01*
X76791D02*
X81668D01*
X85630D02*
X110014D01*
X15069Y78710D02*
X67038D01*
X76791D02*
X81668D01*
X85630D02*
X110014D01*
X15069Y78862D02*
X67038D01*
X76639D02*
X81516D01*
X85478D02*
X110014D01*
X15069Y79014D02*
X67038D01*
X76486D02*
X81516D01*
X85326D02*
X109862D01*
X15069Y79167D02*
X67038D01*
X76486D02*
X81363D01*
X85326D02*
X109862D01*
X15222Y79319D02*
X67038D01*
X76334D02*
X81363D01*
X85173D02*
X109862D01*
X15222Y79472D02*
X67038D01*
X76334D02*
X81211D01*
X85173D02*
X109862D01*
X15222Y79624D02*
X67038D01*
X76334D02*
X81211D01*
X85021D02*
X109710D01*
X15374Y79776D02*
X67038D01*
X76334D02*
X81058D01*
X84868D02*
X109710D01*
X15374Y79929D02*
X67038D01*
X76486D02*
X80906D01*
X84868D02*
X109557D01*
X15374Y80081D02*
X67038D01*
X76639D02*
X77401D01*
X77706D02*
X80601D01*
X84716D02*
X109557D01*
X15526Y80234D02*
X67038D01*
X78468D02*
X78620D01*
X78772D02*
X79077D01*
X84716D02*
X109557D01*
X15526Y80386D02*
X67038D01*
X84564D02*
X109557D01*
X15526Y80538D02*
X67190D01*
X84411D02*
X109405D01*
X15679Y80691D02*
X67190D01*
X84411D02*
X109405D01*
X15679Y80843D02*
X67190D01*
X84259D02*
X109405D01*
X15679Y80996D02*
X67190D01*
X84106D02*
X109252D01*
X15831Y81148D02*
X67190D01*
X84106D02*
X109252D01*
X15831Y81300D02*
X67190D01*
X83954D02*
X109252D01*
X15831Y81453D02*
X67342D01*
X83802D02*
X109100D01*
X15984Y81605D02*
X67342D01*
X83802D02*
X109100D01*
X15984Y81758D02*
X67495D01*
X83649D02*
X108948D01*
X15984Y81910D02*
X62161D01*
X63532D02*
X67647D01*
X83649D02*
X108948D01*
X16136Y82062D02*
X61704D01*
X64294D02*
X67647D01*
X83497D02*
X108948D01*
X16136Y82215D02*
X61246D01*
X64752D02*
X67800D01*
X83497D02*
X108795D01*
X16136Y82367D02*
X60942D01*
X64904D02*
X67952D01*
X83344D02*
X108795D01*
X16288Y82520D02*
X60637D01*
X65209D02*
X68104D01*
X83192D02*
X108795D01*
X16288Y82672D02*
X60484D01*
X65514D02*
X68257D01*
X83192D02*
X108643D01*
X16288Y82824D02*
X60332D01*
X65666D02*
X68409D01*
X83040D02*
X108643D01*
X16441Y82977D02*
X60180D01*
X65818D02*
X68714D01*
X82887D02*
X108490D01*
X16593Y83129D02*
X60027D01*
X65971D02*
X69019D01*
X82887D02*
X108490D01*
X16593Y83282D02*
X59875D01*
X66123D02*
X70390D01*
X70695D02*
X70848D01*
X82735D02*
X108490D01*
X16593Y83434D02*
X59722D01*
X66276D02*
X75724D01*
X82735D02*
X108338D01*
X16746Y83586D02*
X59570D01*
X66428D02*
X108338D01*
X16746Y83739D02*
X59570D01*
X66428D02*
X108338D01*
X16746Y83891D02*
X59418D01*
X66580D02*
X108186D01*
X16898Y84044D02*
X59265D01*
X66580D02*
X108186D01*
X16898Y84196D02*
X59265D01*
X66733D02*
X108033D01*
X17050Y84348D02*
X59113D01*
X66733D02*
X108033D01*
X17050Y84501D02*
X59113D01*
X66885D02*
X107881D01*
X17050Y84653D02*
X59113D01*
X66885D02*
X107881D01*
X17203Y84806D02*
X59113D01*
X67038D02*
X107728D01*
X17203Y84958D02*
X58960D01*
X67038D02*
X107728D01*
X17355Y85110D02*
X58960D01*
X67038D02*
X107728D01*
X17355Y85263D02*
X58808D01*
X67038D02*
X107576D01*
X17508Y85415D02*
X58808D01*
X67038D02*
X107576D01*
X17508Y85568D02*
X58808D01*
X67038D02*
X107424D01*
X17508Y85720D02*
X58808D01*
X67190D02*
X107424D01*
X17660Y85872D02*
X58808D01*
X67190D02*
X107271D01*
X17812Y86025D02*
X58808D01*
X67190D02*
X107271D01*
X17812Y86177D02*
X58808D01*
X67190D02*
X107119D01*
X17965Y86330D02*
X58808D01*
X67190D02*
X107119D01*
X17965Y86482D02*
X58808D01*
X67190D02*
X106966D01*
X17965Y86634D02*
X58808D01*
X67190D02*
X106966D01*
X18117Y86787D02*
X58960D01*
X67038D02*
X106966D01*
X18117Y86939D02*
X58960D01*
X67038D02*
X106814D01*
X18270Y87092D02*
X58960D01*
X67038D02*
X106814D01*
X18270Y87244D02*
X59113D01*
X66885D02*
X106662D01*
X18422Y87396D02*
X59113D01*
X66885D02*
X106509D01*
X18574Y87549D02*
X59113D01*
X66733D02*
X106509D01*
X18574Y87701D02*
X59265D01*
X66733D02*
X106357D01*
X18574Y87854D02*
X59265D01*
X66580D02*
X106357D01*
X18727Y88006D02*
X59418D01*
X66580D02*
X106204D01*
X18727Y88158D02*
X59570D01*
X66428D02*
X106204D01*
X18879Y88311D02*
X59570D01*
X66428D02*
X106052D01*
X19032Y88463D02*
X59722D01*
X66428D02*
X106052D01*
X19032Y88616D02*
X59875D01*
X66123D02*
X105900D01*
X19032Y88768D02*
X60027D01*
X66123D02*
X105900D01*
X19184Y88920D02*
X60180D01*
X65971D02*
X105747D01*
X19336Y89073D02*
X60332D01*
X65818D02*
X105747D01*
X19336Y89225D02*
X60484D01*
X65666D02*
X105595D01*
X19489Y89378D02*
X60789D01*
X65209D02*
X105442D01*
X19489Y89530D02*
X60942D01*
X65056D02*
X105442D01*
X19641Y89682D02*
X61246D01*
X64752D02*
X105290D01*
X19794Y89835D02*
X61704D01*
X64294D02*
X105290D01*
X19794Y89987D02*
X61856D01*
X64142D02*
X105138D01*
X19946Y90140D02*
X105138D01*
X20098Y90292D02*
X104985D01*
X20098Y90444D02*
X104833D01*
X20098Y90597D02*
X104833D01*
X20251Y90749D02*
X104680D01*
X20403Y90902D02*
X104680D01*
X20556Y91054D02*
X104528D01*
X20556Y91206D02*
X104528D01*
X20708Y91359D02*
X104223D01*
X20708Y91511D02*
X104223D01*
X20860Y91664D02*
X104071D01*
X21013Y91816D02*
X104071D01*
X21013Y91968D02*
X103918D01*
X21165Y92121D02*
X103918D01*
X21318Y92273D02*
X103766D01*
X21470Y92426D02*
X103614D01*
X21470Y92578D02*
X103461D01*
X21622Y92730D02*
X103461D01*
X21622Y92883D02*
X103309D01*
X21775Y93035D02*
X103156D01*
X21927Y93188D02*
X103156D01*
X21927Y93340D02*
X103004D01*
X22080Y93492D02*
X102852D01*
X22232Y93645D02*
X102852D01*
X22232Y93797D02*
X102699D01*
X22537Y93950D02*
X102547D01*
X22537Y94102D02*
X102394D01*
X22689Y94254D02*
X102394D01*
X22689Y94407D02*
X102242D01*
X22842Y94559D02*
X102090D01*
X22994Y94712D02*
X102090D01*
X23146Y94864D02*
X101937D01*
X23146Y95016D02*
X101785D01*
X23299Y95169D02*
X101632D01*
X23451Y95321D02*
X101480D01*
X23604Y95474D02*
X101480D01*
X23756Y95626D02*
X101328D01*
X23908Y95778D02*
X101175D01*
X23908Y95931D02*
X101023D01*
X24061Y96083D02*
X100870D01*
X24213Y96236D02*
X100870D01*
X24366Y96388D02*
X100718D01*
X24518Y96540D02*
X100566D01*
X24518Y96693D02*
X100413D01*
X24670Y96845D02*
X100261D01*
X24823Y96998D02*
X100108D01*
X24975Y97150D02*
X100108D01*
X25128Y97302D02*
X99956D01*
X25280Y97455D02*
X99804D01*
X25280Y97607D02*
X99651D01*
X25585Y97760D02*
X99499D01*
X25585Y97912D02*
X99346D01*
X25737Y98064D02*
X99194D01*
X25890Y98217D02*
X99042D01*
X26042Y98369D02*
X98889D01*
X26194Y98522D02*
X98889D01*
X26347Y98674D02*
X98584D01*
X26499Y98826D02*
X98584D01*
X26652Y98979D02*
X98432D01*
X26804Y99131D02*
X98127D01*
X26956Y99284D02*
X98127D01*
X27109Y99436D02*
X97975D01*
X27109Y99588D02*
X97822D01*
X27414Y99741D02*
X97670D01*
X27414Y99893D02*
X97518D01*
X27566Y100046D02*
X97365D01*
X27718Y100198D02*
X97213D01*
X27871Y100350D02*
X97060D01*
X28023Y100503D02*
X96908D01*
X28328Y100655D02*
X96756D01*
X28328Y100808D02*
X96603D01*
X28633Y100960D02*
X96451D01*
X28785Y101112D02*
X96146D01*
X28938Y101265D02*
X95994D01*
X29090Y101417D02*
X95994D01*
X29242Y101570D02*
X95689D01*
X29395Y101722D02*
X95536D01*
X29547Y101874D02*
X95384D01*
X29700Y102027D02*
X95232D01*
X30004Y102179D02*
X95079D01*
X30157Y102332D02*
X94927D01*
X30309Y102484D02*
X94774D01*
X30462Y102636D02*
X94470D01*
X30614Y102789D02*
X94317D01*
X30766Y102941D02*
X94165D01*
X31071Y103094D02*
X93860D01*
X31224Y103246D02*
X93860D01*
X31376Y103398D02*
X93555D01*
X31528Y103551D02*
X93403D01*
X31833Y103703D02*
X93250D01*
X31986Y103856D02*
X93098D01*
X32138Y104008D02*
X92793D01*
X32290Y104160D02*
X92641D01*
X32595Y104313D02*
X92488D01*
X32748Y104465D02*
X92336D01*
X32900Y104618D02*
X92031D01*
X33205Y104770D02*
X91879D01*
X33357Y104922D02*
X91574D01*
X33510Y105075D02*
X91422D01*
X33814Y105227D02*
X91269D01*
X33967Y105380D02*
X90964D01*
X34272Y105532D02*
X90812D01*
X34424Y105684D02*
X90660D01*
X34729Y105837D02*
X90355D01*
X34881Y105989D02*
X90050D01*
X35186Y106142D02*
X89898D01*
X35338Y106294D02*
X89593D01*
X35643Y106446D02*
X89440D01*
X35796Y106599D02*
X89136D01*
X36100Y106751D02*
X88983D01*
X36253Y106904D02*
X88678D01*
X36558Y107056D02*
X88526D01*
X36710Y107208D02*
X88221D01*
X37015Y107361D02*
X87916D01*
X37320Y107513D02*
X87764D01*
X37624Y107666D02*
X87459D01*
X37777Y107818D02*
X87154D01*
X38082Y107970D02*
X86850D01*
X38386Y108123D02*
X86697D01*
X38691Y108275D02*
X86392D01*
X38844Y108428D02*
X86088D01*
X39301Y108580D02*
X85783D01*
X39453Y108732D02*
X85478D01*
X39758Y108885D02*
X85173D01*
X40063Y109037D02*
X84868D01*
X40368Y109190D02*
X84716D01*
X40520Y109342D02*
X84411D01*
X40977Y109494D02*
X83954D01*
X41282Y109647D02*
X83649D01*
X41587Y109799D02*
X83344D01*
X42044Y109952D02*
X83040D01*
X42196Y110104D02*
X82582D01*
X42654Y110256D02*
X82278D01*
X42958Y110409D02*
X81973D01*
X43416Y110561D02*
X81668D01*
X43720Y110714D02*
X81363D01*
X44025Y110866D02*
X80906D01*
X44482Y111018D02*
X80449D01*
X44787Y111171D02*
X80144D01*
X45244Y111323D02*
X79687D01*
X45702Y111476D02*
X79230D01*
X46159Y111628D02*
X78925D01*
X46464Y111780D02*
X78468D01*
X46921Y111933D02*
X77858D01*
X47378Y112085D02*
X77401D01*
X47835Y112238D02*
X77096D01*
X48445Y112390D02*
X76486D01*
X49054Y112542D02*
X75877D01*
X49664Y112695D02*
X75420D01*
X50121Y112847D02*
X74810D01*
X50883Y113000D02*
X74200D01*
X51340Y113152D02*
X73438D01*
X51950Y113304D02*
X73134D01*
X53017Y113457D02*
X72067D01*
X53626Y113609D02*
X71457D01*
X54388Y113762D02*
X70543D01*
X55455Y113914D02*
X69628D01*
G54D108*
X459534Y440690D02*
X463852D01*
X470710D02*
X472996D01*
X475028D02*
X477314D01*
X477822D02*
X481632D01*
X486458D02*
X488744D01*
X492554D02*
X494586D01*
X498650D02*
X500936D01*
X501698D02*
X505254D01*
X511604D02*
X513890D01*
X515668D02*
X517954D01*
X518462D02*
X522526D01*
X525320D02*
X527606D01*
X531416D02*
X533702D01*
X459026Y440944D02*
X464360D01*
X470710D02*
X472996D01*
X475028D02*
X482140D01*
X486458D02*
X488744D01*
X492300D02*
X494840D01*
X498650D02*
X500936D01*
X501190D02*
X505508D01*
X511604D02*
X513890D01*
X515668D02*
X517954D01*
X518208D02*
X522780D01*
X525320D02*
X527606D01*
X531416D02*
X533702D01*
X458772Y441198D02*
X464614D01*
X470710D02*
X472996D01*
X475028D02*
X482394D01*
X486204D02*
X488744D01*
X492300D02*
X494840D01*
X498650D02*
X505762D01*
X511604D02*
X513890D01*
X515668D02*
X523288D01*
X525320D02*
X527606D01*
X531416D02*
X533702D01*
X458264Y441452D02*
X464868D01*
X470710D02*
X472996D01*
X475028D02*
X482648D01*
X486204D02*
X488998D01*
X492300D02*
X494840D01*
X498650D02*
X506016D01*
X511604D02*
X513890D01*
X515668D02*
X523542D01*
X525320D02*
X527606D01*
X531416D02*
X533702D01*
X458010Y441706D02*
X465122D01*
X470710D02*
X472996D01*
X475028D02*
X482902D01*
X486204D02*
X488998D01*
X492300D02*
X495094D01*
X498650D02*
X506270D01*
X511604D02*
X513890D01*
X515668D02*
X523542D01*
X525320D02*
X527606D01*
X531416D02*
X533702D01*
X457756Y441960D02*
X465376D01*
X470710D02*
X472996D01*
X475028D02*
X483156D01*
X485950D02*
X488998D01*
X492046D02*
X495094D01*
X498650D02*
X506524D01*
X511604D02*
X513890D01*
X515668D02*
X523796D01*
X525320D02*
X527606D01*
X531416D02*
X533702D01*
X458010Y442214D02*
X465376D01*
X470710D02*
X472996D01*
X475028D02*
X483156D01*
X485950D02*
X488998D01*
X492046D02*
X495094D01*
X498650D02*
X506524D01*
X511604D02*
X513890D01*
X515668D02*
X524050D01*
X525320D02*
X527606D01*
X531416D02*
X533702D01*
X458264Y442468D02*
X465630D01*
X470710D02*
X472996D01*
X475028D02*
X483156D01*
X485950D02*
X489252D01*
X492046D02*
X495348D01*
X498650D02*
X506778D01*
X511604D02*
X513890D01*
X515668D02*
X524050D01*
X525320D02*
X527606D01*
X531416D02*
X533702D01*
X458518Y442722D02*
X460550D01*
X462836D02*
X465630D01*
X470710D02*
X472996D01*
X475028D02*
X477822D01*
X480616D02*
X483410D01*
X485696D02*
X489252D01*
X491792D02*
X495348D01*
X498650D02*
X502206D01*
X503476D02*
X506778D01*
X511604D02*
X513890D01*
X515668D02*
X518716D01*
X521256D02*
X524050D01*
X525320D02*
X527606D01*
X531416D02*
X533702D01*
X458772Y442976D02*
X460042D01*
X463090D02*
X465884D01*
X470710D02*
X472996D01*
X475028D02*
X477568D01*
X480870D02*
X483410D01*
X485696D02*
X489252D01*
X491792D02*
X495348D01*
X498650D02*
X501698D01*
X503984D02*
X506778D01*
X511604D02*
X513890D01*
X515668D02*
X518462D01*
X521764D02*
X524050D01*
X525320D02*
X527606D01*
X531416D02*
X533702D01*
X459026Y443230D02*
X459788D01*
X463344D02*
X465884D01*
X470710D02*
X472996D01*
X475028D02*
X477568D01*
X481124D02*
X483410D01*
X485696D02*
X489506D01*
X491792D02*
X495602D01*
X498650D02*
X501444D01*
X504238D02*
X506778D01*
X511604D02*
X513890D01*
X515668D02*
X518208D01*
X521764D02*
X524050D01*
X525320D02*
X527606D01*
X531416D02*
X533702D01*
X463598Y443484D02*
X465884D01*
X470710D02*
X472996D01*
X475028D02*
X477314D01*
X481124D02*
X483410D01*
X485442D02*
X489506D01*
X491538D02*
X495602D01*
X498650D02*
X501190D01*
X504238D02*
X506778D01*
X511604D02*
X513890D01*
X515668D02*
X518208D01*
X522018D02*
X524050D01*
X525320D02*
X527606D01*
X531416D02*
X533702D01*
X463598Y443738D02*
X466138D01*
X470710D02*
X472996D01*
X475028D02*
X477314D01*
X481124D02*
X483410D01*
X485442D02*
X489506D01*
X491538D02*
X495602D01*
X498650D02*
X501190D01*
X504492D02*
X507032D01*
X511604D02*
X513890D01*
X515668D02*
X518208D01*
X522018D02*
X524050D01*
X525320D02*
X527606D01*
X531416D02*
X533702D01*
X463852Y443992D02*
X466138D01*
X470710D02*
X472996D01*
X475028D02*
X477314D01*
X481124D02*
X483410D01*
X485442D02*
X489506D01*
X491538D02*
X495856D01*
X498650D02*
X501190D01*
X504492D02*
X507032D01*
X511604D02*
X513890D01*
X515668D02*
X517954D01*
X521764D02*
X524050D01*
X525320D02*
X527606D01*
X531416D02*
X533702D01*
X463852Y444246D02*
X466138D01*
X470710D02*
X472996D01*
X475028D02*
X477314D01*
X480870D02*
X483410D01*
X485188D02*
X489760D01*
X491538D02*
X495856D01*
X498650D02*
X500936D01*
X504492D02*
X507032D01*
X511604D02*
X513890D01*
X515668D02*
X517954D01*
X521764D02*
X524050D01*
X525320D02*
X527606D01*
X531416D02*
X533702D01*
X463852Y444500D02*
X466138D01*
X470710D02*
X472996D01*
X475028D02*
X477314D01*
X480616D02*
X483410D01*
X485188D02*
X487474D01*
X487728D02*
X489760D01*
X491284D02*
X493570D01*
X493824D02*
X495856D01*
X498650D02*
X500936D01*
X504746D02*
X507032D01*
X511604D02*
X513890D01*
X515668D02*
X517954D01*
X521256D02*
X524050D01*
X525320D02*
X527606D01*
X531416D02*
X533702D01*
X457756Y444754D02*
X466138D01*
X470710D02*
X472996D01*
X475028D02*
X483156D01*
X485188D02*
X487220D01*
X487728D02*
X489760D01*
X491284D02*
X493316D01*
X493824D02*
X496110D01*
X498650D02*
X500936D01*
X504746D02*
X507032D01*
X511604D02*
X513890D01*
X515668D02*
X524050D01*
X525320D02*
X527606D01*
X531416D02*
X533702D01*
X457756Y445008D02*
X466138D01*
X470710D02*
X472996D01*
X475028D02*
X483156D01*
X485188D02*
X487220D01*
X487728D02*
X490014D01*
X491284D02*
X493316D01*
X493824D02*
X496110D01*
X498650D02*
X500936D01*
X504746D02*
X507032D01*
X511604D02*
X513890D01*
X515668D02*
X523796D01*
X525320D02*
X527606D01*
X531416D02*
X533702D01*
X457756Y445262D02*
X466138D01*
X470710D02*
X472996D01*
X475028D02*
X482902D01*
X484934D02*
X487220D01*
X487982D02*
X490014D01*
X491030D02*
X493316D01*
X493824D02*
X496110D01*
X498650D02*
X500936D01*
X504746D02*
X507032D01*
X511604D02*
X513890D01*
X515668D02*
X523796D01*
X525320D02*
X527606D01*
X531416D02*
X533702D01*
X457756Y445516D02*
X466138D01*
X470710D02*
X472996D01*
X475028D02*
X482902D01*
X484934D02*
X487220D01*
X487982D02*
X490014D01*
X491030D02*
X493062D01*
X494078D02*
X496364D01*
X498650D02*
X500936D01*
X504746D02*
X507032D01*
X511604D02*
X513890D01*
X515668D02*
X523542D01*
X525320D02*
X527606D01*
X531416D02*
X533702D01*
X457756Y445770D02*
X466138D01*
X470710D02*
X472996D01*
X475028D02*
X482648D01*
X484934D02*
X486966D01*
X487982D02*
X490268D01*
X491030D02*
X493062D01*
X494078D02*
X496364D01*
X498650D02*
X500936D01*
X504746D02*
X507032D01*
X511604D02*
X513890D01*
X515668D02*
X523288D01*
X525320D02*
X527606D01*
X531416D02*
X533702D01*
X457756Y446024D02*
X466138D01*
X470710D02*
X472996D01*
X475028D02*
X482140D01*
X484680D02*
X486966D01*
X488236D02*
X490268D01*
X490776D02*
X493062D01*
X494078D02*
X496364D01*
X498650D02*
X500936D01*
X504746D02*
X507032D01*
X511604D02*
X513890D01*
X515668D02*
X523034D01*
X525320D02*
X527606D01*
X531416D02*
X533702D01*
X457756Y446278D02*
X466138D01*
X470710D02*
X472996D01*
X475028D02*
X481886D01*
X484680D02*
X486966D01*
X488236D02*
X490268D01*
X490776D02*
X492808D01*
X494332D02*
X496364D01*
X498650D02*
X500936D01*
X504746D02*
X507032D01*
X511604D02*
X513890D01*
X515668D02*
X522526D01*
X525320D02*
X527606D01*
X531416D02*
X533702D01*
X457756Y446532D02*
X466138D01*
X470710D02*
X472996D01*
X475028D02*
X481124D01*
X484680D02*
X486966D01*
X488236D02*
X490268D01*
X490776D02*
X492808D01*
X494332D02*
X496618D01*
X498650D02*
X500936D01*
X504746D02*
X507032D01*
X511604D02*
X513890D01*
X515668D02*
X521764D01*
X525320D02*
X527606D01*
X531416D02*
X533702D01*
X457756Y446786D02*
X460042D01*
X463852D02*
X466138D01*
X470710D02*
X472996D01*
X475028D02*
X477314D01*
X484426D02*
X486712D01*
X488490D02*
X490522D01*
X490776D02*
X492808D01*
X494332D02*
X496618D01*
X498650D02*
X500936D01*
X504746D02*
X507032D01*
X511604D02*
X513890D01*
X515668D02*
X517954D01*
X525320D02*
X527606D01*
X531416D02*
X533702D01*
X457756Y447040D02*
X460042D01*
X463852D02*
X466138D01*
X470710D02*
X472996D01*
X475028D02*
X477314D01*
X484426D02*
X486712D01*
X488490D02*
X492554D01*
X494332D02*
X496618D01*
X498650D02*
X500936D01*
X504492D02*
X507032D01*
X511604D02*
X513890D01*
X515668D02*
X517954D01*
X525320D02*
X527606D01*
X531162D02*
X533702D01*
X457756Y447294D02*
X460042D01*
X463852D02*
X466138D01*
X470710D02*
X472996D01*
X475028D02*
X477314D01*
X484426D02*
X486712D01*
X488490D02*
X492554D01*
X494586D02*
X496872D01*
X498650D02*
X501190D01*
X504492D02*
X507032D01*
X511350D02*
X513890D01*
X515668D02*
X517954D01*
X525320D02*
X527860D01*
X531162D02*
X533702D01*
X457756Y447548D02*
X460296D01*
X463598D02*
X466138D01*
X470456D02*
X472996D01*
X475028D02*
X477314D01*
X484172D02*
X486458D01*
X488744D02*
X492554D01*
X494586D02*
X496872D01*
X498650D02*
X501190D01*
X504492D02*
X507032D01*
X511350D02*
X513890D01*
X515668D02*
X517954D01*
X525320D02*
X527860D01*
X531162D02*
X533702D01*
X457756Y447802D02*
X460296D01*
X463598D02*
X465884D01*
X470456D02*
X472996D01*
X475028D02*
X477314D01*
X484172D02*
X486458D01*
X488744D02*
X492300D01*
X494586D02*
X496872D01*
X498650D02*
X501444D01*
X504238D02*
X506778D01*
X511096D02*
X513890D01*
X515668D02*
X518208D01*
X525320D02*
X527860D01*
X530908D02*
X533702D01*
X457756Y448056D02*
X460550D01*
X463344D02*
X465884D01*
X470202D02*
X472996D01*
X475028D02*
X477568D01*
X480870D02*
X481378D01*
X484172D02*
X486458D01*
X488744D02*
X492300D01*
X494586D02*
X497126D01*
X498650D02*
X501444D01*
X504238D02*
X506778D01*
X510842D02*
X513890D01*
X515922D02*
X518208D01*
X521764D02*
X522272D01*
X525320D02*
X528114D01*
X530654D02*
X533702D01*
X458010Y448310D02*
X460804D01*
X463090D02*
X465884D01*
X467408D02*
X467916D01*
X469948D02*
X472996D01*
X475028D02*
X477568D01*
X480616D02*
X481886D01*
X483918D02*
X486458D01*
X488998D02*
X492300D01*
X494840D02*
X497126D01*
X498650D02*
X501698D01*
X503730D02*
X506778D01*
X508048D02*
X508810D01*
X510588D02*
X513890D01*
X515922D02*
X518462D01*
X521510D02*
X522526D01*
X525320D02*
X528622D01*
X530400D02*
X533702D01*
X458010Y448564D02*
X461312D01*
X462582D02*
X465630D01*
X467154D02*
X468678D01*
X469186D02*
X472996D01*
X475028D02*
X478076D01*
X480362D02*
X482140D01*
X483918D02*
X486204D01*
X488998D02*
X492046D01*
X494840D02*
X497126D01*
X498650D02*
X502460D01*
X503222D02*
X506778D01*
X507794D02*
X509318D01*
X510080D02*
X513890D01*
X515922D02*
X518970D01*
X521002D02*
X522780D01*
X525574D02*
X529130D01*
X529638D02*
X533702D01*
X458264Y448818D02*
X465630D01*
X466900D02*
X472996D01*
X475282D02*
X482394D01*
X483918D02*
X486204D01*
X488998D02*
X492046D01*
X494840D02*
X497380D01*
X498650D02*
X506778D01*
X507540D02*
X513890D01*
X515922D02*
X523288D01*
X525574D02*
X533702D01*
X458264Y449072D02*
X465376D01*
X466646D02*
X472996D01*
X475282D02*
X482648D01*
X483664D02*
X486204D01*
X489252D02*
X492046D01*
X495094D02*
X497380D01*
X498650D02*
X506524D01*
X507286D02*
X513890D01*
X516176D02*
X523542D01*
X525828D02*
X533702D01*
X458518Y449326D02*
X465122D01*
X466392D02*
X472996D01*
X475536D02*
X482902D01*
X483664D02*
X486204D01*
X489252D02*
X491792D01*
X495094D02*
X497380D01*
X498650D02*
X506524D01*
X507286D02*
X513890D01*
X516176D02*
X523542D01*
X525828D02*
X533702D01*
X458772Y449580D02*
X465122D01*
X466138D02*
X472996D01*
X475536D02*
X482648D01*
X483664D02*
X485950D01*
X489252D02*
X491792D01*
X495094D02*
X497634D01*
X498650D02*
X506270D01*
X507032D02*
X513890D01*
X516430D02*
X523542D01*
X526082D02*
X533702D01*
X459026Y449834D02*
X464868D01*
X466138D02*
X472996D01*
X475790D02*
X482648D01*
X483410D02*
X485950D01*
X489506D02*
X491792D01*
X495094D02*
X497634D01*
X498650D02*
X506016D01*
X506778D02*
X513890D01*
X516684D02*
X523288D01*
X526336D02*
X533702D01*
X459280Y450088D02*
X464614D01*
X465884D02*
X472996D01*
X476044D02*
X482140D01*
X483410D02*
X485950D01*
X489506D02*
X491538D01*
X495348D02*
X497634D01*
X498650D02*
X500936D01*
X501190D02*
X505762D01*
X506778D02*
X511350D01*
X511604D02*
X513890D01*
X516938D02*
X523034D01*
X526590D02*
X531162D01*
X531416D02*
X533702D01*
X459788Y450342D02*
X464106D01*
X466392D02*
X470202D01*
X470710D02*
X472996D01*
X476552D02*
X481886D01*
X483410D02*
X485696D01*
X489506D02*
X491538D01*
X495348D02*
X497888D01*
X498650D02*
X500936D01*
X501444D02*
X505508D01*
X507032D02*
X511096D01*
X511604D02*
X513890D01*
X517192D02*
X522526D01*
X526844D02*
X530908D01*
X531416D02*
X533702D01*
X460296Y450596D02*
X463598D01*
X466900D02*
X469694D01*
X470710D02*
X472996D01*
X477060D02*
X481378D01*
X483410D02*
X485696D01*
X489760D02*
X491538D01*
X495348D02*
X497888D01*
X498650D02*
X500936D01*
X501952D02*
X505000D01*
X507540D02*
X510588D01*
X511604D02*
X513890D01*
X517954D02*
X522018D01*
X527352D02*
X530400D01*
X531416D02*
X533702D01*
X461312Y450850D02*
X462582D01*
X467662D02*
X468932D01*
X478330D02*
X480108D01*
X498650D02*
X500936D01*
X502968D02*
X503984D01*
X508302D02*
X509572D01*
X519224D02*
X521002D01*
X528114D02*
X529384D01*
X531416D02*
X533702D01*
X498650Y451104D02*
X500936D01*
X531416D02*
X533702D01*
X498650Y451358D02*
X500936D01*
X531416D02*
X533702D01*
X498650Y451612D02*
X500936D01*
X531416D02*
X533702D01*
X498650Y451866D02*
X500936D01*
X531416D02*
X533702D01*
X498650Y452120D02*
X500936D01*
X531416D02*
X533702D01*
X498650Y452374D02*
X500936D01*
X531416D02*
X533702D01*
X498650Y452628D02*
X500936D01*
X531416D02*
X533702D01*
X498650Y452882D02*
X500936D01*
X531416D02*
X533702D01*
X498650Y453136D02*
X500936D01*
X531416D02*
X533702D01*
X498650Y453390D02*
X500936D01*
X531416D02*
X533702D01*
X498650Y453644D02*
X500936D01*
X531416D02*
X533702D01*
X498650Y453898D02*
X500936D01*
X531416D02*
X533702D01*
X498650Y454152D02*
X500936D01*
X531416D02*
X533702D01*
X498650Y454406D02*
X500936D01*
X531416D02*
X533702D01*
X498650Y454660D02*
X500936D01*
X531416D02*
X533702D01*
X531416Y454914D02*
X533702D01*
X531416Y455168D02*
X533702D01*
X531416Y455422D02*
X533702D01*
X531416Y455676D02*
X533702D01*
X531416Y455930D02*
X533702D01*
X531416Y456184D02*
X533702D01*
X449120Y456438D02*
X452422D01*
X457756D02*
X460804D01*
X468170D02*
X470456D01*
X472488D02*
X474774D01*
X476044D02*
X478584D01*
X484934D02*
X487982D01*
X494332D02*
X497888D01*
X505762D02*
X508048D01*
X511858D02*
X514144D01*
X517954D02*
X521256D01*
X527606D02*
X530146D01*
X531416D02*
X533702D01*
X537766D02*
X540814D01*
X448358Y456692D02*
X452930D01*
X457248D02*
X461566D01*
X468170D02*
X470456D01*
X472488D02*
X474774D01*
X475536D02*
X479092D01*
X484426D02*
X488744D01*
X493570D02*
X498650D01*
X505762D02*
X508048D01*
X511858D02*
X514144D01*
X517446D02*
X522018D01*
X527098D02*
X530654D01*
X531416D02*
X533702D01*
X537258D02*
X541576D01*
X447850Y456946D02*
X453438D01*
X456740D02*
X462074D01*
X468170D02*
X470456D01*
X472488D02*
X474774D01*
X475028D02*
X479600D01*
X483918D02*
X489252D01*
X493062D02*
X499158D01*
X505762D02*
X508048D01*
X511858D02*
X514144D01*
X516938D02*
X522272D01*
X526590D02*
X530908D01*
X531416D02*
X533702D01*
X536750D02*
X541830D01*
X447596Y457200D02*
X453692D01*
X456486D02*
X462328D01*
X468170D02*
X470456D01*
X472488D02*
X479854D01*
X483664D02*
X489506D01*
X492808D02*
X499666D01*
X505762D02*
X508048D01*
X511858D02*
X514144D01*
X516430D02*
X522780D01*
X526336D02*
X533702D01*
X536496D02*
X542338D01*
X447342Y457454D02*
X453946D01*
X455978D02*
X462582D01*
X468170D02*
X470456D01*
X472488D02*
X480108D01*
X483410D02*
X489760D01*
X492554D02*
X499920D01*
X505762D02*
X508048D01*
X511858D02*
X514144D01*
X516176D02*
X523034D01*
X526082D02*
X533702D01*
X536242D02*
X542592D01*
X447088Y457708D02*
X454200D01*
X455724D02*
X462836D01*
X468170D02*
X470456D01*
X472488D02*
X480362D01*
X483156D02*
X490014D01*
X492300D02*
X500174D01*
X505762D02*
X508048D01*
X511858D02*
X514144D01*
X515922D02*
X523288D01*
X525828D02*
X533702D01*
X535988D02*
X542846D01*
X446834Y457962D02*
X454454D01*
X455470D02*
X463090D01*
X468170D02*
X470456D01*
X472488D02*
X480362D01*
X483156D02*
X490014D01*
X492046D02*
X500428D01*
X505762D02*
X508048D01*
X511858D02*
X514144D01*
X515922D02*
X523288D01*
X525828D02*
X533702D01*
X535734D02*
X542846D01*
X447088Y458216D02*
X454708D01*
X455470D02*
X463090D01*
X468170D02*
X470456D01*
X472488D02*
X480616D01*
X482902D02*
X490268D01*
X492046D02*
X500682D01*
X505762D02*
X508048D01*
X511858D02*
X514144D01*
X515922D02*
X523542D01*
X525574D02*
X533702D01*
X535734D02*
X543100D01*
X447342Y458470D02*
X450136D01*
X451406D02*
X454708D01*
X455724D02*
X463344D01*
X468170D02*
X470456D01*
X472488D02*
X480616D01*
X482648D02*
X490522D01*
X491792D02*
X495348D01*
X496618D02*
X500428D01*
X505762D02*
X508048D01*
X511858D02*
X514144D01*
X516176D02*
X519224D01*
X520240D02*
X523542D01*
X525574D02*
X533702D01*
X535480D02*
X543100D01*
X447596Y458724D02*
X449628D01*
X451914D02*
X454962D01*
X455978D02*
X458264D01*
X460296D02*
X463598D01*
X468170D02*
X470456D01*
X472488D02*
X475790D01*
X477568D02*
X480616D01*
X482648D02*
X485696D01*
X487474D02*
X490522D01*
X491792D02*
X494586D01*
X497634D02*
X500174D01*
X505762D02*
X508048D01*
X511858D02*
X514144D01*
X516430D02*
X518462D01*
X520748D02*
X523796D01*
X525574D02*
X528622D01*
X530400D02*
X533702D01*
X535480D02*
X538528D01*
X540306D02*
X543354D01*
X447850Y458978D02*
X449120D01*
X452168D02*
X454962D01*
X456486D02*
X458010D01*
X460804D02*
X463598D01*
X468170D02*
X470456D01*
X472488D02*
X475536D01*
X477822D02*
X480870D01*
X482648D02*
X485442D01*
X487728D02*
X490522D01*
X491792D02*
X494332D01*
X498142D02*
X499920D01*
X505762D02*
X508048D01*
X511858D02*
X514144D01*
X516938D02*
X517954D01*
X521256D02*
X523796D01*
X525320D02*
X528114D01*
X530654D02*
X533702D01*
X535226D02*
X538020D01*
X540560D02*
X543354D01*
X448358Y459232D02*
X448866D01*
X452422D02*
X454962D01*
X456740D02*
X457502D01*
X461058D02*
X463598D01*
X468170D02*
X470456D01*
X472488D02*
X475282D01*
X478076D02*
X480870D01*
X482394D02*
X485188D01*
X487982D02*
X490776D01*
X491792D02*
X494078D01*
X498396D02*
X499666D01*
X505762D02*
X508048D01*
X511858D02*
X514144D01*
X517192D02*
X517700D01*
X521510D02*
X524050D01*
X525320D02*
X528114D01*
X530908D02*
X533702D01*
X535226D02*
X537766D01*
X540814D02*
X543354D01*
X452676Y459486D02*
X454962D01*
X456994D02*
X457248D01*
X461312D02*
X463852D01*
X468170D02*
X470456D01*
X472488D02*
X475028D01*
X478330D02*
X480870D01*
X482394D02*
X484934D01*
X488236D02*
X490776D01*
X491792D02*
X494078D01*
X498650D02*
X499412D01*
X505762D02*
X508048D01*
X511858D02*
X514144D01*
X521510D02*
X524050D01*
X525320D02*
X527860D01*
X530908D02*
X533702D01*
X535226D02*
X537766D01*
X541068D02*
X543608D01*
X452676Y459740D02*
X455216D01*
X461312D02*
X463852D01*
X468170D02*
X470456D01*
X472488D02*
X475028D01*
X478330D02*
X480870D01*
X482394D02*
X484680D01*
X488490D02*
X490776D01*
X491792D02*
X494078D01*
X505762D02*
X508048D01*
X511858D02*
X514144D01*
X521764D02*
X524050D01*
X525320D02*
X527860D01*
X531162D02*
X533702D01*
X535226D02*
X537512D01*
X541068D02*
X543608D01*
X452930Y459994D02*
X455216D01*
X461566D02*
X463852D01*
X468170D02*
X470456D01*
X472488D02*
X474774D01*
X478584D02*
X480870D01*
X482394D02*
X484680D01*
X488490D02*
X490776D01*
X491792D02*
X494332D01*
X505762D02*
X508048D01*
X511858D02*
X514144D01*
X521764D02*
X524050D01*
X525320D02*
X527606D01*
X531162D02*
X533702D01*
X535226D02*
X537512D01*
X541322D02*
X543608D01*
X452930Y460248D02*
X455216D01*
X461566D02*
X463852D01*
X468170D02*
X470456D01*
X472488D02*
X474774D01*
X478584D02*
X480870D01*
X482394D02*
X484680D01*
X488490D02*
X490776D01*
X491792D02*
X494586D01*
X505762D02*
X508048D01*
X511858D02*
X514144D01*
X521764D02*
X524050D01*
X525320D02*
X527606D01*
X531162D02*
X533702D01*
X535226D02*
X537512D01*
X541322D02*
X543608D01*
X452930Y460502D02*
X455216D01*
X461566D02*
X463852D01*
X468170D02*
X470456D01*
X472488D02*
X474774D01*
X478584D02*
X480870D01*
X482394D02*
X484680D01*
X488490D02*
X490776D01*
X491792D02*
X496110D01*
X505762D02*
X508048D01*
X511858D02*
X514144D01*
X522018D02*
X524050D01*
X525320D02*
X527606D01*
X531416D02*
X533702D01*
X535226D02*
X537512D01*
X541322D02*
X543608D01*
X446834Y460756D02*
X455216D01*
X461566D02*
X463852D01*
X468170D02*
X470456D01*
X472488D02*
X474774D01*
X478584D02*
X480870D01*
X482394D02*
X484680D01*
X488490D02*
X490776D01*
X492046D02*
X497888D01*
X505762D02*
X508048D01*
X511858D02*
X514144D01*
X515668D02*
X524304D01*
X525320D02*
X527606D01*
X531416D02*
X533702D01*
X535226D02*
X537512D01*
X541322D02*
X543608D01*
X446834Y461010D02*
X455216D01*
X461566D02*
X464106D01*
X468170D02*
X470456D01*
X472488D02*
X474774D01*
X478584D02*
X480870D01*
X482394D02*
X484680D01*
X488490D02*
X490776D01*
X492046D02*
X498650D01*
X505762D02*
X508048D01*
X511858D02*
X514144D01*
X515668D02*
X524304D01*
X525320D02*
X527606D01*
X531416D02*
X533702D01*
X535226D02*
X537512D01*
X541322D02*
X543608D01*
X446834Y461264D02*
X455216D01*
X461820D02*
X464106D01*
X468170D02*
X470456D01*
X472488D02*
X474774D01*
X478584D02*
X480870D01*
X482394D02*
X484680D01*
X488490D02*
X490776D01*
X492046D02*
X498904D01*
X505762D02*
X508048D01*
X511858D02*
X514144D01*
X515668D02*
X524304D01*
X525320D02*
X527606D01*
X531416D02*
X533702D01*
X534972D02*
X537258D01*
X541322D02*
X543608D01*
X446834Y461518D02*
X455216D01*
X461820D02*
X464106D01*
X468170D02*
X470456D01*
X472488D02*
X474774D01*
X478584D02*
X480870D01*
X482394D02*
X484680D01*
X488490D02*
X490776D01*
X492300D02*
X499158D01*
X505762D02*
X508048D01*
X511858D02*
X514144D01*
X515668D02*
X524304D01*
X525320D02*
X527606D01*
X531416D02*
X533702D01*
X534972D02*
X537258D01*
X541322D02*
X543608D01*
X446834Y461772D02*
X455216D01*
X461820D02*
X464106D01*
X468170D02*
X470456D01*
X472488D02*
X474774D01*
X478584D02*
X480870D01*
X482394D02*
X484680D01*
X488490D02*
X490776D01*
X492554D02*
X499412D01*
X505762D02*
X508048D01*
X511858D02*
X514144D01*
X515668D02*
X524304D01*
X525320D02*
X527606D01*
X531416D02*
X533702D01*
X534972D02*
X537258D01*
X541322D02*
X543608D01*
X446834Y462026D02*
X455216D01*
X461566D02*
X464106D01*
X468170D02*
X470456D01*
X472488D02*
X474774D01*
X478584D02*
X480870D01*
X482394D02*
X484680D01*
X488490D02*
X490776D01*
X492808D02*
X499666D01*
X505762D02*
X508048D01*
X511858D02*
X514144D01*
X515668D02*
X524304D01*
X525320D02*
X527606D01*
X531416D02*
X533702D01*
X535226D02*
X537512D01*
X541322D02*
X543608D01*
X446834Y462280D02*
X455216D01*
X461566D02*
X463852D01*
X468170D02*
X470456D01*
X472488D02*
X474774D01*
X478584D02*
X480870D01*
X482394D02*
X484680D01*
X488490D02*
X490776D01*
X493316D02*
X499666D01*
X505762D02*
X508048D01*
X511858D02*
X514144D01*
X515668D02*
X524304D01*
X525320D02*
X527606D01*
X531416D02*
X533702D01*
X535226D02*
X537512D01*
X541322D02*
X543608D01*
X446834Y462534D02*
X455216D01*
X461566D02*
X463852D01*
X468170D02*
X470456D01*
X472488D02*
X474774D01*
X478584D02*
X480870D01*
X482394D02*
X484680D01*
X488490D02*
X490776D01*
X494078D02*
X499920D01*
X505762D02*
X508048D01*
X511858D02*
X514144D01*
X515668D02*
X524050D01*
X525320D02*
X527606D01*
X531162D02*
X533702D01*
X535226D02*
X537512D01*
X541322D02*
X543608D01*
X446834Y462788D02*
X449120D01*
X452930D02*
X455216D01*
X461566D02*
X463852D01*
X468170D02*
X470456D01*
X472488D02*
X474774D01*
X478584D02*
X480870D01*
X482394D02*
X484680D01*
X488490D02*
X490776D01*
X496872D02*
X499920D01*
X505762D02*
X508048D01*
X511858D02*
X514144D01*
X515668D02*
X517954D01*
X521764D02*
X524050D01*
X525320D02*
X527606D01*
X531162D02*
X533702D01*
X535226D02*
X537512D01*
X541322D02*
X543608D01*
X446834Y463042D02*
X449120D01*
X452930D02*
X455216D01*
X461566D02*
X463852D01*
X468170D02*
X470456D01*
X472488D02*
X474774D01*
X478584D02*
X480870D01*
X482394D02*
X484680D01*
X488490D02*
X490776D01*
X497380D02*
X499920D01*
X505762D02*
X508302D01*
X511858D02*
X514144D01*
X515668D02*
X517954D01*
X521764D02*
X524050D01*
X525320D02*
X527606D01*
X531162D02*
X533702D01*
X535226D02*
X537512D01*
X541322D02*
X543608D01*
X446834Y463296D02*
X449120D01*
X452930D02*
X455216D01*
X461312D02*
X463852D01*
X468170D02*
X470456D01*
X472488D02*
X474774D01*
X478584D02*
X480870D01*
X482394D02*
X484680D01*
X488490D02*
X490776D01*
X497634D02*
X499920D01*
X505762D02*
X508302D01*
X511604D02*
X514144D01*
X515668D02*
X518208D01*
X521764D02*
X524050D01*
X525320D02*
X527860D01*
X531162D02*
X533702D01*
X535226D02*
X537512D01*
X541068D02*
X543608D01*
X446834Y463550D02*
X449374D01*
X452676D02*
X454962D01*
X456994D02*
X457248D01*
X461312D02*
X463852D01*
X467916D02*
X470456D01*
X472488D02*
X474774D01*
X478584D02*
X480870D01*
X482394D02*
X484934D01*
X488236D02*
X490776D01*
X497634D02*
X499920D01*
X505762D02*
X508302D01*
X511604D02*
X514144D01*
X515668D02*
X518208D01*
X521510D02*
X524050D01*
X525320D02*
X527860D01*
X530908D02*
X533702D01*
X535226D02*
X537766D01*
X541068D02*
X543608D01*
X446834Y463804D02*
X449374D01*
X452676D02*
X454962D01*
X456740D02*
X457502D01*
X461058D02*
X463598D01*
X467916D02*
X470456D01*
X472488D02*
X474774D01*
X478584D02*
X480870D01*
X482394D02*
X485188D01*
X487982D02*
X490776D01*
X493062D02*
X493570D01*
X497634D02*
X499920D01*
X505762D02*
X508556D01*
X511350D02*
X514144D01*
X515922D02*
X518462D01*
X521510D02*
X523796D01*
X525320D02*
X528114D01*
X530908D02*
X533702D01*
X535226D02*
X537766D01*
X540814D02*
X543354D01*
X447088Y464058D02*
X449628D01*
X452422D02*
X454962D01*
X456486D02*
X458010D01*
X460804D02*
X463598D01*
X464868D02*
X465376D01*
X467662D02*
X470456D01*
X472488D02*
X474774D01*
X478584D02*
X480870D01*
X482648D02*
X485442D01*
X487728D02*
X490522D01*
X493062D02*
X494078D01*
X497634D02*
X499920D01*
X506016D02*
X508810D01*
X511096D02*
X514144D01*
X515922D02*
X518462D01*
X521256D02*
X523796D01*
X525320D02*
X528114D01*
X530654D02*
X533702D01*
X535226D02*
X538020D01*
X540560D02*
X543354D01*
X447088Y464312D02*
X449882D01*
X452168D02*
X454708D01*
X455978D02*
X458264D01*
X460296D02*
X463598D01*
X464614D02*
X465630D01*
X467154D02*
X470456D01*
X472488D02*
X474774D01*
X478584D02*
X480870D01*
X482648D02*
X485696D01*
X487474D02*
X490522D01*
X492808D02*
X494586D01*
X497380D02*
X499920D01*
X506016D02*
X509318D01*
X510842D02*
X514144D01*
X515922D02*
X518970D01*
X521002D02*
X523796D01*
X525574D02*
X528622D01*
X530400D02*
X533702D01*
X535480D02*
X538528D01*
X540306D02*
X543354D01*
X447088Y464566D02*
X450644D01*
X451406D02*
X454708D01*
X455724D02*
X463344D01*
X464614D02*
X470456D01*
X472488D02*
X474774D01*
X478584D02*
X480870D01*
X482648D02*
X490522D01*
X492554D02*
X495348D01*
X496618D02*
X499920D01*
X506016D02*
X514144D01*
X516176D02*
X519478D01*
X520494D02*
X523542D01*
X525574D02*
X533702D01*
X535480D02*
X543100D01*
X447342Y464820D02*
X454454D01*
X455470D02*
X463090D01*
X464360D02*
X470456D01*
X472488D02*
X474774D01*
X478584D02*
X480870D01*
X482902D02*
X490268D01*
X492300D02*
X499666D01*
X506270D02*
X514144D01*
X516176D02*
X523542D01*
X525574D02*
X533702D01*
X535734D02*
X543100D01*
X447596Y465074D02*
X454454D01*
X455470D02*
X463090D01*
X464106D02*
X470456D01*
X472488D02*
X474774D01*
X478584D02*
X480870D01*
X483156D02*
X490014D01*
X492046D02*
X499666D01*
X506270D02*
X514144D01*
X516430D02*
X523288D01*
X525828D02*
X533702D01*
X535734D02*
X542846D01*
X447596Y465328D02*
X454200D01*
X455724D02*
X462836D01*
X463852D02*
X470456D01*
X472488D02*
X474774D01*
X478584D02*
X480870D01*
X483156D02*
X490014D01*
X492046D02*
X499412D01*
X506524D02*
X514144D01*
X516684D02*
X523034D01*
X525828D02*
X533702D01*
X535988D02*
X542846D01*
X447850Y465582D02*
X453946D01*
X455978D02*
X462582D01*
X463598D02*
X470456D01*
X472488D02*
X474774D01*
X478584D02*
X480870D01*
X483410D02*
X489760D01*
X492300D02*
X499412D01*
X506524D02*
X514144D01*
X516684D02*
X523034D01*
X526082D02*
X533702D01*
X536242D02*
X542592D01*
X448104Y465836D02*
X453692D01*
X456486D02*
X462328D01*
X463598D02*
X470456D01*
X472488D02*
X474774D01*
X478584D02*
X480870D01*
X483664D02*
X489506D01*
X492554D02*
X499158D01*
X506778D02*
X514144D01*
X517192D02*
X522780D01*
X526336D02*
X533702D01*
X536496D02*
X542338D01*
X448612Y466090D02*
X453438D01*
X456740D02*
X462074D01*
X463598D02*
X467916D01*
X468170D02*
X470456D01*
X472488D02*
X474774D01*
X478584D02*
X480870D01*
X483918D02*
X488998D01*
X493062D02*
X498904D01*
X507286D02*
X511604D01*
X511858D02*
X514144D01*
X517446D02*
X522272D01*
X526590D02*
X531162D01*
X531416D02*
X533702D01*
X536750D02*
X541830D01*
X448866Y466344D02*
X452930D01*
X457248D02*
X461566D01*
X463852D02*
X467662D01*
X468170D02*
X470456D01*
X472488D02*
X474774D01*
X478584D02*
X480870D01*
X484426D02*
X488744D01*
X493570D02*
X498396D01*
X507540D02*
X511350D01*
X511858D02*
X514144D01*
X517954D02*
X522018D01*
X527098D02*
X530654D01*
X531416D02*
X533702D01*
X537258D02*
X541576D01*
X449628Y466598D02*
X452422D01*
X457756D02*
X460804D01*
X464360D02*
X467154D01*
X468170D02*
X470456D01*
X472488D02*
X474774D01*
X478584D02*
X480870D01*
X485188D02*
X487982D01*
X494332D02*
X497634D01*
X508048D02*
X510588D01*
X511858D02*
X514144D01*
X518462D02*
X521256D01*
X527606D02*
X530146D01*
X531416D02*
X533702D01*
X537766D02*
X540814D01*
X471726Y474472D02*
X472996D01*
X517446D02*
X518716D01*
X471472Y474726D02*
X473250D01*
X517192D02*
X518970D01*
X471218Y474980D02*
X473758D01*
X516684D02*
X519224D01*
X470964Y475234D02*
X474012D01*
X516430D02*
X519478D01*
X470710Y475488D02*
X474520D01*
X515922D02*
X519732D01*
X470456Y475742D02*
X474774D01*
X515668D02*
X519986D01*
X470202Y475996D02*
X475028D01*
X515160D02*
X520240D01*
X469948Y476250D02*
X475536D01*
X514906D02*
X520494D01*
X469694Y476504D02*
X475790D01*
X514398D02*
X520748D01*
X469440Y476758D02*
X476298D01*
X514144D02*
X521002D01*
X469186Y477012D02*
X476552D01*
X513636D02*
X521256D01*
X468932Y477266D02*
X477060D01*
X513382D02*
X521510D01*
X468678Y477520D02*
X477314D01*
X513128D02*
X521764D01*
X468424Y477774D02*
X477822D01*
X483410D02*
X484426D01*
X506016D02*
X506778D01*
X512620D02*
X522018D01*
X468170Y478028D02*
X478076D01*
X483156D02*
X484680D01*
X505762D02*
X507286D01*
X512366D02*
X522272D01*
X467916Y478282D02*
X478584D01*
X482648D02*
X484680D01*
X505762D02*
X507794D01*
X511858D02*
X522526D01*
X467662Y478536D02*
X478838D01*
X482140D02*
X484680D01*
X505508D02*
X508302D01*
X511604D02*
X522780D01*
X467408Y478790D02*
X479346D01*
X481632D02*
X484934D01*
X505508D02*
X508810D01*
X511096D02*
X523034D01*
X467154Y479044D02*
X479600D01*
X481124D02*
X484934D01*
X505254D02*
X509318D01*
X510842D02*
X523288D01*
X466900Y479298D02*
X479854D01*
X480616D02*
X485188D01*
X505254D02*
X509826D01*
X510334D02*
X523542D01*
X466646Y479552D02*
X485188D01*
X505254D02*
X523796D01*
X466392Y479806D02*
X485442D01*
X505000D02*
X524050D01*
X466138Y480060D02*
X485442D01*
X505000D02*
X524304D01*
X465884Y480314D02*
X485442D01*
X504746D02*
X524558D01*
X465630Y480568D02*
X485696D01*
X504746D02*
X524812D01*
X465376Y480822D02*
X485696D01*
X504746D02*
X525066D01*
X465122Y481076D02*
X485950D01*
X504492D02*
X525320D01*
X465122Y481330D02*
X485950D01*
X504492D02*
X525320D01*
X464868Y481584D02*
X485950D01*
X504238D02*
X525320D01*
X465122Y481838D02*
X486204D01*
X504238D02*
X525320D01*
X465122Y482092D02*
X486204D01*
X503984D02*
X525320D01*
X465376Y482346D02*
X486458D01*
X503984D02*
X525066D01*
X465376Y482600D02*
X486458D01*
X503984D02*
X524812D01*
X465630Y482854D02*
X486712D01*
X503730D02*
X524812D01*
X465884Y483108D02*
X486712D01*
X503730D02*
X524558D01*
X465884Y483362D02*
X486712D01*
X503476D02*
X524304D01*
X466138Y483616D02*
X486966D01*
X503476D02*
X524304D01*
X466392Y483870D02*
X486966D01*
X503476D02*
X524050D01*
X466646Y484124D02*
X487220D01*
X503222D02*
X523796D01*
X466646Y484378D02*
X487220D01*
X503222D02*
X523796D01*
X466900Y484632D02*
X487220D01*
X502968D02*
X523542D01*
X467154Y484886D02*
X487474D01*
X502968D02*
X523288D01*
X467154Y485140D02*
X487474D01*
X502968D02*
X523034D01*
X467408Y485394D02*
X487728D01*
X502714D02*
X523034D01*
X467662Y485648D02*
X487728D01*
X502714D02*
X522780D01*
X467662Y485902D02*
X487728D01*
X502460D02*
X522526D01*
X467916Y486156D02*
X487982D01*
X502460D02*
X522526D01*
X468170Y486410D02*
X487982D01*
X502206D02*
X522272D01*
X468170Y486664D02*
X488236D01*
X502206D02*
X522018D01*
X468424Y486918D02*
X488236D01*
X502206D02*
X522018D01*
X468678Y487172D02*
X488490D01*
X501952D02*
X521764D01*
X468678Y487426D02*
X488490D01*
X501952D02*
X521510D01*
X468932Y487680D02*
X488490D01*
X501698D02*
X521510D01*
X469186Y487934D02*
X488744D01*
X501698D02*
X521256D01*
X469440Y488188D02*
X488744D01*
X501698D02*
X521002D01*
X469440Y488442D02*
X488998D01*
X501444D02*
X521002D01*
X469694Y488696D02*
X488998D01*
X501444D02*
X520748D01*
X469948Y488950D02*
X488998D01*
X501190D02*
X520494D01*
X469948Y489204D02*
X489252D01*
X501190D02*
X520494D01*
X470202Y489458D02*
X489252D01*
X500936D02*
X520240D01*
X470202Y489712D02*
X489506D01*
X500936D02*
X519986D01*
X470202Y489966D02*
X489506D01*
X500936D02*
X520240D01*
X470202Y490220D02*
X489760D01*
X500682D02*
X520240D01*
X469948Y490474D02*
X489760D01*
X500682D02*
X520240D01*
X469948Y490728D02*
X489760D01*
X500428D02*
X520494D01*
X469694Y490982D02*
X490014D01*
X500428D02*
X520494D01*
X469694Y491236D02*
X490014D01*
X500428D02*
X520748D01*
X469694Y491490D02*
X490268D01*
X500174D02*
X520748D01*
X469440Y491744D02*
X490268D01*
X500174D02*
X520748D01*
X469440Y491998D02*
X490268D01*
X499920D02*
X521002D01*
X469186Y492252D02*
X490522D01*
X499920D02*
X521002D01*
X469186Y492506D02*
X490522D01*
X499920D02*
X521256D01*
X469186Y492760D02*
X490776D01*
X499666D02*
X521256D01*
X468932Y493014D02*
X490776D01*
X499666D02*
X521256D01*
X468932Y493268D02*
X490776D01*
X499412D02*
X521510D01*
X468678Y493522D02*
X491030D01*
X499412D02*
X521510D01*
X468678Y493776D02*
X491030D01*
X499158D02*
X521764D01*
X468678Y494030D02*
X491284D01*
X499158D02*
X521764D01*
X468424Y494284D02*
X491284D01*
X499158D02*
X521764D01*
X468424Y494538D02*
X491284D01*
X499158D02*
X522018D01*
X468170Y494792D02*
X491030D01*
X499412D02*
X522018D01*
X468170Y495046D02*
X490522D01*
X499920D02*
X522272D01*
X468170Y495300D02*
X490268D01*
X500174D02*
X522272D01*
X467916Y495554D02*
X489760D01*
X500682D02*
X522272D01*
X467916Y495808D02*
X489506D01*
X500936D02*
X522526D01*
X467662Y496062D02*
X488998D01*
X501190D02*
X522526D01*
X467662Y496316D02*
X488744D01*
X501698D02*
X522780D01*
X467662Y496570D02*
X488490D01*
X501952D02*
X522780D01*
X467408Y496824D02*
X488236D01*
X502206D02*
X522780D01*
X467408Y497078D02*
X487982D01*
X502460D02*
X523034D01*
X467154Y497332D02*
X487728D01*
X502714D02*
X523288D01*
X465884Y497586D02*
X487474D01*
X502968D02*
X524304D01*
X464614Y497840D02*
X487220D01*
X503222D02*
X525828D01*
X463344Y498094D02*
X486966D01*
X503476D02*
X527098D01*
X461820Y498348D02*
X486712D01*
X503476D02*
X528622D01*
X460550Y498602D02*
X486712D01*
X503730D02*
X529892D01*
X459280Y498856D02*
X486458D01*
X503984D02*
X531162D01*
X457756Y499110D02*
X486204D01*
X503984D02*
X532686D01*
X457502Y499364D02*
X486204D01*
X504238D02*
X532940D01*
X457502Y499618D02*
X485950D01*
X504238D02*
X532940D01*
X457502Y499872D02*
X485950D01*
X504492D02*
X532940D01*
X457502Y500126D02*
X485696D01*
X504492D02*
X532940D01*
X457502Y500380D02*
X485696D01*
X504746D02*
X532940D01*
X457502Y500634D02*
X485442D01*
X504746D02*
X532940D01*
X457502Y500888D02*
X485442D01*
X505000D02*
X532940D01*
X457502Y501142D02*
X485442D01*
X505000D02*
X532940D01*
X457502Y501396D02*
X485188D01*
X505000D02*
X532940D01*
X457502Y501650D02*
X485188D01*
X505254D02*
X532940D01*
X457502Y501904D02*
X485188D01*
X505254D02*
X532940D01*
X457502Y502158D02*
X485188D01*
X505254D02*
X532940D01*
X457502Y502412D02*
X484934D01*
X505254D02*
X532940D01*
X457502Y502666D02*
X484934D01*
X505508D02*
X532940D01*
X457502Y502920D02*
X484934D01*
X505508D02*
X532940D01*
X457502Y503174D02*
X484934D01*
X505508D02*
X532940D01*
X457502Y503428D02*
X484934D01*
X505508D02*
X532940D01*
X457502Y503682D02*
X484934D01*
X505508D02*
X532940D01*
X457502Y503936D02*
X484934D01*
X505508D02*
X532940D01*
X457502Y504190D02*
X484934D01*
X505508D02*
X532940D01*
X457502Y504444D02*
X484934D01*
X505508D02*
X532940D01*
X457502Y504698D02*
X484934D01*
X505508D02*
X532940D01*
X457502Y504952D02*
X484934D01*
X505508D02*
X532940D01*
X457502Y505206D02*
X484934D01*
X505508D02*
X532940D01*
X457502Y505460D02*
X484934D01*
X505508D02*
X532940D01*
X457502Y505714D02*
X484934D01*
X505508D02*
X532940D01*
X457502Y505968D02*
X484934D01*
X505508D02*
X532940D01*
X457502Y506222D02*
X484934D01*
X505508D02*
X532940D01*
X457502Y506476D02*
X484934D01*
X505254D02*
X532940D01*
X457502Y506730D02*
X485188D01*
X505254D02*
X532940D01*
X457502Y506984D02*
X485188D01*
X505254D02*
X532940D01*
X457502Y507238D02*
X485188D01*
X505254D02*
X532940D01*
X457502Y507492D02*
X485442D01*
X505000D02*
X532940D01*
X457502Y507746D02*
X485442D01*
X505000D02*
X532940D01*
X457502Y508000D02*
X485442D01*
X505000D02*
X532940D01*
X457502Y508254D02*
X485696D01*
X504746D02*
X532940D01*
X457502Y508508D02*
X485696D01*
X504746D02*
X532940D01*
X457502Y508762D02*
X485696D01*
X504492D02*
X532940D01*
X457502Y509016D02*
X485950D01*
X504492D02*
X532940D01*
X457502Y509270D02*
X485950D01*
X504238D02*
X532940D01*
X457502Y509524D02*
X486204D01*
X504238D02*
X532940D01*
X457756Y509778D02*
X486458D01*
X503984D02*
X532686D01*
X459026Y510032D02*
X486458D01*
X503730D02*
X531416D01*
X460296Y510286D02*
X486712D01*
X503730D02*
X530146D01*
X461820Y510540D02*
X486966D01*
X503476D02*
X528622D01*
X463090Y510794D02*
X486966D01*
X503222D02*
X527352D01*
X464360Y511048D02*
X487220D01*
X502968D02*
X525828D01*
X465884Y511302D02*
X487474D01*
X502968D02*
X524558D01*
X467154Y511556D02*
X487728D01*
X502714D02*
X523288D01*
X467662Y511810D02*
X487982D01*
X502460D02*
X522780D01*
X467662Y512064D02*
X488236D01*
X502206D02*
X522780D01*
X467916Y512318D02*
X488490D01*
X501698D02*
X522526D01*
X467916Y512572D02*
X488998D01*
X501444D02*
X522526D01*
X467916Y512826D02*
X489252D01*
X501190D02*
X522272D01*
X468170Y513080D02*
X489506D01*
X500682D02*
X522272D01*
X468170Y513334D02*
X490014D01*
X500428D02*
X522272D01*
X468424Y513588D02*
X490522D01*
X499920D02*
X522018D01*
X468424Y513842D02*
X491030D01*
X499412D02*
X522018D01*
X468678Y514096D02*
X491538D01*
X498904D02*
X521764D01*
X468678Y514350D02*
X492300D01*
X498142D02*
X521764D01*
X468678Y514604D02*
X493316D01*
X496872D02*
X521510D01*
X468932Y514858D02*
X521510D01*
X468932Y515112D02*
X521510D01*
X469186Y515366D02*
X521256D01*
X469186Y515620D02*
X521256D01*
X469440Y515874D02*
X521002D01*
X469440Y516128D02*
X521002D01*
X469440Y516382D02*
X520748D01*
X469694Y516636D02*
X520748D01*
X469694Y516890D02*
X520748D01*
X469948Y517144D02*
X520494D01*
X469948Y517398D02*
X520494D01*
X470202Y517652D02*
X520240D01*
X470202Y517906D02*
X520240D01*
X470202Y518160D02*
X519986D01*
X470456Y518414D02*
X519986D01*
X470456Y518668D02*
X519986D01*
X470456Y518922D02*
X519732D01*
X470456Y519176D02*
X519986D01*
X470202Y519430D02*
X520240D01*
X469948Y519684D02*
X520240D01*
X469948Y519938D02*
X520494D01*
X469694Y520192D02*
X520748D01*
X469440Y520446D02*
X520748D01*
X469440Y520700D02*
X521002D01*
X469186Y520954D02*
X521256D01*
X468932Y521208D02*
X521510D01*
X468932Y521462D02*
X521510D01*
X468678Y521716D02*
X521764D01*
X468424Y521970D02*
X522018D01*
X468170Y522224D02*
X522018D01*
X468170Y522478D02*
X522272D01*
X467916Y522732D02*
X522526D01*
X467662Y522986D02*
X522526D01*
X467662Y523240D02*
X522780D01*
X467408Y523494D02*
X523034D01*
X467154Y523748D02*
X523034D01*
X467154Y524002D02*
X523288D01*
X466900Y524256D02*
X523542D01*
X466646Y524510D02*
X523542D01*
X466646Y524764D02*
X523796D01*
X466392Y525018D02*
X524050D01*
X466138Y525272D02*
X524304D01*
X466138Y525526D02*
X524304D01*
X465884Y525780D02*
X524558D01*
X465630Y526034D02*
X524812D01*
X465376Y526288D02*
X524812D01*
X465376Y526542D02*
X525066D01*
X465122Y526796D02*
X525320D01*
X465122Y527050D02*
X525320D01*
X464868Y527304D02*
X525320D01*
X465122Y527558D02*
X525320D01*
X465122Y527812D02*
X525320D01*
X465376Y528066D02*
X525066D01*
X465630Y528320D02*
X524812D01*
X465884Y528574D02*
X524558D01*
X466138Y528828D02*
X524304D01*
X466392Y529082D02*
X480870D01*
X481378D02*
X509064D01*
X509572D02*
X524050D01*
X466646Y529336D02*
X480362D01*
X481886D02*
X508556D01*
X510080D02*
X523796D01*
X466900Y529590D02*
X480108D01*
X482394D02*
X507794D01*
X510334D02*
X523542D01*
X467154Y529844D02*
X479600D01*
X483156D02*
X507286D01*
X510842D02*
X523288D01*
X467408Y530098D02*
X479346D01*
X483664D02*
X506524D01*
X511096D02*
X523034D01*
X467662Y530352D02*
X478838D01*
X484426D02*
X506016D01*
X511604D02*
X522780D01*
X467916Y530606D02*
X478584D01*
X484934D02*
X505508D01*
X511858D02*
X522526D01*
X468170Y530860D02*
X478076D01*
X485696D02*
X504746D01*
X512112D02*
X522272D01*
X468424Y531114D02*
X477822D01*
X486204D02*
X504238D01*
X512620D02*
X522018D01*
X468678Y531368D02*
X477314D01*
X486712D02*
X503476D01*
X512874D02*
X521764D01*
X468932Y531622D02*
X477060D01*
X487474D02*
X502968D01*
X513382D02*
X521510D01*
X469186Y531876D02*
X476552D01*
X487982D02*
X502460D01*
X513636D02*
X521256D01*
X469440Y532130D02*
X476298D01*
X487982D02*
X502460D01*
X514144D02*
X521002D01*
X469694Y532384D02*
X476044D01*
X487982D02*
X502206D01*
X514398D02*
X520748D01*
X469948Y532638D02*
X475536D01*
X488236D02*
X502206D01*
X514906D02*
X520494D01*
X470202Y532892D02*
X475282D01*
X488236D02*
X502206D01*
X515160D02*
X520240D01*
X470456Y533146D02*
X474774D01*
X488236D02*
X502206D01*
X515668D02*
X519986D01*
X470710Y533400D02*
X474520D01*
X488236D02*
X502206D01*
X515922D02*
X519732D01*
X470964Y533654D02*
X474012D01*
X488236D02*
X501952D01*
X516176D02*
X519478D01*
X471218Y533908D02*
X473758D01*
X488236D02*
X501952D01*
X516684D02*
X519224D01*
X471472Y534162D02*
X473250D01*
X488490D02*
X501952D01*
X516938D02*
X518970D01*
X471726Y534416D02*
X472996D01*
X488490D02*
X501952D01*
X517446D02*
X518716D01*
X488490Y534670D02*
X501952D01*
X488490Y534924D02*
X501952D01*
X488490Y535178D02*
X501698D01*
X488744Y535432D02*
X501698D01*
X488744Y535686D02*
X501698D01*
X488744Y535940D02*
X501698D01*
X488744Y536194D02*
X501698D01*
X488744Y536448D02*
X501444D01*
X488998Y536702D02*
X501444D01*
X488998Y536956D02*
X501444D01*
X488998Y537210D02*
X501444D01*
X488998Y537464D02*
X501444D01*
X488998Y537718D02*
X501190D01*
X488998Y537972D02*
X501190D01*
X489252Y538226D02*
X501190D01*
X489252Y538480D02*
X501190D01*
X489252Y538734D02*
X501190D01*
X489252Y538988D02*
X501190D01*
X489252Y539242D02*
X500936D01*
X489506Y539496D02*
X500936D01*
X489506Y539750D02*
X500936D01*
X489506Y540004D02*
X500936D01*
X489506Y540258D02*
X500936D01*
X489506Y540512D02*
X500682D01*
X489760Y540766D02*
X500682D01*
X489760Y541020D02*
X500682D01*
X489760Y541274D02*
X500682D01*
X489760Y541528D02*
X500682D01*
X489760Y541782D02*
X500428D01*
X490014Y542036D02*
X500428D01*
M02*
