G04*
G04 #@! TF.GenerationSoftware,Altium Limited,Altium Designer,18.1.6 (161)*
G04*
G04 Layer_Physical_Order=2*
G04 Layer_Color=16711680*
%FSLAX44Y44*%
%MOMM*%
G71*
G01*
G75*
%ADD10C,0.2540*%
%ADD25R,0.9200X0.9300*%
%ADD31R,0.7900X0.9300*%
%ADD43R,0.9300X0.7900*%
%ADD45R,0.9300X0.9200*%
%ADD77C,0.1524*%
%ADD78C,0.1778*%
%ADD79C,0.1780*%
%ADD81O,0.9000X1.6000*%
%ADD82C,1.0000*%
%ADD83R,1.0000X1.0000*%
%ADD84C,2.8000*%
%ADD85C,1.8000*%
%ADD86C,0.5000*%
%ADD87C,0.2000*%
%ADD88R,1.0000X1.7000*%
%ADD89R,1.0000X1.7000*%
G04:AMPARAMS|DCode=90|XSize=1.7mm|YSize=1mm|CornerRadius=0.25mm|HoleSize=0mm|Usage=FLASHONLY|Rotation=270.000|XOffset=0mm|YOffset=0mm|HoleType=Round|Shape=RoundedRectangle|*
%AMROUNDEDRECTD90*
21,1,1.7000,0.5000,0,0,270.0*
21,1,1.2000,1.0000,0,0,270.0*
1,1,0.5000,-0.2500,-0.6000*
1,1,0.5000,-0.2500,0.6000*
1,1,0.5000,0.2500,0.6000*
1,1,0.5000,0.2500,-0.6000*
%
%ADD90ROUNDEDRECTD90*%
%ADD91R,1.7000X1.0000*%
%ADD92R,1.7000X1.0000*%
G04:AMPARAMS|DCode=93|XSize=1.7mm|YSize=1mm|CornerRadius=0.25mm|HoleSize=0mm|Usage=FLASHONLY|Rotation=180.000|XOffset=0mm|YOffset=0mm|HoleType=Round|Shape=RoundedRectangle|*
%AMROUNDEDRECTD93*
21,1,1.7000,0.5000,0,0,180.0*
21,1,1.2000,1.0000,0,0,180.0*
1,1,0.5000,-0.6000,0.2500*
1,1,0.5000,0.6000,0.2500*
1,1,0.5000,0.6000,-0.2500*
1,1,0.5000,-0.6000,-0.2500*
%
%ADD93ROUNDEDRECTD93*%
%ADD94R,1.3151X1.7849*%
%ADD95C,6.0000*%
G36*
X547426Y49721D02*
X546157Y49417D01*
X543052Y53052D01*
X539162Y56374D01*
X534800Y59047D01*
X530074Y61005D01*
X525100Y62199D01*
X521250Y62502D01*
Y30000D01*
X520000D01*
Y28750D01*
X487498D01*
X487801Y24900D01*
X488995Y19926D01*
X490953Y15200D01*
X493626Y10838D01*
X496948Y6948D01*
X500583Y3844D01*
X500279Y2573D01*
X314536D01*
X314127Y3464D01*
X314058Y3844D01*
X315114Y5220D01*
X315820Y6923D01*
X316060Y8750D01*
Y11000D01*
X309000D01*
X301940D01*
Y8750D01*
X302180Y6923D01*
X302886Y5220D01*
X303942Y3844D01*
X303873Y3464D01*
X303465Y2573D01*
X248535D01*
X248127Y3464D01*
X248058Y3844D01*
X249114Y5220D01*
X249820Y6923D01*
X250060Y8750D01*
Y11000D01*
X243000D01*
X235940D01*
Y8750D01*
X236180Y6923D01*
X236886Y5220D01*
X237942Y3844D01*
X237873Y3464D01*
X237465Y2573D01*
X40000D01*
Y150000D01*
X2573D01*
Y500279D01*
X3844Y500583D01*
X6948Y496948D01*
X10838Y493626D01*
X15200Y490953D01*
X19926Y488995D01*
X24900Y487801D01*
X28750Y487498D01*
Y520000D01*
X30000D01*
Y521250D01*
X62502D01*
X62199Y525100D01*
X61005Y530074D01*
X59047Y534800D01*
X56374Y539162D01*
X53052Y543052D01*
X49417Y546157D01*
X49721Y547426D01*
X547426D01*
Y49721D01*
D02*
G37*
%LPC*%
G36*
X187000Y540103D02*
X185430Y539790D01*
X184099Y538901D01*
X183209Y537570D01*
X182897Y536000D01*
X183209Y534430D01*
X184099Y533099D01*
X185430Y532210D01*
X187000Y531897D01*
X188570Y532210D01*
X189901Y533099D01*
X190282Y533669D01*
X252035D01*
X259031Y526673D01*
X258897Y526000D01*
X259209Y524430D01*
X259813Y523526D01*
X259248Y522256D01*
X240576D01*
Y518063D01*
X175732D01*
X174840Y517885D01*
X174084Y517380D01*
X144673Y487969D01*
X144000Y488103D01*
X142430Y487790D01*
X141099Y486901D01*
X140210Y485570D01*
X139897Y484000D01*
X140210Y482430D01*
X141099Y481099D01*
X142430Y480210D01*
X144000Y479897D01*
X145570Y480210D01*
X146901Y481099D01*
X147790Y482430D01*
X148103Y484000D01*
X147969Y484673D01*
X176697Y513401D01*
X240576D01*
Y509208D01*
X260624D01*
Y521221D01*
X260814Y521453D01*
X261894Y522117D01*
X263000Y521897D01*
X264570Y522210D01*
X265901Y523099D01*
X266791Y524430D01*
X267103Y526000D01*
X266791Y527570D01*
X265901Y528901D01*
X264570Y529790D01*
X263000Y530103D01*
X262327Y529969D01*
X254648Y537648D01*
X253892Y538153D01*
X253000Y538331D01*
X190282D01*
X189901Y538901D01*
X188570Y539790D01*
X187000Y540103D01*
D02*
G37*
G36*
X307400Y523330D02*
X302650D01*
Y516982D01*
X312498D01*
Y518232D01*
X312110Y520183D01*
X311005Y521837D01*
X309351Y522942D01*
X307400Y523330D01*
D02*
G37*
G36*
X300150D02*
X295400D01*
X293449Y522942D01*
X291795Y521837D01*
X290690Y520183D01*
X290302Y518232D01*
Y516982D01*
X300150D01*
Y523330D01*
D02*
G37*
G36*
X438500Y544099D02*
X435457Y543799D01*
X432531Y542912D01*
X429834Y541470D01*
X427470Y539530D01*
X425530Y537166D01*
X424088Y534469D01*
X423201Y531543D01*
X422901Y528500D01*
X423201Y525457D01*
X424088Y522531D01*
X425530Y519834D01*
X427470Y517470D01*
X429834Y515530D01*
X432531Y514088D01*
X435457Y513201D01*
X438500Y512901D01*
X441543Y513201D01*
X444469Y514088D01*
X447166Y515530D01*
X449530Y517470D01*
X451470Y519834D01*
X452912Y522531D01*
X453799Y525457D01*
X454099Y528500D01*
X453799Y531543D01*
X452912Y534469D01*
X451470Y537166D01*
X449530Y539530D01*
X447166Y541470D01*
X444469Y542912D01*
X441543Y543799D01*
X438500Y544099D01*
D02*
G37*
G36*
X312498Y514482D02*
X302650D01*
Y508134D01*
X307400D01*
X309351Y508522D01*
X311005Y509627D01*
X312110Y511281D01*
X312498Y513232D01*
Y514482D01*
D02*
G37*
G36*
X300150D02*
X290302D01*
Y513232D01*
X290690Y511281D01*
X291795Y509627D01*
X293449Y508522D01*
X295400Y508134D01*
X300150D01*
Y514482D01*
D02*
G37*
G36*
X62502Y518750D02*
X31250D01*
Y487498D01*
X35100Y487801D01*
X40074Y488995D01*
X44800Y490953D01*
X49162Y493626D01*
X53052Y496948D01*
X56374Y500838D01*
X59047Y505200D01*
X61005Y509926D01*
X62199Y514900D01*
X62502Y518750D01*
D02*
G37*
G36*
X311424Y489236D02*
X291376D01*
Y476188D01*
X291376D01*
X291820Y475116D01*
X287878Y471174D01*
X279526D01*
Y458826D01*
X289390D01*
Y458650D01*
X297010D01*
Y458826D01*
X306874D01*
Y460170D01*
X308144Y461067D01*
X309000Y460897D01*
X310570Y461209D01*
X311901Y462099D01*
X312791Y463430D01*
X313103Y465000D01*
X312791Y466570D01*
X311901Y467901D01*
X310570Y468791D01*
X309000Y469103D01*
X308144Y468933D01*
X306874Y469830D01*
Y471174D01*
X297010D01*
Y471350D01*
X296306D01*
X295819Y472523D01*
X299484Y476188D01*
X311424D01*
Y489236D01*
D02*
G37*
G36*
X74850Y482935D02*
Y472750D01*
X85035D01*
X84804Y474502D01*
X83645Y477300D01*
X81802Y479702D01*
X79400Y481545D01*
X76602Y482704D01*
X74850Y482935D01*
D02*
G37*
G36*
X72350D02*
X70598Y482704D01*
X67800Y481545D01*
X65398Y479702D01*
X63555Y477300D01*
X62396Y474502D01*
X62165Y472750D01*
X72350D01*
Y482935D01*
D02*
G37*
G36*
X260624Y489236D02*
X240576D01*
Y476188D01*
X250151D01*
Y471174D01*
X246876D01*
Y469849D01*
X240936D01*
X240901Y469901D01*
X239570Y470790D01*
X238000Y471103D01*
X236430Y470790D01*
X235099Y469901D01*
X235064Y469849D01*
X185000D01*
X185000Y469849D01*
X183910Y469632D01*
X182986Y469014D01*
X182986Y469014D01*
X163820Y449849D01*
X73880D01*
X57435Y466294D01*
X58453Y468753D01*
X58815Y471500D01*
X58453Y474247D01*
X57393Y476807D01*
X55706Y479006D01*
X53507Y480693D01*
X50947Y481753D01*
X48200Y482115D01*
X45453Y481753D01*
X42893Y480693D01*
X40694Y479006D01*
X39007Y476807D01*
X37947Y474247D01*
X37585Y471500D01*
X37947Y468753D01*
X39007Y466193D01*
X40694Y463994D01*
X42893Y462307D01*
X45453Y461247D01*
X48200Y460885D01*
X50947Y461247D01*
X53406Y462265D01*
X70686Y444986D01*
X70686Y444986D01*
X71610Y444368D01*
X72700Y444151D01*
X72700Y444151D01*
X165000D01*
X165000Y444151D01*
X166090Y444368D01*
X167014Y444986D01*
X186180Y464151D01*
X235064D01*
X235099Y464099D01*
X236430Y463209D01*
X238000Y462897D01*
X239570Y463209D01*
X240901Y464099D01*
X240936Y464151D01*
X246876D01*
Y458826D01*
X255145D01*
X285151Y428820D01*
Y282936D01*
X285099Y282901D01*
X284209Y281570D01*
X283897Y280000D01*
X284209Y278430D01*
X285099Y277099D01*
X286430Y276210D01*
X288000Y275897D01*
X289570Y276210D01*
X290901Y277099D01*
X290936Y277151D01*
X443000D01*
X443000Y277151D01*
X444090Y277368D01*
X445014Y277986D01*
X455730Y288701D01*
X457749D01*
X458650Y287810D01*
Y283550D01*
X457850D01*
Y277700D01*
X472150D01*
Y283550D01*
X471350D01*
Y287810D01*
X471174D01*
Y293695D01*
X474918Y297439D01*
X476188Y296913D01*
Y291376D01*
X489236D01*
Y311424D01*
X476188D01*
Y304249D01*
X474850D01*
X473760Y304032D01*
X472836Y303414D01*
X472836Y303414D01*
X467095Y297674D01*
X458826D01*
Y294399D01*
X454550D01*
X454550Y294399D01*
X453460Y294182D01*
X452536Y293564D01*
X452536Y293564D01*
X441820Y282849D01*
X290936D01*
X290901Y282901D01*
X290849Y282936D01*
Y430000D01*
X290849Y430000D01*
X290632Y431090D01*
X290014Y432014D01*
X290014Y432014D01*
X265352Y456677D01*
X265838Y457850D01*
X266850D01*
Y465000D01*
Y472150D01*
X261000D01*
Y471350D01*
X256740D01*
X255849Y472251D01*
Y476188D01*
X260624D01*
Y489236D01*
D02*
G37*
G36*
X275200Y472150D02*
X269350D01*
Y466250D01*
X275200D01*
Y472150D01*
D02*
G37*
G36*
X124400Y482115D02*
X121653Y481753D01*
X119093Y480693D01*
X116894Y479006D01*
X115207Y476807D01*
X114147Y474247D01*
X113785Y471500D01*
X114147Y468753D01*
X115207Y466193D01*
X116894Y463994D01*
X119093Y462307D01*
X121653Y461247D01*
X124400Y460885D01*
X127147Y461247D01*
X129707Y462307D01*
X131906Y463994D01*
X133593Y466193D01*
X134653Y468753D01*
X135015Y471500D01*
X134653Y474247D01*
X133593Y476807D01*
X131906Y479006D01*
X129707Y480693D01*
X127147Y481753D01*
X124400Y482115D01*
D02*
G37*
G36*
X99000D02*
X96253Y481753D01*
X93693Y480693D01*
X91494Y479006D01*
X89807Y476807D01*
X88747Y474247D01*
X88385Y471500D01*
X88747Y468753D01*
X89807Y466193D01*
X91494Y463994D01*
X93693Y462307D01*
X96253Y461247D01*
X99000Y460885D01*
X101747Y461247D01*
X104307Y462307D01*
X106506Y463994D01*
X108193Y466193D01*
X109253Y468753D01*
X109615Y471500D01*
X109253Y474247D01*
X108193Y476807D01*
X106506Y479006D01*
X104307Y480693D01*
X101747Y481753D01*
X99000Y482115D01*
D02*
G37*
G36*
X85035Y470250D02*
X74850D01*
Y460065D01*
X76602Y460296D01*
X79400Y461455D01*
X81802Y463298D01*
X83645Y465700D01*
X84804Y468498D01*
X85035Y470250D01*
D02*
G37*
G36*
X72350D02*
X62165D01*
X62396Y468498D01*
X63555Y465700D01*
X65398Y463298D01*
X67800Y461455D01*
X70598Y460296D01*
X72350Y460065D01*
Y470250D01*
D02*
G37*
G36*
X275200Y463750D02*
X269350D01*
Y457850D01*
X275200D01*
Y463750D01*
D02*
G37*
G36*
X240000Y386150D02*
X200000Y386149D01*
X198834Y385666D01*
X198350Y384500D01*
Y309500D01*
X198834Y308333D01*
X200000Y307850D01*
X240000Y307850D01*
X241166Y308334D01*
X241650Y309500D01*
Y384500D01*
X241166Y385666D01*
X240000Y386150D01*
D02*
G37*
G36*
X38768Y312498D02*
X37518D01*
Y302650D01*
X43866D01*
Y307400D01*
X43478Y309351D01*
X42373Y311005D01*
X40719Y312110D01*
X38768Y312498D01*
D02*
G37*
G36*
X35018D02*
X33768D01*
X31817Y312110D01*
X30163Y311005D01*
X29058Y309351D01*
X28670Y307400D01*
Y302650D01*
X35018D01*
Y312498D01*
D02*
G37*
G36*
X85000Y313103D02*
X83430Y312791D01*
X82099Y311901D01*
X81209Y310570D01*
X80897Y309000D01*
X81067Y308144D01*
X80170Y306874D01*
X78826D01*
Y297010D01*
X78650D01*
Y296306D01*
X77477Y295820D01*
X75812Y297484D01*
Y311424D01*
X62764D01*
Y291376D01*
X75328D01*
X78826Y287878D01*
Y279526D01*
X91174D01*
Y289390D01*
X91350D01*
Y297010D01*
X91174D01*
Y306874D01*
X89830D01*
X88933Y308144D01*
X89103Y309000D01*
X88791Y310570D01*
X87901Y311901D01*
X86570Y312791D01*
X85000Y313103D01*
D02*
G37*
G36*
X515732Y320371D02*
X514162Y320059D01*
X512831Y319169D01*
X511941Y317838D01*
X511629Y316268D01*
X511941Y314698D01*
X512831Y313367D01*
X512883Y313332D01*
Y311424D01*
X509208D01*
Y291376D01*
X522256D01*
Y311424D01*
X518581D01*
Y313332D01*
X518633Y313367D01*
X519523Y314698D01*
X519835Y316268D01*
X519523Y317838D01*
X518633Y319169D01*
X517302Y320059D01*
X515732Y320371D01*
D02*
G37*
G36*
X43866Y300150D02*
X37518D01*
Y290302D01*
X38768D01*
X40719Y290690D01*
X42373Y291795D01*
X43478Y293449D01*
X43866Y295400D01*
Y300150D01*
D02*
G37*
G36*
X35018D02*
X28670D01*
Y295400D01*
X29058Y293449D01*
X30163Y291795D01*
X31817Y290690D01*
X33768Y290302D01*
X35018D01*
Y300150D01*
D02*
G37*
G36*
X250250Y276849D02*
Y273250D01*
X253849D01*
X253710Y273951D01*
X252605Y275605D01*
X250951Y276710D01*
X250250Y276849D01*
D02*
G37*
G36*
X247750D02*
X247049Y276710D01*
X245395Y275605D01*
X244290Y273951D01*
X244151Y273250D01*
X247750D01*
Y276849D01*
D02*
G37*
G36*
X92150Y278200D02*
X86250D01*
Y272350D01*
X92150D01*
Y278200D01*
D02*
G37*
G36*
X83750D02*
X77850D01*
Y272350D01*
X83750D01*
Y278200D01*
D02*
G37*
G36*
X253849Y270750D02*
X244151D01*
X244290Y270049D01*
X245055Y268905D01*
X245292Y268000D01*
X245055Y267095D01*
X244290Y265951D01*
X244151Y265250D01*
X253849D01*
X253710Y265951D01*
X252945Y267095D01*
X252708Y268000D01*
X252945Y268905D01*
X253710Y270049D01*
X253849Y270750D01*
D02*
G37*
G36*
Y262750D02*
X250250D01*
Y259151D01*
X250951Y259290D01*
X252605Y260395D01*
X253710Y262049D01*
X253849Y262750D01*
D02*
G37*
G36*
X247750D02*
X244151D01*
X244290Y262049D01*
X245395Y260395D01*
X247049Y259290D01*
X247750Y259151D01*
Y262750D01*
D02*
G37*
G36*
X518232Y261698D02*
X516982D01*
Y251850D01*
X523330D01*
Y256600D01*
X522942Y258551D01*
X521837Y260205D01*
X520183Y261310D01*
X518232Y261698D01*
D02*
G37*
G36*
X514482D02*
X513232D01*
X511281Y261310D01*
X509627Y260205D01*
X508522Y258551D01*
X508134Y256600D01*
Y251850D01*
X514482D01*
Y261698D01*
D02*
G37*
G36*
X92150Y269850D02*
X85000D01*
X77850D01*
Y264000D01*
X78650D01*
Y259740D01*
X78826D01*
Y253305D01*
X77082Y251561D01*
X75812Y251704D01*
Y260624D01*
X62764D01*
X62764Y260624D01*
Y260624D01*
X61903Y261464D01*
X61815Y261553D01*
X62103Y263000D01*
X61790Y264570D01*
X60901Y265901D01*
X59570Y266791D01*
X58000Y267103D01*
X56430Y266791D01*
X55099Y265901D01*
X54209Y264570D01*
X53897Y263000D01*
X54209Y261430D01*
X55099Y260099D01*
X56430Y259209D01*
X57390Y259018D01*
X62764Y253645D01*
Y240576D01*
X75812D01*
Y246540D01*
X78000D01*
X78941Y246727D01*
X79740Y247260D01*
X82355Y249876D01*
X91174D01*
Y259740D01*
X91350D01*
Y264000D01*
X92150D01*
Y269850D01*
D02*
G37*
G36*
X241450Y301553D02*
X239880Y301241D01*
X238549Y300351D01*
X237659Y299020D01*
X237347Y297450D01*
X237659Y295880D01*
X238151Y295144D01*
Y282180D01*
X236986Y281014D01*
X236368Y280090D01*
X236151Y279000D01*
X236151Y279000D01*
Y257934D01*
X235430Y257791D01*
X234099Y256901D01*
X233209Y255570D01*
X232897Y254000D01*
X232910Y253938D01*
X225986Y247014D01*
X225368Y246090D01*
X225151Y245000D01*
X225151Y245000D01*
Y221936D01*
X225099Y221901D01*
X224209Y220570D01*
X223897Y219000D01*
X224209Y217430D01*
X225099Y216099D01*
X225151Y216064D01*
Y214180D01*
X224986Y214014D01*
X224368Y213090D01*
X224151Y212000D01*
X224151Y212000D01*
Y177936D01*
X224099Y177901D01*
X223209Y176570D01*
X222897Y175000D01*
X223209Y173430D01*
X224099Y172099D01*
X225430Y171209D01*
X227000Y170897D01*
X228570Y171209D01*
X229901Y172099D01*
X230791Y173430D01*
X231103Y175000D01*
X230791Y176570D01*
X229901Y177901D01*
X229849Y177936D01*
Y210820D01*
X230014Y210986D01*
X230014Y210986D01*
X230632Y211910D01*
X230849Y213000D01*
X230849Y213000D01*
Y216064D01*
X230901Y216099D01*
X231791Y217430D01*
X232103Y219000D01*
X231791Y220570D01*
X230901Y221901D01*
X230849Y221936D01*
Y243820D01*
X236938Y249909D01*
X237000Y249897D01*
X238570Y250210D01*
X239901Y251099D01*
X240791Y252430D01*
X241103Y254000D01*
X241085Y254091D01*
X241632Y254910D01*
X241849Y256000D01*
Y277820D01*
X243014Y278986D01*
X243014Y278986D01*
X243632Y279910D01*
X243849Y281000D01*
Y294213D01*
X244351Y294549D01*
X245240Y295880D01*
X245553Y297450D01*
X245240Y299020D01*
X244351Y300351D01*
X243020Y301241D01*
X241450Y301553D01*
D02*
G37*
G36*
X472150Y275200D02*
X457850D01*
X457850Y269350D01*
X458826Y268640D01*
X458826Y268080D01*
Y258810D01*
X458650D01*
Y251190D01*
X458826D01*
Y249260D01*
X455396D01*
X455101Y249701D01*
X453770Y250590D01*
X452200Y250903D01*
X450630Y250590D01*
X449299Y249701D01*
X448410Y248370D01*
X448097Y246800D01*
X448410Y245230D01*
X449299Y243899D01*
X450630Y243009D01*
X452200Y242697D01*
X453770Y243009D01*
X455101Y243899D01*
X455396Y244340D01*
X458826D01*
Y241326D01*
X471174D01*
Y251190D01*
X471350D01*
Y258810D01*
X471174D01*
Y260351D01*
X472620D01*
X476188Y256783D01*
Y240576D01*
X489236D01*
Y260624D01*
X480405D01*
X475814Y265214D01*
X474890Y265832D01*
X473800Y266049D01*
X473800Y266049D01*
X472072D01*
X471174Y266947D01*
X471174Y268640D01*
X472150Y269350D01*
X472150Y269384D01*
Y275200D01*
D02*
G37*
G36*
X42792Y260624D02*
X29744D01*
Y240576D01*
X42792D01*
Y260624D01*
D02*
G37*
G36*
X523330Y249350D02*
X516982D01*
Y239502D01*
X518232D01*
X520183Y239890D01*
X521837Y240995D01*
X522942Y242649D01*
X523330Y244600D01*
Y249350D01*
D02*
G37*
G36*
X514482D02*
X508134D01*
Y244600D01*
X508522Y242649D01*
X509627Y240995D01*
X511281Y239890D01*
X513232Y239502D01*
X514482D01*
Y249350D01*
D02*
G37*
G36*
X125650Y185809D02*
Y175624D01*
X135835D01*
X135604Y177376D01*
X134445Y180174D01*
X132602Y182576D01*
X130200Y184419D01*
X127402Y185578D01*
X125650Y185809D01*
D02*
G37*
G36*
X123150D02*
X121398Y185578D01*
X118600Y184419D01*
X116198Y182576D01*
X114355Y180174D01*
X113196Y177376D01*
X112965Y175624D01*
X123150D01*
Y185809D01*
D02*
G37*
G36*
X229000Y288103D02*
X227430Y287791D01*
X226099Y286901D01*
X225210Y285570D01*
X224897Y284000D01*
X225210Y282430D01*
X226099Y281099D01*
X226669Y280718D01*
Y258965D01*
X217352Y249648D01*
X216847Y248892D01*
X216669Y248000D01*
Y206965D01*
X177673Y167969D01*
X177000Y168103D01*
X175430Y167791D01*
X174099Y166901D01*
X173209Y165570D01*
X172897Y164000D01*
X173209Y162430D01*
X174099Y161099D01*
X175430Y160210D01*
X175888Y160118D01*
X175763Y158848D01*
X53000D01*
X53000Y158848D01*
X51909Y158632D01*
X50985Y158014D01*
X50985Y158014D01*
X45512Y152541D01*
X45450Y152553D01*
X43880Y152240D01*
X42549Y151351D01*
X41659Y150020D01*
X41347Y148450D01*
X41659Y146880D01*
X42549Y145549D01*
X43880Y144660D01*
X45450Y144347D01*
X47020Y144660D01*
X48351Y145549D01*
X49240Y146880D01*
X49553Y148450D01*
X49541Y148512D01*
X54180Y153151D01*
X241063D01*
X241098Y153099D01*
X242429Y152209D01*
X244000Y151897D01*
X245570Y152209D01*
X246901Y153099D01*
X247790Y154430D01*
X248102Y156000D01*
X247790Y157570D01*
X246901Y158901D01*
X245570Y159790D01*
X244000Y160103D01*
X242429Y159790D01*
X241098Y158901D01*
X241063Y158848D01*
X178237D01*
X178112Y160118D01*
X178570Y160210D01*
X179901Y161099D01*
X180791Y162430D01*
X181103Y164000D01*
X180969Y164673D01*
X220648Y204352D01*
X221153Y205108D01*
X221331Y206000D01*
Y247035D01*
X230648Y256352D01*
X231153Y257108D01*
X231331Y258000D01*
Y280718D01*
X231901Y281099D01*
X232791Y282430D01*
X233103Y284000D01*
X232791Y285570D01*
X231901Y286901D01*
X230570Y287791D01*
X229000Y288103D01*
D02*
G37*
G36*
X149800Y184989D02*
X147053Y184627D01*
X144493Y183567D01*
X142294Y181880D01*
X140607Y179681D01*
X139547Y177121D01*
X139185Y174374D01*
X139547Y171627D01*
X140607Y169067D01*
X142294Y166868D01*
X144493Y165181D01*
X147053Y164121D01*
X149800Y163759D01*
X152547Y164121D01*
X155107Y165181D01*
X157306Y166868D01*
X158993Y169067D01*
X160053Y171627D01*
X160415Y174374D01*
X160053Y177121D01*
X158993Y179681D01*
X157306Y181880D01*
X155107Y183567D01*
X152547Y184627D01*
X149800Y184989D01*
D02*
G37*
G36*
X99000D02*
X96253Y184627D01*
X93693Y183567D01*
X91494Y181880D01*
X89807Y179681D01*
X88747Y177121D01*
X88385Y174374D01*
X88747Y171627D01*
X89807Y169067D01*
X91494Y166868D01*
X93693Y165181D01*
X96253Y164121D01*
X99000Y163759D01*
X101747Y164121D01*
X104307Y165181D01*
X106506Y166868D01*
X108193Y169067D01*
X109253Y171627D01*
X109615Y174374D01*
X109253Y177121D01*
X108193Y179681D01*
X106506Y181880D01*
X104307Y183567D01*
X101747Y184627D01*
X99000Y184989D01*
D02*
G37*
G36*
X73600D02*
X70853Y184627D01*
X68293Y183567D01*
X66094Y181880D01*
X64407Y179681D01*
X63347Y177121D01*
X62985Y174374D01*
X63347Y171627D01*
X64407Y169067D01*
X66094Y166868D01*
X68293Y165181D01*
X70853Y164121D01*
X73600Y163759D01*
X76347Y164121D01*
X78907Y165181D01*
X81106Y166868D01*
X82793Y169067D01*
X83853Y171627D01*
X84215Y174374D01*
X83853Y177121D01*
X82793Y179681D01*
X81106Y181880D01*
X78907Y183567D01*
X76347Y184627D01*
X73600Y184989D01*
D02*
G37*
G36*
X48200D02*
X45453Y184627D01*
X42893Y183567D01*
X40694Y181880D01*
X39007Y179681D01*
X37947Y177121D01*
X37585Y174374D01*
X37947Y171627D01*
X39007Y169067D01*
X40694Y166868D01*
X42893Y165181D01*
X45453Y164121D01*
X48200Y163759D01*
X50947Y164121D01*
X53507Y165181D01*
X55706Y166868D01*
X57393Y169067D01*
X58453Y171627D01*
X58815Y174374D01*
X58453Y177121D01*
X57393Y179681D01*
X55706Y181880D01*
X53507Y183567D01*
X50947Y184627D01*
X48200Y184989D01*
D02*
G37*
G36*
X135835Y173124D02*
X125650D01*
Y162939D01*
X127402Y163170D01*
X130200Y164329D01*
X132602Y166172D01*
X134445Y168574D01*
X135604Y171372D01*
X135835Y173124D01*
D02*
G37*
G36*
X123150D02*
X112965D01*
X113196Y171372D01*
X114355Y168574D01*
X116198Y166172D01*
X118600Y164329D01*
X121398Y163170D01*
X123150Y162939D01*
Y173124D01*
D02*
G37*
G36*
X263000Y138103D02*
X261430Y137790D01*
X260099Y136901D01*
X259209Y135570D01*
X259188Y135460D01*
X133196D01*
X132901Y135901D01*
X131570Y136791D01*
X130000Y137103D01*
X128430Y136791D01*
X127099Y135901D01*
X126209Y134570D01*
X125897Y133000D01*
X126209Y131430D01*
X127099Y130099D01*
X128430Y129209D01*
X130000Y128897D01*
X131570Y129209D01*
X132901Y130099D01*
X133196Y130540D01*
X260936D01*
X261430Y130210D01*
X263000Y129897D01*
X264570Y130210D01*
X265901Y131099D01*
X266791Y132430D01*
X267103Y134000D01*
X266791Y135570D01*
X265901Y136901D01*
X264570Y137790D01*
X263000Y138103D01*
D02*
G37*
G36*
X438500Y134099D02*
X435457Y133799D01*
X432531Y132912D01*
X429834Y131470D01*
X427470Y129530D01*
X425530Y127166D01*
X424088Y124469D01*
X423201Y121543D01*
X422901Y118500D01*
X423201Y115457D01*
X424088Y112530D01*
X425530Y109834D01*
X427470Y107470D01*
X429834Y105530D01*
X432531Y104088D01*
X435457Y103201D01*
X438500Y102901D01*
X441543Y103201D01*
X444469Y104088D01*
X447166Y105530D01*
X449530Y107470D01*
X451470Y109834D01*
X452912Y112530D01*
X453799Y115457D01*
X454099Y118500D01*
X453799Y121543D01*
X452912Y124469D01*
X451470Y127166D01*
X449530Y129530D01*
X447166Y131470D01*
X444469Y132912D01*
X441543Y133799D01*
X438500Y134099D01*
D02*
G37*
G36*
X109250Y100849D02*
Y97250D01*
X112849D01*
X112710Y97951D01*
X111605Y99605D01*
X109951Y100710D01*
X109250Y100849D01*
D02*
G37*
G36*
X106750D02*
X106049Y100710D01*
X104395Y99605D01*
X103290Y97951D01*
X103151Y97250D01*
X106750D01*
Y100849D01*
D02*
G37*
G36*
X85250D02*
Y97250D01*
X88849D01*
X88710Y97951D01*
X87605Y99605D01*
X85951Y100710D01*
X85250Y100849D01*
D02*
G37*
G36*
X82750D02*
X82049Y100710D01*
X80395Y99605D01*
X79290Y97951D01*
X79151Y97250D01*
X82750D01*
Y100849D01*
D02*
G37*
G36*
X112849Y94750D02*
X109250D01*
Y91151D01*
X109951Y91290D01*
X111605Y92395D01*
X112710Y94049D01*
X112849Y94750D01*
D02*
G37*
G36*
X106750D02*
X103151D01*
X103290Y94049D01*
X104395Y92395D01*
X106049Y91290D01*
X106750Y91151D01*
Y94750D01*
D02*
G37*
G36*
X88849D02*
X85250D01*
Y91151D01*
X85951Y91290D01*
X87605Y92395D01*
X88710Y94049D01*
X88849Y94750D01*
D02*
G37*
G36*
X82750D02*
X79151D01*
X79290Y94049D01*
X80395Y92395D01*
X82049Y91290D01*
X82750Y91151D01*
Y94750D01*
D02*
G37*
G36*
X57500Y102603D02*
X55930Y102290D01*
X54599Y101401D01*
X53710Y100070D01*
X53397Y98500D01*
X53710Y96930D01*
X54599Y95599D01*
X55930Y94710D01*
X57500Y94397D01*
X58019Y94500D01*
X65539Y86980D01*
Y51000D01*
X65726Y50058D01*
X66260Y49260D01*
X101788Y13731D01*
X101262Y12461D01*
X98020D01*
X57461Y53019D01*
Y54805D01*
X57901Y55099D01*
X58790Y56430D01*
X59103Y58000D01*
X58790Y59570D01*
X57901Y60901D01*
X56570Y61790D01*
X55000Y62103D01*
X53430Y61790D01*
X52099Y60901D01*
X51210Y59570D01*
X50897Y58000D01*
X51210Y56430D01*
X52099Y55099D01*
X52539Y54805D01*
Y52000D01*
X52726Y51058D01*
X53260Y50260D01*
X95260Y8260D01*
X96058Y7726D01*
X97000Y7539D01*
X185000D01*
X185942Y7726D01*
X186740Y8260D01*
X199829Y21348D01*
X236872D01*
X237498Y20078D01*
X236886Y19280D01*
X236180Y17577D01*
X235940Y15750D01*
Y13500D01*
X243000D01*
X250060D01*
Y15750D01*
X249820Y17577D01*
X249114Y19280D01*
X248502Y20078D01*
X249128Y21348D01*
X302872D01*
X303498Y20078D01*
X302886Y19280D01*
X302180Y17577D01*
X301940Y15750D01*
Y13500D01*
X309000D01*
X316060D01*
Y15750D01*
X315820Y17577D01*
X315114Y19280D01*
X314502Y20078D01*
X315128Y21348D01*
X333810D01*
X334752Y21536D01*
X335550Y22069D01*
X352020Y38539D01*
X374558D01*
X374901Y37710D01*
X375947Y36347D01*
X376277Y36094D01*
X375846Y34824D01*
X374076D01*
Y21776D01*
X387124D01*
Y22037D01*
X388394Y22611D01*
X389518Y21749D01*
X391342Y20993D01*
X392050Y20900D01*
Y28300D01*
X394550D01*
Y20900D01*
X395258Y20993D01*
X397082Y21749D01*
X398649Y22951D01*
X399015Y23428D01*
X400285D01*
X400651Y22951D01*
X402218Y21749D01*
X404042Y20993D01*
X404750Y20900D01*
Y28300D01*
X407250D01*
Y20900D01*
X407958Y20993D01*
X409782Y21749D01*
X411349Y22951D01*
X412165Y24014D01*
X413535Y24133D01*
X413734Y24055D01*
X414047Y23647D01*
X415410Y22601D01*
X416997Y21944D01*
X418700Y21720D01*
X420403Y21944D01*
X421990Y22601D01*
X423353Y23647D01*
X424352Y24949D01*
X425037Y25049D01*
X425063D01*
X425748Y24949D01*
X426747Y23647D01*
X428110Y22601D01*
X429697Y21944D01*
X431400Y21720D01*
X433103Y21944D01*
X434690Y22601D01*
X436053Y23647D01*
X437099Y25010D01*
X437756Y26597D01*
X437980Y28300D01*
X437756Y30003D01*
X437099Y31590D01*
X436053Y32953D01*
X434751Y33952D01*
X434651Y34637D01*
Y34663D01*
X434751Y35348D01*
X436053Y36347D01*
X437099Y37710D01*
X437756Y39297D01*
X437980Y41000D01*
X437756Y42703D01*
X437099Y44290D01*
X436053Y45653D01*
X434690Y46699D01*
X433103Y47356D01*
X431400Y47580D01*
X429697Y47356D01*
X428110Y46699D01*
X426747Y45653D01*
X425748Y44351D01*
X425063Y44251D01*
X425037D01*
X424352Y44351D01*
X423353Y45653D01*
X421990Y46699D01*
X420403Y47356D01*
X418700Y47580D01*
X416997Y47356D01*
X415410Y46699D01*
X414047Y45653D01*
X413048Y44351D01*
X412363Y44251D01*
X412337D01*
X411652Y44351D01*
X410653Y45653D01*
X409290Y46699D01*
X407703Y47356D01*
X406000Y47580D01*
X404297Y47356D01*
X402710Y46699D01*
X401347Y45653D01*
X400348Y44351D01*
X399663Y44251D01*
X399637D01*
X398952Y44351D01*
X397953Y45653D01*
X396590Y46699D01*
X395003Y47356D01*
X393300Y47580D01*
X392063Y47417D01*
X384740Y54740D01*
X383942Y55274D01*
X383000Y55461D01*
X357253D01*
X356311Y55274D01*
X355512Y54740D01*
X331107Y30335D01*
X311424D01*
Y33808D01*
X326768D01*
X327710Y33995D01*
X328508Y34528D01*
X376519Y82540D01*
X411804D01*
X412099Y82099D01*
X413430Y81209D01*
X415000Y80897D01*
X416570Y81209D01*
X417901Y82099D01*
X418791Y83430D01*
X419103Y85000D01*
X418791Y86570D01*
X417901Y87901D01*
X416570Y88791D01*
X415000Y89103D01*
X413430Y88791D01*
X412099Y87901D01*
X411804Y87460D01*
X375500D01*
X374558Y87273D01*
X373760Y86740D01*
X325749Y38728D01*
X311424D01*
Y42792D01*
X291376D01*
Y30335D01*
X261667D01*
X261068Y31455D01*
X261310Y31817D01*
X261698Y33768D01*
Y35018D01*
X239502D01*
Y33768D01*
X239890Y31817D01*
X240132Y31455D01*
X239533Y30335D01*
X195000D01*
X194058Y30148D01*
X193260Y29614D01*
X181107Y17461D01*
X105020D01*
X70461Y52020D01*
Y88000D01*
X70274Y88942D01*
X69740Y89740D01*
X61500Y97981D01*
X61603Y98500D01*
X61290Y100070D01*
X60401Y101401D01*
X59070Y102290D01*
X57500Y102603D01*
D02*
G37*
G36*
X192500Y89603D02*
X190930Y89291D01*
X189599Y88401D01*
X188710Y87070D01*
X188397Y85500D01*
X188710Y83930D01*
X189599Y82599D01*
X190930Y81709D01*
X191477Y81601D01*
X191352Y80331D01*
X188000D01*
X187108Y80153D01*
X186352Y79648D01*
X183673Y76969D01*
X183000Y77103D01*
X181430Y76790D01*
X180099Y75901D01*
X179209Y74570D01*
X178897Y73000D01*
X179209Y71430D01*
X180099Y70099D01*
X181430Y69209D01*
X183000Y68897D01*
X184570Y69209D01*
X185901Y70099D01*
X186791Y71430D01*
X187103Y73000D01*
X186969Y73673D01*
X188965Y75669D01*
X197499D01*
X197779Y75455D01*
X197967Y75283D01*
X198034Y75259D01*
X198206Y75127D01*
X198241Y75080D01*
X198351Y75015D01*
X198605Y74820D01*
X198862Y74714D01*
X199232Y74496D01*
X199438Y74467D01*
X199599Y74336D01*
X200221Y74151D01*
X200243Y74142D01*
X200258Y74140D01*
X200539Y74057D01*
X200737Y74077D01*
X200861Y74061D01*
X201047Y73989D01*
X201355Y73996D01*
X202000Y73911D01*
X202917Y74032D01*
X203257Y74039D01*
X203376Y74092D01*
X203723Y74138D01*
X203774Y74135D01*
X204485Y74389D01*
X204597Y74490D01*
X204654Y74514D01*
X204791Y74535D01*
X204970Y74644D01*
X205395Y74820D01*
X205930Y75231D01*
X206162Y75373D01*
X206222Y75455D01*
X206410Y75599D01*
X206486Y75632D01*
X206584Y75733D01*
X206801Y75899D01*
X207011Y76174D01*
X207299Y76471D01*
X207363Y76632D01*
X207370Y76642D01*
X207512Y76743D01*
X207801Y77203D01*
X207880Y77305D01*
X207908Y77373D01*
X208088Y77660D01*
X208125Y77878D01*
X208266Y78048D01*
X208506Y78818D01*
X208558Y78943D01*
X208567Y79014D01*
X208580Y79061D01*
X208564Y79231D01*
X208636Y79594D01*
X208556Y80000D01*
X208561Y80094D01*
X208505Y80253D01*
X208459Y80486D01*
X208385Y80597D01*
X208383Y80602D01*
X208480Y81862D01*
X208524Y81899D01*
X208549Y82218D01*
X208575Y82348D01*
X208704Y82672D01*
X208604Y82905D01*
X208624Y83158D01*
X208239Y84342D01*
X208089Y84517D01*
X208044Y84744D01*
X207616Y85389D01*
X207474Y85485D01*
X207408Y85643D01*
X207124Y85928D01*
X206801Y86349D01*
X206221Y86794D01*
X206033Y86965D01*
X205966Y86990D01*
X205794Y87121D01*
X205759Y87168D01*
X205649Y87233D01*
X205395Y87428D01*
X205138Y87534D01*
X204768Y87752D01*
X204562Y87781D01*
X204401Y87912D01*
X203779Y88097D01*
X203757Y88106D01*
X203742Y88108D01*
X203461Y88192D01*
X203263Y88171D01*
X203139Y88188D01*
X202953Y88260D01*
X202645Y88253D01*
X202000Y88337D01*
X201083Y88217D01*
X200743Y88209D01*
X200624Y88156D01*
X200277Y88111D01*
X200226Y88113D01*
X199515Y87859D01*
X199403Y87759D01*
X199347Y87735D01*
X199209Y87713D01*
X199030Y87604D01*
X198605Y87428D01*
X198070Y87017D01*
X197838Y86875D01*
X197778Y86793D01*
X197600Y86656D01*
X196982Y86740D01*
X196812Y86766D01*
X196331Y86868D01*
X196290Y87070D01*
X195401Y88401D01*
X194070Y89291D01*
X192500Y89603D01*
D02*
G37*
G36*
X109250Y66849D02*
Y63250D01*
X112849D01*
X112710Y63951D01*
X111605Y65605D01*
X109951Y66710D01*
X109250Y66849D01*
D02*
G37*
G36*
X106750D02*
X106049Y66710D01*
X104395Y65605D01*
X103290Y63951D01*
X103151Y63250D01*
X106750D01*
Y66849D01*
D02*
G37*
G36*
X85250D02*
Y63250D01*
X88849D01*
X88710Y63951D01*
X87605Y65605D01*
X85951Y66710D01*
X85250Y66849D01*
D02*
G37*
G36*
X82750D02*
X82049Y66710D01*
X80395Y65605D01*
X79290Y63951D01*
X79151Y63250D01*
X82750D01*
Y66849D01*
D02*
G37*
G36*
X282000Y214103D02*
X280430Y213790D01*
X279099Y212901D01*
X278209Y211570D01*
X277897Y210000D01*
X278209Y208430D01*
X279099Y207099D01*
X280430Y206210D01*
X282000Y205897D01*
X282062Y205910D01*
X286151Y201820D01*
Y146180D01*
X263820Y123849D01*
X200000D01*
X198910Y123632D01*
X197986Y123014D01*
X197986Y123014D01*
X147562Y72590D01*
X147500Y72603D01*
X145930Y72291D01*
X144599Y71401D01*
X143709Y70070D01*
X143397Y68500D01*
X143709Y66930D01*
X144599Y65599D01*
X145930Y64710D01*
X147500Y64397D01*
X149070Y64710D01*
X150401Y65599D01*
X151291Y66930D01*
X151603Y68500D01*
X151590Y68562D01*
X193245Y110216D01*
X194415Y109590D01*
X194397Y109500D01*
X194709Y107930D01*
X195599Y106599D01*
X196930Y105709D01*
X198500Y105397D01*
X200070Y105709D01*
X201401Y106599D01*
X201782Y107169D01*
X216535D01*
X246719Y76985D01*
X246232Y75812D01*
X240576D01*
Y62764D01*
X255853D01*
X256339Y61591D01*
X252080Y57331D01*
X166282D01*
X165901Y57901D01*
X164570Y58790D01*
X163000Y59103D01*
X161430Y58790D01*
X160099Y57901D01*
X159209Y56570D01*
X158897Y55000D01*
X159209Y53430D01*
X160099Y52099D01*
X161430Y51210D01*
X163000Y50897D01*
X164570Y51210D01*
X165901Y52099D01*
X166282Y52669D01*
X253045D01*
X253937Y52847D01*
X254693Y53352D01*
X281167Y79826D01*
X289674D01*
Y83151D01*
X292820D01*
X298551Y77420D01*
Y75812D01*
X291376D01*
Y62764D01*
X311424D01*
Y75812D01*
X304249D01*
Y78600D01*
X304249Y78600D01*
X304032Y79690D01*
X303414Y80614D01*
X303414Y80614D01*
X298029Y86000D01*
X303014Y90986D01*
X303014Y90986D01*
X303632Y91910D01*
X303849Y93000D01*
X303849Y93000D01*
Y195000D01*
X303632Y196090D01*
X303014Y197014D01*
X303014Y197014D01*
X300091Y199938D01*
X300103Y200000D01*
X299790Y201570D01*
X298901Y202901D01*
X297570Y203790D01*
X296000Y204103D01*
X294430Y203790D01*
X293099Y202901D01*
X292508Y202948D01*
X291800Y203244D01*
X291632Y204090D01*
X291014Y205014D01*
X291014Y205014D01*
X286091Y209938D01*
X286103Y210000D01*
X285791Y211570D01*
X284901Y212901D01*
X283570Y213790D01*
X282000Y214103D01*
D02*
G37*
G36*
X112849Y60750D02*
X109250D01*
Y57151D01*
X109951Y57290D01*
X111605Y58395D01*
X112710Y60049D01*
X112849Y60750D01*
D02*
G37*
G36*
X106750D02*
X103151D01*
X103290Y60049D01*
X104395Y58395D01*
X106049Y57290D01*
X106750Y57151D01*
Y60750D01*
D02*
G37*
G36*
X88849D02*
X85250D01*
Y57151D01*
X85951Y57290D01*
X87605Y58395D01*
X88710Y60049D01*
X88849Y60750D01*
D02*
G37*
G36*
X82750D02*
X79151D01*
X79290Y60049D01*
X80395Y58395D01*
X82049Y57290D01*
X82750Y57151D01*
Y60750D01*
D02*
G37*
G36*
X256600Y43866D02*
X251850D01*
Y37518D01*
X261698D01*
Y38768D01*
X261310Y40719D01*
X260205Y42373D01*
X258551Y43478D01*
X256600Y43866D01*
D02*
G37*
G36*
X249350D02*
X244600D01*
X242649Y43478D01*
X240995Y42373D01*
X239890Y40719D01*
X239502Y38768D01*
Y37518D01*
X249350D01*
Y43866D01*
D02*
G37*
G36*
X518750Y62502D02*
X514900Y62199D01*
X509926Y61005D01*
X505200Y59047D01*
X500838Y56374D01*
X496948Y53052D01*
X493626Y49162D01*
X490953Y44800D01*
X488995Y40074D01*
X487801Y35100D01*
X487498Y31250D01*
X518750D01*
Y62502D01*
D02*
G37*
%LPD*%
G36*
X385307Y47213D02*
X384468Y46256D01*
X383890Y46699D01*
X382303Y47356D01*
X380600Y47580D01*
X378897Y47356D01*
X377310Y46699D01*
X375947Y45653D01*
X374901Y44290D01*
X374558Y43461D01*
X352854D01*
X352368Y44635D01*
X358272Y50539D01*
X381981D01*
X385307Y47213D01*
D02*
G37*
G36*
X203930Y86331D02*
X204921Y85747D01*
X205505Y85214D01*
X206242Y84477D01*
X206670Y83832D01*
X207055Y82648D01*
X206320Y81892D01*
X197700D01*
X197174Y82191D01*
X196996Y82699D01*
X197310Y83712D01*
X197885Y84629D01*
X198698Y85468D01*
X200070Y86306D01*
X200781Y86560D01*
X202991Y86611D01*
X203930Y86331D01*
D02*
G37*
G36*
X206826Y80057D02*
X207004Y79549D01*
X206690Y78537D01*
X206115Y77619D01*
X205302Y76781D01*
X203930Y75943D01*
X203219Y75689D01*
X201009Y75638D01*
X200070Y75917D01*
X199079Y76501D01*
X198495Y77035D01*
X197758Y77771D01*
X197330Y78417D01*
X196945Y79600D01*
X197680Y80357D01*
X206300D01*
X206826Y80057D01*
D02*
G37*
G36*
X294430Y196210D02*
X296000Y195897D01*
X296062Y195910D01*
X298151Y193820D01*
Y94180D01*
X292820Y88849D01*
X289674D01*
Y92174D01*
X279810D01*
Y92350D01*
X275550D01*
Y93150D01*
X269700D01*
Y86000D01*
Y78850D01*
X271939D01*
X272425Y77677D01*
X261797Y67049D01*
X260624Y67535D01*
Y75812D01*
X252931D01*
Y76400D01*
X252753Y77292D01*
X252248Y78048D01*
X219148Y111148D01*
X218392Y111653D01*
X217500Y111831D01*
X201782D01*
X201401Y112401D01*
X200070Y113291D01*
X198500Y113603D01*
X198410Y113585D01*
X197784Y114755D01*
X201180Y118151D01*
X265000D01*
X265000Y118151D01*
X266090Y118368D01*
X267014Y118986D01*
X291014Y142986D01*
X291014Y142986D01*
X291632Y143910D01*
X291849Y145000D01*
X291849Y145000D01*
Y196684D01*
X293099Y197099D01*
X294430Y196210D01*
D02*
G37*
%LPC*%
G36*
X238250Y110849D02*
Y107250D01*
X241849D01*
X241710Y107951D01*
X240605Y109605D01*
X238951Y110710D01*
X238250Y110849D01*
D02*
G37*
G36*
X235750D02*
X235049Y110710D01*
X233395Y109605D01*
X232290Y107951D01*
X232151Y107250D01*
X235750D01*
Y110849D01*
D02*
G37*
G36*
X241849Y104750D02*
X238250D01*
Y101151D01*
X238951Y101290D01*
X240605Y102395D01*
X241710Y104049D01*
X241849Y104750D01*
D02*
G37*
G36*
X235750D02*
X232151D01*
X232290Y104049D01*
X233395Y102395D01*
X235049Y101290D01*
X235750Y101151D01*
Y104750D01*
D02*
G37*
G36*
X267200Y93150D02*
X261350D01*
Y87250D01*
X267200D01*
Y93150D01*
D02*
G37*
G36*
Y84750D02*
X261350D01*
Y78850D01*
X267200D01*
Y84750D01*
D02*
G37*
%LPD*%
G54D10*
X241000Y281000D02*
Y297450D01*
X147500Y68500D02*
X200000Y121000D01*
X265000D01*
X282000Y210000D02*
X289000Y203000D01*
Y145000D02*
Y203000D01*
X265000Y121000D02*
X289000Y145000D01*
X53000Y156000D02*
X244000D01*
X45450Y148450D02*
X53000Y156000D01*
X301000Y93000D02*
Y195000D01*
X296000Y200000D02*
X301000Y195000D01*
X294000Y86000D02*
X301000Y93000D01*
X301400Y69288D02*
Y78600D01*
X294000Y86000D02*
X301400Y78600D01*
X283550Y86000D02*
X294000D01*
X253000Y465000D02*
X288000Y430000D01*
Y280000D02*
Y430000D01*
X454550Y291550D02*
X465000D01*
X443000Y280000D02*
X454550Y291550D01*
X288000Y280000D02*
X443000D01*
X482712Y250600D02*
Y254288D01*
X473800Y263200D02*
X482712Y254288D01*
X465000Y263200D02*
X473800D01*
X465000Y291550D02*
X474850Y301400D01*
X482712D01*
X301400Y465000D02*
X309000D01*
X515732Y301400D02*
Y316268D01*
X228000Y213000D02*
Y219000D01*
X227000Y212000D02*
X228000Y213000D01*
X227000Y175000D02*
Y212000D01*
X239000Y279000D02*
X241000Y281000D01*
X239000Y256000D02*
Y279000D01*
X237000Y254000D02*
X239000Y256000D01*
X228000Y245000D02*
X237000Y254000D01*
X228000Y219000D02*
Y245000D01*
X285000Y465000D02*
Y466312D01*
X250600Y482712D02*
X253000Y480312D01*
Y465000D02*
Y480312D01*
X251000Y467000D02*
X253000Y465000D01*
X238000Y467000D02*
X251000D01*
X48200Y471500D02*
X72700Y447000D01*
X165000D01*
X185000Y467000D01*
X238000D01*
G54D25*
X268450Y86000D02*
D03*
X283550D02*
D03*
X268100Y465000D02*
D03*
X253000D02*
D03*
G54D31*
X285000D02*
D03*
X301400D02*
D03*
G54D43*
X465000Y246800D02*
D03*
Y263200D02*
D03*
X85000Y285000D02*
D03*
Y301400D02*
D03*
G54D45*
X465000Y291550D02*
D03*
Y276450D02*
D03*
X85000Y256000D02*
D03*
Y271100D02*
D03*
G54D77*
X206305Y82654D02*
G03*
X202000Y85993I-4305J-1105D01*
G01*
X198288Y83994D02*
G03*
X197695Y82654I3711J-2446D01*
G01*
X200512Y76512D02*
G03*
X206305Y79594I1488J4188D01*
G01*
X202000Y85993D02*
G03*
X198469Y84248I0J-4445D01*
G01*
D02*
G03*
X198288Y83994I3531J-2700D01*
G01*
X198469Y78000D02*
G03*
X200512Y76512I3531J2700D01*
G01*
X197695Y79594D02*
G03*
X198469Y78000I4305J1105D01*
G01*
X177000Y164000D02*
X219000Y206000D01*
Y248000D01*
X229000Y258000D01*
Y284000D01*
X163000Y55000D02*
X253045D01*
X283550Y85505D01*
Y86000D01*
X250600Y69288D02*
Y76400D01*
X217500Y109500D02*
X250600Y76400D01*
X198500Y109500D02*
X217500D01*
X198469Y78000D02*
X202000D01*
X188000D02*
X198469D01*
X183000Y73000D02*
X188000Y78000D01*
X198469Y84248D02*
X202000D01*
X193752D02*
X198469D01*
X192500Y85500D02*
X193752Y84248D01*
X285000Y465000D02*
X301400Y481400D01*
X253000Y536000D02*
X263000Y526000D01*
X187000Y536000D02*
X253000D01*
X144000Y484000D02*
X175732Y515732D01*
X250600D01*
X85000Y301400D02*
Y309000D01*
X69288Y300712D02*
Y301400D01*
Y300712D02*
X85000Y285000D01*
X301400Y481400D02*
Y482712D01*
G54D78*
X375500Y85000D02*
X415000D01*
X326768Y36268D02*
X375500Y85000D01*
X301400Y36268D02*
X326768D01*
X130000Y133000D02*
X263000D01*
X452200Y246800D02*
X465000D01*
X69288Y250600D02*
X70888Y249000D01*
X78000D01*
X85000Y256000D01*
X58000Y261888D02*
Y263000D01*
Y261888D02*
X69288Y250600D01*
G54D79*
X97000Y10000D02*
X185000D01*
X55000Y52000D02*
Y58000D01*
Y52000D02*
X97000Y10000D01*
X104000Y15000D02*
X182126D01*
X57500Y98500D02*
X68000Y88000D01*
Y51000D02*
Y88000D01*
Y51000D02*
X104000Y15000D01*
X195000Y27874D02*
X332126D01*
X198810Y23810D02*
X333810D01*
X182126Y15000D02*
X195000Y27874D01*
X185000Y10000D02*
X198810Y23810D01*
X332126Y27874D02*
X357253Y53000D01*
X383000D01*
X393300Y42700D01*
Y41000D02*
Y42700D01*
X333810Y23810D02*
X351000Y41000D01*
X380600D01*
G54D81*
X243000Y12250D02*
D03*
X309000D02*
D03*
G54D82*
X431400Y41000D02*
D03*
Y28300D02*
D03*
X418700Y41000D02*
D03*
Y28300D02*
D03*
X406000Y41000D02*
D03*
Y28300D02*
D03*
X393300Y41000D02*
D03*
Y28300D02*
D03*
X380600Y41000D02*
D03*
G54D83*
Y28300D02*
D03*
G54D84*
X438500Y528500D02*
D03*
Y118500D02*
D03*
G54D85*
X124400Y471500D02*
D03*
X99000D02*
D03*
X73600D02*
D03*
X48200D02*
D03*
X124400Y174374D02*
D03*
X99000D02*
D03*
X73600D02*
D03*
X48200D02*
D03*
X149800D02*
D03*
G54D86*
X249000Y264000D02*
D03*
Y272000D02*
D03*
X177000Y164000D02*
D03*
X229000Y284000D02*
D03*
X241450Y297450D02*
D03*
X237000Y106000D02*
D03*
X108000Y62000D02*
D03*
X84000D02*
D03*
Y96000D02*
D03*
X108000D02*
D03*
X57500Y98500D02*
D03*
X55000Y58000D02*
D03*
X163000Y55000D02*
D03*
X198500Y109500D02*
D03*
X192500Y85500D02*
D03*
X183000Y73000D02*
D03*
X147500Y68500D02*
D03*
X282000Y210000D02*
D03*
X263000Y134000D02*
D03*
X244000Y156000D02*
D03*
X45450Y148450D02*
D03*
X296000Y200000D02*
D03*
X130000Y133000D02*
D03*
X452200Y246800D02*
D03*
X415000Y85000D02*
D03*
X288000Y280000D02*
D03*
X309000Y465000D02*
D03*
X515732Y316268D02*
D03*
X227000Y175000D02*
D03*
X237000Y254000D02*
D03*
X228000Y219000D02*
D03*
X263000Y526000D02*
D03*
X187000Y536000D02*
D03*
X144000Y484000D02*
D03*
X85000Y309000D02*
D03*
X58000Y263000D02*
D03*
X238000Y467000D02*
D03*
G54D87*
X202000Y84248D02*
D03*
Y78000D02*
D03*
G54D88*
X69288Y250600D02*
D03*
Y301400D02*
D03*
X482712Y250600D02*
D03*
Y301400D02*
D03*
G54D89*
X36268Y250600D02*
D03*
X515732Y301400D02*
D03*
G54D90*
X36268D02*
D03*
X515732Y250600D02*
D03*
G54D91*
X250600Y482712D02*
D03*
X301400D02*
D03*
X250600Y69288D02*
D03*
X301400D02*
D03*
G54D92*
X250600Y515732D02*
D03*
X301400Y36268D02*
D03*
G54D93*
Y515732D02*
D03*
X250600Y36268D02*
D03*
G54D94*
X250424Y267925D02*
D03*
G54D95*
X520000Y30000D02*
D03*
X30000Y520000D02*
D03*
M02*
