G04*
G04 #@! TF.GenerationSoftware,Altium Limited,Altium Designer,18.1.6 (161)*
G04*
G04 Layer_Color=65535*
%FSLAX44Y44*%
%MOMM*%
G71*
G01*
G75*
%ADD10C,0.2540*%
%ADD11C,0.2500*%
%ADD12C,0.2000*%
%ADD13C,0.5000*%
%ADD14C,0.1000*%
%ADD15C,0.0635*%
%ADD16C,0.1200*%
%ADD17C,0.1200*%
%ADD18C,0.1270*%
%ADD19C,0.1500*%
%ADD20C,0.1500*%
%ADD21C,0.1700*%
%ADD22C,0.1300*%
G36*
X242420Y179030D02*
X248030D01*
X242420Y173420D01*
Y179030D01*
D02*
G37*
G54D10*
X167314Y371596D02*
G03*
X167314Y371596I-62230J0D01*
G01*
G54D11*
X264750Y428500D02*
G03*
X264750Y428500I-1250J0D01*
G01*
X166000Y63750D02*
G03*
X166000Y63750I-1250J0D01*
G01*
X293459Y84500D02*
G03*
X293459Y84500I-1250J0D01*
G01*
G54D12*
X232503Y549452D02*
G03*
X232503Y549452I-1000J0D01*
G01*
X315300Y21470D02*
Y25750D01*
Y-9750D02*
Y380D01*
X236700Y-9750D02*
X315300D01*
X236700Y21470D02*
Y25750D01*
Y-9750D02*
Y380D01*
X371600Y19300D02*
X440400D01*
Y50000D01*
X371600D02*
X440400D01*
X371600Y19300D02*
Y50000D01*
X246250Y236500D02*
X254250D01*
Y233000D02*
Y236500D01*
X246250Y214500D02*
X254250D01*
Y218000D01*
X246500Y205700D02*
X253750D01*
Y203200D02*
Y205700D01*
X246500Y185700D02*
X253750D01*
Y188200D01*
X304700Y547750D02*
X548200D01*
Y99250D02*
Y547750D01*
X304700Y99250D02*
Y547750D01*
Y99250D02*
X548200D01*
X304700Y149250D02*
X348200D01*
Y274250D01*
X304700D02*
X348200D01*
X498200Y159250D02*
X533200D01*
X498200D02*
Y249250D01*
X548200D01*
X533200Y159250D02*
X548200D01*
X498200Y344250D02*
Y499250D01*
X548200D01*
X498200Y344250D02*
X548200D01*
X296679Y499000D02*
X298679D01*
X296679Y397500D02*
X298679D01*
X246678Y499000D02*
X258679D01*
X246678Y397500D02*
X258679D01*
X246678D02*
Y421500D01*
Y474999D02*
Y498999D01*
X298679Y397500D02*
Y498999D01*
X197527Y192989D02*
Y452989D01*
X527D02*
X197527D01*
X527Y192989D02*
Y452989D01*
Y192989D02*
X197527D01*
X257000Y256000D02*
X259500D01*
X238500D02*
X241000D01*
X238500Y280000D02*
X241000D01*
X257000D02*
X259500D01*
X288750Y328750D02*
Y363250D01*
X251750Y307750D02*
X258750D01*
X251750D02*
Y331750D01*
Y384250D02*
X258750D01*
X251750Y360250D02*
Y384250D01*
X167500Y83500D02*
X198500D01*
X167500Y73500D02*
X198500D01*
Y83500D01*
X167500Y73500D02*
Y83500D01*
X289209Y71000D02*
Y74000D01*
X258209Y71000D02*
Y74000D01*
X289209D01*
X258209Y71000D02*
X289209D01*
G54D13*
X136700Y107500D02*
G03*
X136700Y107500I-1200J0D01*
G01*
G54D14*
X264000Y256000D02*
G03*
X264000Y256000I-500J0D01*
G01*
G54D15*
X82859Y419221D02*
X94289D01*
X79684Y418586D02*
X81589D01*
X82859D02*
X94289D01*
X95559D02*
X97464D01*
X77779Y417951D02*
X79049D01*
X79684D02*
X97464D01*
X98099D02*
X100004D01*
X75874Y417316D02*
X76509D01*
X77144D02*
X100004D01*
X100639D02*
X101909D01*
X73969Y416681D02*
X74604D01*
X75239D02*
X103179D01*
X72064Y416046D02*
X103179D01*
X103814D02*
X104449D01*
X71429Y415411D02*
X104449D01*
X70794Y414776D02*
X105084D01*
X71429Y414141D02*
X106354D01*
X70794Y413506D02*
X105719D01*
X70159Y412871D02*
X106354D01*
X70159Y412236D02*
X106989D01*
X71429Y411601D02*
X83494D01*
X84764D02*
X93654D01*
X94289D02*
X106989D01*
X70794Y410966D02*
X80954D01*
X81589D02*
X82859D01*
X94289D02*
X106354D01*
X72064Y410331D02*
X78414D01*
X79049D02*
X80954D01*
X97464D02*
X98734D01*
X99369D02*
X105084D01*
X72699Y409696D02*
X78414D01*
X99369D02*
X100004D01*
X100639D02*
X104449D01*
X105084D02*
X105719D01*
X72699Y409061D02*
X73969D01*
X75874D02*
X77144D01*
X100639D02*
X101909D01*
X103814D02*
X104449D01*
X86034Y403346D02*
X89844D01*
X123499D02*
X134294D01*
X84129Y402711D02*
X84764D01*
X85399D02*
X91114D01*
X120324D02*
X122229D01*
X123499D02*
X134929D01*
X136199D02*
X138104D01*
X83494Y402076D02*
X91114D01*
X91749D02*
X92384D01*
X118419D02*
X119689D01*
X120324D02*
X138104D01*
X138739D02*
X140009D01*
X83494Y401441D02*
X93019D01*
X115879D02*
X117149D01*
X117784D02*
X140644D01*
X141279D02*
X141914D01*
X82859Y400806D02*
X93654D01*
X114609D02*
X115244D01*
X115879D02*
X142549D01*
X143184D02*
X143819D01*
X82224Y400171D02*
X94289D01*
X113974D02*
X143819D01*
X144454D02*
X145724D01*
X80954Y399536D02*
X94924D01*
X114609D02*
X146359D01*
X80319Y398901D02*
X94924D01*
X113339D02*
X147629D01*
X80319Y398266D02*
X95559D01*
X113339D02*
X148264D01*
X79684Y397631D02*
X95559D01*
X113339D02*
X148899D01*
X79684Y396996D02*
X95559D01*
X113339D02*
X149534D01*
X80319Y396361D02*
X96194D01*
X113339D02*
X149534D01*
X80319Y395726D02*
X96194D01*
X113974D02*
X149534D01*
X79049Y395091D02*
X96194D01*
X115244D02*
X121594D01*
X122229D02*
X149534D01*
X79049Y394456D02*
X95559D01*
X115244D02*
X121594D01*
X122229D02*
X137469D01*
X138104D02*
X139374D01*
X140009D02*
X149534D01*
X79049Y393821D02*
X95559D01*
X116514D02*
X119054D01*
X122864D02*
X136834D01*
X140009D02*
X148264D01*
X79049Y393186D02*
X96194D01*
X121594D02*
X137469D01*
X141279D02*
X148899D01*
X79049Y392551D02*
X95559D01*
X121594D02*
X138104D01*
X142549D02*
X146994D01*
X147629D02*
X148264D01*
X79049Y391916D02*
X95559D01*
X121594D02*
X138104D01*
X143819D02*
X146994D01*
X79049Y391281D02*
X95559D01*
X122229D02*
X137469D01*
X79049Y390646D02*
X96194D01*
X120959D02*
X138739D01*
X80319Y390011D02*
X96194D01*
X120959D02*
X138739D01*
X79684Y389376D02*
X96194D01*
X120959D02*
X138739D01*
X80319Y388741D02*
X95559D01*
X120959D02*
X138739D01*
X80954Y388106D02*
X95559D01*
X121594D02*
X138104D01*
X80319Y387471D02*
X94289D01*
X120959D02*
X138739D01*
X80954Y386836D02*
X94924D01*
X122229D02*
X137469D01*
X82224Y386201D02*
X94289D01*
X121594D02*
X138104D01*
X81589Y385566D02*
X93019D01*
X121594D02*
X138104D01*
X82224Y384931D02*
X92384D01*
X121594D02*
X138104D01*
X82859Y384296D02*
X83494D01*
X84129D02*
X92384D01*
X122229D02*
X137469D01*
X84129Y383661D02*
X90479D01*
X91114D02*
X91749D01*
X122864D02*
X136834D01*
X85399Y383026D02*
X86669D01*
X89209D02*
X90479D01*
X122864D02*
X136834D01*
X124134Y382391D02*
X135564D01*
X123499Y381756D02*
X136199D01*
X124134Y381121D02*
X135564D01*
X124769Y380486D02*
X125404D01*
X126039D02*
X133659D01*
X134294D02*
X134929D01*
X126039Y379851D02*
X133659D01*
X126674Y379216D02*
X127944D01*
X128579D02*
X131119D01*
X131754D02*
X133024D01*
X128579Y378581D02*
X131119D01*
X76509Y363976D02*
X78414D01*
X97464D02*
X103814D01*
X73969Y363341D02*
X80319D01*
X80954D02*
X81589D01*
X93654D02*
X95559D01*
X97464D02*
X103814D01*
X105084D02*
X107624D01*
X73334Y362706D02*
X81589D01*
X93654D02*
X108259D01*
X108894D02*
X110799D01*
X73969Y362071D02*
X82224D01*
X93019D02*
X110799D01*
X111434D02*
X112704D01*
X73334Y361436D02*
X82859D01*
X91749D02*
X114609D01*
X73334Y360801D02*
X83494D01*
X91749D02*
X114609D01*
X115244D02*
X116514D01*
X73334Y360166D02*
X84129D01*
X91114D02*
X117784D01*
X73334Y359531D02*
X84764D01*
X91114D02*
X119054D01*
X73334Y358896D02*
X86034D01*
X91114D02*
X120324D01*
X72699Y358261D02*
X85399D01*
X92384D02*
X120959D01*
X73334Y357626D02*
X86669D01*
X91749D02*
X120959D01*
X121594D02*
X122229D01*
X73969Y356991D02*
X86034D01*
X92384D02*
X122864D01*
X73969Y356356D02*
X87304D01*
X93019D02*
X93654D01*
X94289D02*
X100004D01*
X102544D02*
X122864D01*
X123499D02*
X124134D01*
X73969Y355721D02*
X86669D01*
X94289D02*
X99369D01*
X103179D02*
X106989D01*
X107624D02*
X124769D01*
X73969Y355086D02*
X87304D01*
X107624D02*
X109529D01*
X110164D02*
X125404D01*
X74604Y354451D02*
X87939D01*
X110164D02*
X111434D01*
X112069D02*
X126039D01*
X74604Y353816D02*
X87304D01*
X112069D02*
X125404D01*
X74604Y353181D02*
X87304D01*
X113974D02*
X114609D01*
X115244D02*
X126674D01*
X73969Y352546D02*
X87939D01*
X115244D02*
X115879D01*
X116514D02*
X126674D01*
X74604Y351911D02*
X88574D01*
X116514D02*
X126674D01*
X74604Y351276D02*
X87939D01*
X117149D02*
X117784D01*
X118419D02*
X126674D01*
X74604Y350641D02*
X87939D01*
X118419D02*
X125404D01*
X74604Y350006D02*
X87939D01*
X119054D02*
X126039D01*
X74604Y349371D02*
X88574D01*
X119689D02*
X120324D01*
X120959D02*
X125404D01*
X73969Y348736D02*
X88574D01*
X120959D02*
X122229D01*
X123499D02*
X124134D01*
X74604Y348101D02*
X88574D01*
X74604Y347466D02*
X88574D01*
X73969Y346831D02*
X88574D01*
X73334Y346196D02*
X88574D01*
X73969Y345561D02*
X88574D01*
X73334Y344926D02*
X88574D01*
X73334Y344291D02*
X88574D01*
X130484D02*
X131119D01*
X72699Y343656D02*
X87939D01*
X123499D02*
X124134D01*
X125404D02*
X131119D01*
X131754D02*
X132389D01*
X72699Y343021D02*
X87939D01*
X120959D02*
X121594D01*
X122864D02*
X132389D01*
X71429Y342386D02*
X88574D01*
X118419D02*
X119054D01*
X120324D02*
X133659D01*
X70794Y341751D02*
X87939D01*
X117149D02*
X133024D01*
X70159Y341116D02*
X87304D01*
X112704D02*
X113339D01*
X114609D02*
X133659D01*
X69524Y340481D02*
X87939D01*
X110164D02*
X110799D01*
X112069D02*
X133659D01*
X68889Y339846D02*
X86669D01*
X108894D02*
X134294D01*
X68889Y339211D02*
X86669D01*
X104449D02*
X105084D01*
X106354D02*
X134294D01*
X68254Y338576D02*
X86034D01*
X101909D02*
X102544D01*
X103814D02*
X134294D01*
X67619Y337941D02*
X86669D01*
X101274D02*
X134294D01*
X66984Y337306D02*
X85399D01*
X96194D02*
X96829D01*
X98099D02*
X134294D01*
X66349Y336671D02*
X84764D01*
X93654D02*
X94289D01*
X95559D02*
X133659D01*
X65714Y336036D02*
X84129D01*
X91114D02*
X91749D01*
X93019D02*
X134294D01*
X65079Y335401D02*
X84129D01*
X89844D02*
X133024D01*
X64444Y334766D02*
X84129D01*
X84764D02*
X86034D01*
X87304D02*
X132389D01*
X63174Y334131D02*
X131754D01*
X62539Y333496D02*
X130484D01*
X131119D02*
X131754D01*
X63174Y332861D02*
X127944D01*
X129214D02*
X129849D01*
X62539Y332226D02*
X125404D01*
X126674D02*
X127309D01*
X61904Y331591D02*
X122864D01*
X60634Y330956D02*
X120324D01*
X61269Y330321D02*
X117149D01*
X118419D02*
X119054D01*
X59999Y329686D02*
X114609D01*
X115879D02*
X116514D01*
X60634Y329051D02*
X112069D01*
X113339D02*
X113974D01*
X58729Y328416D02*
X59364D01*
X59999D02*
X109529D01*
X110799D02*
X111434D01*
X59364Y327781D02*
X109529D01*
X59364Y327146D02*
X108894D01*
X58729Y326511D02*
X109529D01*
X58729Y325876D02*
X110164D01*
X58729Y325241D02*
X110799D01*
X58729Y324606D02*
X111434D01*
X58094Y323971D02*
X111434D01*
X58094Y323336D02*
X111434D01*
X58094Y322701D02*
X111434D01*
X58094Y322066D02*
X111434D01*
X58094Y321431D02*
X111434D01*
X58094Y320796D02*
X112069D01*
X58094Y320161D02*
X111434D01*
X58094Y319526D02*
X110799D01*
X58094Y318891D02*
X111434D01*
X58094Y318256D02*
X110164D01*
X58094Y317621D02*
X109529D01*
X58094Y316986D02*
X108894D01*
X58094Y316351D02*
X108894D01*
X58094Y315716D02*
X108894D01*
X58094Y315081D02*
X109529D01*
X58729Y314446D02*
X110164D01*
X58729Y313811D02*
X110799D01*
X58729Y313176D02*
X110799D01*
X58729Y312541D02*
X110799D01*
X58729Y311906D02*
X110799D01*
X59364Y311271D02*
X110799D01*
X59364Y310636D02*
X110799D01*
X59364Y310001D02*
X110799D01*
X59999Y309366D02*
X111434D01*
X59999Y308731D02*
X110799D01*
X60634Y307461D02*
X110164D01*
X60634Y306826D02*
X109529D01*
X61269Y306191D02*
X108894D01*
X61904Y305556D02*
X107624D01*
X61904Y304921D02*
X107624D01*
X62539Y304286D02*
X108259D01*
X62539Y303651D02*
X108894D01*
X63174Y303016D02*
X108894D01*
X63809Y302381D02*
X108894D01*
X64444Y301746D02*
X108894D01*
X64444Y301111D02*
X108894D01*
X65079Y300476D02*
X108894D01*
X65714Y299841D02*
X108894D01*
X66349Y299206D02*
X108259D01*
X66984Y298571D02*
X108259D01*
X67619Y297936D02*
X107624D01*
X68889Y297301D02*
X106989D01*
X69524Y296666D02*
X106354D01*
X70794Y296031D02*
X105084D01*
X71429Y295396D02*
X103814D01*
X72699Y294761D02*
X101909D01*
X73969Y294126D02*
X98734D01*
X75239Y293491D02*
X95559D01*
X77144Y292856D02*
X93019D01*
X79684Y292221D02*
X89844D01*
X60634Y308096D02*
X110164D01*
G54D16*
X218000Y476200D02*
X224000D01*
X218000Y457800D02*
X224000D01*
X179550Y54000D02*
X185550D01*
X179550Y41000D02*
X185550D01*
X214200Y448500D02*
X222800D01*
X214200Y435500D02*
X222800D01*
X307500Y68198D02*
Y76798D01*
X294500Y68198D02*
Y76798D01*
X180000Y523500D02*
Y532100D01*
X167000Y523500D02*
Y532100D01*
X152000Y523500D02*
Y532100D01*
X165000Y523500D02*
Y532100D01*
X213500Y221200D02*
Y229800D01*
X226500Y221200D02*
Y229800D01*
X266500Y221200D02*
Y229800D01*
X279500Y221200D02*
Y229800D01*
X226500Y191400D02*
Y200000D01*
X213500Y191400D02*
Y200000D01*
X266500Y191400D02*
Y200000D01*
X279500Y191400D02*
Y200000D01*
X178900Y116000D02*
X187500D01*
X178900Y103000D02*
X187500D01*
X214200Y436000D02*
X222800D01*
X214200Y423000D02*
X222800D01*
X38800Y417000D02*
Y423000D01*
X57200Y417000D02*
Y423000D01*
X270500Y107928D02*
X276500D01*
X270500Y94928D02*
X276500D01*
X242000Y70500D02*
Y76500D01*
X255000Y70500D02*
Y76500D01*
X50000Y144500D02*
X56000D01*
X50000Y131500D02*
X56000D01*
X266500Y265000D02*
Y271000D01*
X279500Y265000D02*
Y271000D01*
X226500Y162000D02*
Y168000D01*
X213500Y162000D02*
Y168000D01*
X279500Y163000D02*
Y169000D01*
X266500Y163000D02*
Y169000D01*
X246000Y296500D02*
X252000D01*
X246000Y283500D02*
X252000D01*
X264500Y530550D02*
Y536550D01*
X277500Y530550D02*
Y536550D01*
X187925Y470178D02*
X186343Y471761D01*
X183177D01*
X181594Y470178D01*
Y463847D01*
X183177Y462264D01*
X186343D01*
X187925Y463847D01*
X191091D02*
X192674Y462264D01*
X195839D01*
X197422Y463847D01*
Y470178D01*
X195839Y471761D01*
X192674D01*
X191091Y470178D01*
Y468595D01*
X192674Y467012D01*
X197422D01*
X206331Y50914D02*
X204748Y52497D01*
X201583D01*
X200000Y50914D01*
Y44583D01*
X201583Y43000D01*
X204748D01*
X206331Y44583D01*
X209497Y43000D02*
X212663D01*
X211080D01*
Y52497D01*
X209497Y50914D01*
X217411Y43000D02*
X220577D01*
X218994D01*
Y52497D01*
X217411Y50914D01*
X226331Y12247D02*
X223166D01*
X224748D01*
Y4333D01*
X223166Y2750D01*
X221583D01*
X220000Y4333D01*
X229497Y2750D02*
X232663D01*
X231080D01*
Y12247D01*
X229497Y10664D01*
X155331Y241583D02*
Y247914D01*
X153749Y249497D01*
X150583D01*
X149000Y247914D01*
Y241583D01*
X150583Y240000D01*
X153749D01*
X152166Y243166D02*
X155331Y240000D01*
X153749D02*
X155331Y241583D01*
X158497Y240000D02*
X161663D01*
X160080D01*
Y249497D01*
X158497Y247914D01*
X155331Y221583D02*
Y227914D01*
X153749Y229497D01*
X150583D01*
X149000Y227914D01*
Y221583D01*
X150583Y220000D01*
X153749D01*
X152166Y223166D02*
X155331Y220000D01*
X153749D02*
X155331Y221583D01*
X164828Y220000D02*
X158497D01*
X164828Y226331D01*
Y227914D01*
X163245Y229497D01*
X160080D01*
X158497Y227914D01*
X169466Y437372D02*
Y446869D01*
X174214D01*
X175797Y445286D01*
Y442121D01*
X174214Y440538D01*
X169466D01*
X172632D02*
X175797Y437372D01*
X178963D02*
X182129D01*
X180546D01*
Y446869D01*
X178963Y445286D01*
X193208Y437372D02*
X186877D01*
X193208Y443703D01*
Y445286D01*
X191625Y446869D01*
X188460D01*
X186877Y445286D01*
X317331Y541414D02*
X315749Y542997D01*
X312583D01*
X311000Y541414D01*
Y539831D01*
X312583Y538248D01*
X315749D01*
X317331Y536666D01*
Y535083D01*
X315749Y533500D01*
X312583D01*
X311000Y535083D01*
X320497Y533500D02*
X323663D01*
X322080D01*
Y542997D01*
X320497Y541414D01*
X213331Y533914D02*
X211749Y535497D01*
X208583D01*
X207000Y533914D01*
Y532331D01*
X208583Y530748D01*
X211749D01*
X213331Y529166D01*
Y527583D01*
X211749Y526000D01*
X208583D01*
X207000Y527583D01*
X222828Y526000D02*
X216497D01*
X222828Y532331D01*
Y533914D01*
X221245Y535497D01*
X218080D01*
X216497Y533914D01*
X11331Y446914D02*
X9748Y448497D01*
X6583D01*
X5000Y446914D01*
Y445331D01*
X6583Y443749D01*
X9748D01*
X11331Y442166D01*
Y440583D01*
X9748Y439000D01*
X6583D01*
X5000Y440583D01*
X14497Y446914D02*
X16080Y448497D01*
X19245D01*
X20828Y446914D01*
Y445331D01*
X19245Y443749D01*
X17663D01*
X19245D01*
X20828Y442166D01*
Y440583D01*
X19245Y439000D01*
X16080D01*
X14497Y440583D01*
X7000Y41497D02*
Y33583D01*
X8583Y32000D01*
X11748D01*
X13331Y33583D01*
Y41497D01*
X16497Y32000D02*
X19663D01*
X18080D01*
Y41497D01*
X16497Y39914D01*
X267000Y294497D02*
Y286583D01*
X268583Y285000D01*
X271749D01*
X273331Y286583D01*
Y294497D01*
X276497Y292914D02*
X278080Y294497D01*
X281245D01*
X282828Y292914D01*
Y291331D01*
X281245Y289748D01*
X279663D01*
X281245D01*
X282828Y288166D01*
Y286583D01*
X281245Y285000D01*
X278080D01*
X276497Y286583D01*
X150000Y209497D02*
Y201583D01*
X151583Y200000D01*
X154748D01*
X156331Y201583D01*
Y209497D01*
X164245Y200000D02*
Y209497D01*
X159497Y204748D01*
X165828D01*
X172768Y424672D02*
Y434169D01*
X177516D01*
X179099Y432586D01*
Y429421D01*
X177516Y427838D01*
X172768D01*
X175934D02*
X179099Y424672D01*
X182265D02*
X185431D01*
X183848D01*
Y434169D01*
X182265Y432586D01*
X190179Y424672D02*
X193345D01*
X191762D01*
Y434169D01*
X190179Y432586D01*
X201000Y105000D02*
Y114497D01*
X205749D01*
X207331Y112914D01*
Y109748D01*
X205749Y108166D01*
X201000D01*
X204166D02*
X207331Y105000D01*
X210497D02*
X213663D01*
X212080D01*
Y114497D01*
X210497Y112914D01*
X218411D02*
X219994Y114497D01*
X223160D01*
X224742Y112914D01*
Y106583D01*
X223160Y105000D01*
X219994D01*
X218411Y106583D01*
Y112914D01*
X174000Y220000D02*
Y229497D01*
X178748D01*
X180331Y227914D01*
Y224748D01*
X178748Y223166D01*
X174000D01*
X177166D02*
X180331Y220000D01*
X183497Y229497D02*
X189828D01*
Y227914D01*
X183497Y221583D01*
Y220000D01*
X124000D02*
Y229497D01*
X128749D01*
X130331Y227914D01*
Y224748D01*
X128749Y223166D01*
X124000D01*
X127166D02*
X130331Y220000D01*
X139828Y229497D02*
X136663Y227914D01*
X133497Y224748D01*
Y221583D01*
X135080Y220000D01*
X138245D01*
X139828Y221583D01*
Y223166D01*
X138245Y224748D01*
X133497D01*
X173000Y240000D02*
Y249497D01*
X177749D01*
X179331Y247914D01*
Y244748D01*
X177749Y243166D01*
X173000D01*
X176166D02*
X179331Y240000D01*
X188828Y249497D02*
X182497D01*
Y244748D01*
X185663Y246331D01*
X187245D01*
X188828Y244748D01*
Y241583D01*
X187245Y240000D01*
X184080D01*
X182497Y241583D01*
X124000Y240000D02*
Y249497D01*
X128749D01*
X130331Y247914D01*
Y244748D01*
X128749Y243166D01*
X124000D01*
X127166D02*
X130331Y240000D01*
X138245D02*
Y249497D01*
X133497Y244748D01*
X139828D01*
X153654Y506460D02*
X163151D01*
Y501712D01*
X161568Y500129D01*
X158403D01*
X156820Y501712D01*
Y506460D01*
Y503294D02*
X153654Y500129D01*
X161568Y496963D02*
X163151Y495380D01*
Y492215D01*
X161568Y490632D01*
X159985D01*
X158403Y492215D01*
Y493797D01*
Y492215D01*
X156820Y490632D01*
X155237D01*
X153654Y492215D01*
Y495380D01*
X155237Y496963D01*
X168640Y506460D02*
X178137D01*
Y501712D01*
X176554Y500129D01*
X173389D01*
X171806Y501712D01*
Y506460D01*
Y503294D02*
X168640Y500129D01*
Y490632D02*
Y496963D01*
X174971Y490632D01*
X176554D01*
X178137Y492215D01*
Y495380D01*
X176554Y496963D01*
X295000Y47000D02*
Y56497D01*
X299748D01*
X301331Y54914D01*
Y51748D01*
X299748Y50166D01*
X295000D01*
X298166D02*
X301331Y47000D01*
X304497D02*
X307663D01*
X306080D01*
Y56497D01*
X304497Y54914D01*
X273331Y514914D02*
X271749Y516497D01*
X268583D01*
X267000Y514914D01*
Y508583D01*
X268583Y507000D01*
X271749D01*
X273331Y508583D01*
X276497Y507000D02*
X279663D01*
X278080D01*
Y516497D01*
X276497Y514914D01*
X284411D02*
X285994Y516497D01*
X289160D01*
X290742Y514914D01*
Y508583D01*
X289160Y507000D01*
X285994D01*
X284411Y508583D01*
Y514914D01*
X46447Y394740D02*
X44865Y396323D01*
X41699D01*
X40116Y394740D01*
Y388409D01*
X41699Y386826D01*
X44865D01*
X46447Y388409D01*
X49613Y394740D02*
X51196Y396323D01*
X54361D01*
X55944Y394740D01*
Y393157D01*
X54361Y391575D01*
X55944Y389992D01*
Y388409D01*
X54361Y386826D01*
X51196D01*
X49613Y388409D01*
Y389992D01*
X51196Y391575D01*
X49613Y393157D01*
Y394740D01*
X51196Y391575D02*
X54361D01*
X222331Y293914D02*
X220749Y295497D01*
X217583D01*
X216000Y293914D01*
Y287583D01*
X217583Y286000D01*
X220749D01*
X222331Y287583D01*
X225497Y295497D02*
X231828D01*
Y293914D01*
X225497Y287583D01*
Y286000D01*
X180331Y207914D02*
X178748Y209497D01*
X175583D01*
X174000Y207914D01*
Y201583D01*
X175583Y200000D01*
X178748D01*
X180331Y201583D01*
X189828Y209497D02*
X186663Y207914D01*
X183497Y204748D01*
Y201583D01*
X185080Y200000D01*
X188245D01*
X189828Y201583D01*
Y203166D01*
X188245Y204748D01*
X183497D01*
X130331Y207914D02*
X128749Y209497D01*
X125583D01*
X124000Y207914D01*
Y201583D01*
X125583Y200000D01*
X128749D01*
X130331Y201583D01*
X139828Y209497D02*
X133497D01*
Y204748D01*
X136663Y206331D01*
X138245D01*
X139828Y204748D01*
Y201583D01*
X138245Y200000D01*
X135080D01*
X133497Y201583D01*
X289331Y270914D02*
X287749Y272497D01*
X284583D01*
X283000Y270914D01*
Y264583D01*
X284583Y263000D01*
X287749D01*
X289331Y264583D01*
X297245Y263000D02*
Y272497D01*
X292497Y267749D01*
X298828D01*
X76781Y140914D02*
X75198Y142497D01*
X72033D01*
X70450Y140914D01*
Y134583D01*
X72033Y133000D01*
X75198D01*
X76781Y134583D01*
X79947Y140914D02*
X81530Y142497D01*
X84695D01*
X86278Y140914D01*
Y139331D01*
X84695Y137748D01*
X83113D01*
X84695D01*
X86278Y136166D01*
Y134583D01*
X84695Y133000D01*
X81530D01*
X79947Y134583D01*
X246331Y97914D02*
X244748Y99497D01*
X241583D01*
X240000Y97914D01*
Y91583D01*
X241583Y90000D01*
X244748D01*
X246331Y91583D01*
X255828Y90000D02*
X249497D01*
X255828Y96331D01*
Y97914D01*
X254245Y99497D01*
X251080D01*
X249497Y97914D01*
X295331Y104914D02*
X293748Y106497D01*
X290583D01*
X289000Y104914D01*
Y98583D01*
X290583Y97000D01*
X293748D01*
X295331Y98583D01*
X298497Y97000D02*
X301663D01*
X300080D01*
Y106497D01*
X298497Y104914D01*
G54D17*
X208000Y256000D02*
X232000D01*
X208000D02*
Y280000D01*
X232000D01*
Y256000D02*
Y280000D01*
G54D18*
X227203Y515702D02*
Y546302D01*
X259803Y515702D02*
Y546302D01*
X242420Y152030D02*
X242420Y179030D01*
X242420Y152030D02*
X252580D01*
X252580Y179030D02*
X252580Y152030D01*
X242420Y179030D02*
X252580D01*
G54D19*
X3500Y28500D02*
Y128500D01*
Y28500D02*
X143500D01*
X3500Y128500D02*
X143500D01*
Y28500D02*
Y128500D01*
X37500Y28500D02*
Y128500D01*
G54D20*
X143500D01*
X37500Y28500D02*
X143500D01*
G54D21*
X1700Y-48300D02*
Y-36304D01*
X5699Y-40303D01*
X9697Y-36304D01*
Y-48300D01*
X19694D02*
X15695D01*
X13696Y-46301D01*
Y-42302D01*
X15695Y-40303D01*
X19694D01*
X21693Y-42302D01*
Y-44301D01*
X13696D01*
X33690Y-40303D02*
X27692D01*
X25692Y-42302D01*
Y-46301D01*
X27692Y-48300D01*
X33690D01*
X37688Y-36304D02*
Y-48300D01*
Y-42302D01*
X39688Y-40303D01*
X43686D01*
X45686Y-42302D01*
Y-48300D01*
X61680Y-36304D02*
X69678D01*
Y-38303D01*
X61680Y-46301D01*
Y-48300D01*
X85673Y-40303D02*
X87672D01*
Y-42302D01*
X85673D01*
Y-40303D01*
Y-46301D02*
X87672D01*
Y-48300D01*
X85673D01*
Y-46301D01*
X107666Y-48300D02*
Y-36304D01*
X113664D01*
X115663Y-38303D01*
Y-42302D01*
X113664Y-44301D01*
X107666D01*
X127659Y-38303D02*
X125660Y-36304D01*
X121661D01*
X119662Y-38303D01*
Y-46301D01*
X121661Y-48300D01*
X125660D01*
X127659Y-46301D01*
X131658Y-36304D02*
Y-48300D01*
X137656D01*
X139655Y-46301D01*
Y-44301D01*
X137656Y-42302D01*
X131658D01*
X137656D01*
X139655Y-40303D01*
Y-38303D01*
X137656Y-36304D01*
X131658D01*
X163648Y-38303D02*
X161648Y-36304D01*
X157649D01*
X155650Y-38303D01*
Y-46301D01*
X157649Y-48300D01*
X161648D01*
X163648Y-46301D01*
X167646Y-40303D02*
Y-46301D01*
X169646Y-48300D01*
X175644D01*
Y-40303D01*
X181642Y-38303D02*
Y-40303D01*
X179642D01*
X183641D01*
X181642D01*
Y-46301D01*
X183641Y-48300D01*
X191639D02*
X195637D01*
X197637Y-46301D01*
Y-42302D01*
X195637Y-40303D01*
X191639D01*
X189639Y-42302D01*
Y-46301D01*
X191639Y-48300D01*
X201635Y-40303D02*
Y-46301D01*
X203635Y-48300D01*
X209633D01*
Y-40303D01*
X215631Y-38303D02*
Y-40303D01*
X213631D01*
X217630D01*
X215631D01*
Y-46301D01*
X217630Y-48300D01*
X487700Y138652D02*
Y150648D01*
X495697Y138652D01*
Y150648D01*
X501695Y138652D02*
X505694D01*
X507693Y140651D01*
Y144650D01*
X505694Y146649D01*
X501695D01*
X499696Y144650D01*
Y140651D01*
X501695Y138652D01*
X511692Y146649D02*
Y140651D01*
X513692Y138652D01*
X515691Y140651D01*
X517690Y138652D01*
X519690Y140651D01*
Y146649D01*
X489699Y124175D02*
X493698D01*
X495697Y126175D01*
Y130173D01*
X493698Y132173D01*
X489699D01*
X487700Y130173D01*
Y126175D01*
X489699Y124175D01*
X499696Y132173D02*
Y124175D01*
Y128174D01*
X501695Y130173D01*
X503695Y132173D01*
X505694D01*
X487700Y105700D02*
Y117696D01*
X495697Y105700D01*
Y117696D01*
X505694Y105700D02*
X501695D01*
X499696Y107699D01*
Y111698D01*
X501695Y113697D01*
X505694D01*
X507693Y111698D01*
Y109699D01*
X499696D01*
X511692Y113697D02*
X515691Y105700D01*
X519690Y113697D01*
X529686Y105700D02*
X525688D01*
X523688Y107699D01*
Y111698D01*
X525688Y113697D01*
X529686D01*
X531686Y111698D01*
Y109699D01*
X523688D01*
X535684Y113697D02*
Y105700D01*
Y109699D01*
X537684Y111698D01*
X539683Y113697D01*
X541683D01*
X319871Y199913D02*
X317205Y197247D01*
Y191916D01*
X319871Y189250D01*
X330534D01*
X333200Y191916D01*
Y197247D01*
X330534Y199913D01*
X317205Y213242D02*
Y207911D01*
X319871Y205245D01*
X330534D01*
X333200Y207911D01*
Y213242D01*
X330534Y215908D01*
X319871D01*
X317205Y213242D01*
X333200Y221240D02*
X317205D01*
X333200Y231903D01*
X317205D01*
X517205Y192247D02*
Y186916D01*
X519871Y184250D01*
X530534D01*
X533200Y186916D01*
Y192247D01*
X530534Y194913D01*
X519871D01*
X517205Y192247D01*
Y200245D02*
X530534D01*
X533200Y202911D01*
Y208242D01*
X530534Y210908D01*
X517205D01*
Y216240D02*
Y226903D01*
Y221571D01*
X533200D01*
Y379250D02*
X522537D01*
X517205Y384582D01*
X522537Y389913D01*
X533200D01*
X525203D01*
Y379250D01*
X533200Y395245D02*
Y400576D01*
Y397911D01*
X522537D01*
Y395245D01*
Y408574D02*
X533200D01*
X527868D01*
X525203Y411240D01*
X522537Y413905D01*
Y416571D01*
X517205Y440564D02*
Y445895D01*
Y443229D01*
X533200D01*
Y440564D01*
Y445895D01*
Y453893D02*
X517205D01*
X533200Y464556D01*
X517205D01*
X378000Y67996D02*
Y56000D01*
X383998D01*
X385997Y57999D01*
Y65997D01*
X383998Y67996D01*
X378000D01*
X397994D02*
X389996D01*
Y56000D01*
X397994D01*
X389996Y61998D02*
X393995D01*
X401992Y67996D02*
Y56000D01*
X407990D01*
X409990Y57999D01*
Y59999D01*
X407990Y61998D01*
X401992D01*
X407990D01*
X409990Y63997D01*
Y65997D01*
X407990Y67996D01*
X401992D01*
X413988D02*
Y57999D01*
X415988Y56000D01*
X419986D01*
X421986Y57999D01*
Y67996D01*
X433982Y65997D02*
X431982Y67996D01*
X427984D01*
X425984Y65997D01*
Y57999D01*
X427984Y56000D01*
X431982D01*
X433982Y57999D01*
Y61998D01*
X429983D01*
G54D22*
X275165Y338997D02*
X271832D01*
X273498D01*
Y330666D01*
X271832Y329000D01*
X270166D01*
X268500Y330666D01*
X285161Y329000D02*
X278497D01*
X285161Y335664D01*
Y337331D01*
X283495Y338997D01*
X280163D01*
X278497Y337331D01*
X203000Y84997D02*
Y76666D01*
X204666Y75000D01*
X207998D01*
X209664Y76666D01*
Y84997D01*
X219661D02*
X212997D01*
Y79998D01*
X216329Y81664D01*
X217995D01*
X219661Y79998D01*
Y76666D01*
X217995Y75000D01*
X214663D01*
X212997Y76666D01*
X236000Y58497D02*
Y50166D01*
X237666Y48500D01*
X240998D01*
X242665Y50166D01*
Y58497D01*
X252661Y48500D02*
X245997D01*
X252661Y55164D01*
Y56831D01*
X250995Y58497D01*
X247663D01*
X245997Y56831D01*
M02*
