M48
;Layer_Color=9474304
;FILE_FORMAT=4:4
METRIC,LZ
;TYPE=PLATED
T1F00S00C0.2500
T3F00S00C0.6000
T4F00S00C0.9000
T5F00S00C2.6000
T6F00S00C3.7000
%
T01
X00055Y00058
X00084Y00062
Y00096
X000575Y000985
X0004545Y0014845
X0013Y00133
X00108Y00096
Y00062
X001475Y000685
X00163Y00055
X00183Y00073
X001925Y000855
X001985Y001095
X00237Y00106
X00263Y00134
X00244Y00156
X00177Y00164
X00415Y00085
X00515732Y00316268
X004522Y002468
X00288Y0028
X00249Y00272
Y00264
X00237Y00254
X00229Y00284
X0024145Y0029745
X00228Y00219
X00227Y00175
X00282Y0021
X00296Y002
X00309Y00465
X00238Y00467
X00263Y00526
X00187Y00536
X00144Y00484
X00085Y00309
X00058Y00263
T03
X003806Y000283
X003933
X00406
X004187
X004314
Y00041
X004187
X00406
X003933
X003806
T04
X00099Y00174374
X001244
X001498
X001244Y004715
X00099
X000736
X000482
Y00174374
X000736
T05
X004385Y001185
Y005285
T06
X0052Y0003
X0003Y0052
M30
