G04*
G04 #@! TF.GenerationSoftware,Altium Limited,Altium Designer,18.1.6 (161)*
G04*
G04 Layer_Color=16711935*
%FSLAX44Y44*%
%MOMM*%
G71*
G01*
G75*
%ADD47R,1.1232X1.1332*%
%ADD53R,0.9932X1.1332*%
%ADD66R,1.1332X0.9932*%
%ADD68R,1.1332X1.1232*%
%ADD70O,1.1032X1.8032*%
%ADD71C,1.2032*%
%ADD72R,1.2032X1.2032*%
%ADD73C,3.0032*%
%ADD74C,2.0032*%
%ADD96C,0.6096*%
%ADD97C,0.4032*%
%ADD98R,1.2032X1.9032*%
%ADD99R,1.2032X1.9032*%
G04:AMPARAMS|DCode=100|XSize=1.9032mm|YSize=1.2032mm|CornerRadius=0.3516mm|HoleSize=0mm|Usage=FLASHONLY|Rotation=270.000|XOffset=0mm|YOffset=0mm|HoleType=Round|Shape=RoundedRectangle|*
%AMROUNDEDRECTD100*
21,1,1.9032,0.5000,0,0,270.0*
21,1,1.2000,1.2032,0,0,270.0*
1,1,0.7032,-0.2500,-0.6000*
1,1,0.7032,-0.2500,0.6000*
1,1,0.7032,0.2500,0.6000*
1,1,0.7032,0.2500,-0.6000*
%
%ADD100ROUNDEDRECTD100*%
%ADD101R,1.9032X1.2032*%
%ADD102R,1.9032X1.2032*%
G04:AMPARAMS|DCode=103|XSize=1.9032mm|YSize=1.2032mm|CornerRadius=0.3516mm|HoleSize=0mm|Usage=FLASHONLY|Rotation=180.000|XOffset=0mm|YOffset=0mm|HoleType=Round|Shape=RoundedRectangle|*
%AMROUNDEDRECTD103*
21,1,1.9032,0.5000,0,0,180.0*
21,1,1.2000,1.2032,0,0,180.0*
1,1,0.7032,-0.6000,0.2500*
1,1,0.7032,0.6000,0.2500*
1,1,0.7032,0.6000,-0.2500*
1,1,0.7032,-0.6000,-0.2500*
%
%ADD103ROUNDEDRECTD103*%
%ADD104C,6.2032*%
G54D47*
X268450Y86000D02*
D03*
X283550D02*
D03*
X268100Y465000D02*
D03*
X253000D02*
D03*
G54D53*
X285000D02*
D03*
X301400D02*
D03*
G54D66*
X465000Y246800D02*
D03*
Y263200D02*
D03*
X85000Y285000D02*
D03*
Y301400D02*
D03*
G54D68*
X465000Y291550D02*
D03*
Y276450D02*
D03*
X85000Y256000D02*
D03*
Y271100D02*
D03*
G54D70*
X243000Y12250D02*
D03*
X309000D02*
D03*
G54D71*
X431400Y41000D02*
D03*
Y28300D02*
D03*
X418700Y41000D02*
D03*
Y28300D02*
D03*
X406000Y41000D02*
D03*
Y28300D02*
D03*
X393300Y41000D02*
D03*
Y28300D02*
D03*
X380600Y41000D02*
D03*
G54D72*
Y28300D02*
D03*
G54D73*
X438500Y528500D02*
D03*
Y118500D02*
D03*
G54D74*
X124400Y471500D02*
D03*
X99000D02*
D03*
X73600D02*
D03*
X48200D02*
D03*
X124400Y174374D02*
D03*
X99000D02*
D03*
X73600D02*
D03*
X48200D02*
D03*
X149800D02*
D03*
G54D96*
X204794Y81150D02*
G03*
X204794Y81150I-2794J0D01*
G01*
G54D97*
X202000Y84248D02*
D03*
Y78000D02*
D03*
G54D98*
X69288Y250600D02*
D03*
Y301400D02*
D03*
X482712Y250600D02*
D03*
Y301400D02*
D03*
G54D99*
X36268Y250600D02*
D03*
X515732Y301400D02*
D03*
G54D100*
X36268D02*
D03*
X515732Y250600D02*
D03*
G54D101*
X250600Y482712D02*
D03*
X301400D02*
D03*
X250600Y69288D02*
D03*
X301400D02*
D03*
G54D102*
X250600Y515732D02*
D03*
X301400Y36268D02*
D03*
G54D103*
Y515732D02*
D03*
X250600Y36268D02*
D03*
G54D104*
X520000Y30000D02*
D03*
X30000Y520000D02*
D03*
M02*
