G04*
G04 #@! TF.GenerationSoftware,Altium Limited,Altium Designer,18.1.6 (161)*
G04*
G04 Layer_Color=128*
%FSLAX44Y44*%
%MOMM*%
G71*
G01*
G75*
%ADD109C,0.0508*%
G54D109*
X501500Y30000D02*
X538500D01*
X520000Y11500D02*
Y48500D01*
X240500Y12250D02*
X245500D01*
X243000Y9750D02*
Y14750D01*
X306500Y12250D02*
X311500D01*
X309000Y9750D02*
Y14750D01*
X428400Y41000D02*
X434400D01*
X431400Y38000D02*
Y44000D01*
X428400Y28300D02*
X434400D01*
X431400Y25300D02*
Y31300D01*
X415700Y41000D02*
X421700D01*
X418700Y38000D02*
Y44000D01*
X415700Y28300D02*
X421700D01*
X418700Y25300D02*
Y31300D01*
X403000Y41000D02*
X409000D01*
X406000Y38000D02*
Y44000D01*
X403000Y28300D02*
X409000D01*
X406000Y25300D02*
Y31300D01*
X390300Y41000D02*
X396300D01*
X393300Y38000D02*
Y44000D01*
X390300Y28300D02*
X396300D01*
X393300Y25300D02*
Y31300D01*
X377600Y41000D02*
X383600D01*
X380600Y38000D02*
Y44000D01*
X377600Y28300D02*
X383600D01*
X380600Y25300D02*
Y31300D01*
X425500Y528500D02*
X451500D01*
X438500Y515500D02*
Y541500D01*
X425500Y118500D02*
X451500D01*
X438500Y105500D02*
Y131500D01*
X119900Y471500D02*
X128900D01*
X124400Y467000D02*
Y476000D01*
X94500Y471500D02*
X103500D01*
X99000Y467000D02*
Y476000D01*
X69100Y471500D02*
X78100D01*
X73600Y467000D02*
Y476000D01*
X43700Y471500D02*
X52700D01*
X48200Y467000D02*
Y476000D01*
X119900Y174374D02*
X128900D01*
X124400Y169874D02*
Y178874D01*
X94500Y174374D02*
X103500D01*
X99000Y169874D02*
Y178874D01*
X69100Y174374D02*
X78100D01*
X73600Y169874D02*
Y178874D01*
X43700Y174374D02*
X52700D01*
X48200Y169874D02*
Y178874D01*
X145300Y174374D02*
X154300D01*
X149800Y169874D02*
Y178874D01*
X11500Y520000D02*
X48500D01*
X30000Y501500D02*
Y538500D01*
X247750Y264000D02*
X250250D01*
X249000Y262750D02*
Y265250D01*
X247750Y272000D02*
X250250D01*
X249000Y270750D02*
Y273250D01*
X175750Y164000D02*
X178250D01*
X177000Y162750D02*
Y165250D01*
X227750Y284000D02*
X230250D01*
X229000Y282750D02*
Y285250D01*
X240200Y297450D02*
X242700D01*
X241450Y296200D02*
Y298700D01*
X235750Y106000D02*
X238250D01*
X237000Y104750D02*
Y107250D01*
X106750Y62000D02*
X109250D01*
X108000Y60750D02*
Y63250D01*
X82750Y62000D02*
X85250D01*
X84000Y60750D02*
Y63250D01*
X82750Y96000D02*
X85250D01*
X84000Y94750D02*
Y97250D01*
X106750Y96000D02*
X109250D01*
X108000Y94750D02*
Y97250D01*
X56250Y98500D02*
X58750D01*
X57500Y97250D02*
Y99750D01*
X53750Y58000D02*
X56250D01*
X55000Y56750D02*
Y59250D01*
X161750Y55000D02*
X164250D01*
X163000Y53750D02*
Y56250D01*
X197250Y109500D02*
X199750D01*
X198500Y108250D02*
Y110750D01*
X191250Y85500D02*
X193750D01*
X192500Y84250D02*
Y86750D01*
X181750Y73000D02*
X184250D01*
X183000Y71750D02*
Y74250D01*
X146250Y68500D02*
X148750D01*
X147500Y67250D02*
Y69750D01*
X280750Y210000D02*
X283250D01*
X282000Y208750D02*
Y211250D01*
X261750Y134000D02*
X264250D01*
X263000Y132750D02*
Y135250D01*
X242750Y156000D02*
X245250D01*
X244000Y154750D02*
Y157250D01*
X44200Y148450D02*
X46700D01*
X45450Y147200D02*
Y149700D01*
X294750Y200000D02*
X297250D01*
X296000Y198750D02*
Y201250D01*
X128750Y133000D02*
X131250D01*
X130000Y131750D02*
Y134250D01*
X450950Y246800D02*
X453450D01*
X452200Y245550D02*
Y248050D01*
X413750Y85000D02*
X416250D01*
X415000Y83750D02*
Y86250D01*
X286750Y280000D02*
X289250D01*
X288000Y278750D02*
Y281250D01*
X307750Y465000D02*
X310250D01*
X309000Y463750D02*
Y466250D01*
X514482Y316268D02*
X516982D01*
X515732Y315018D02*
Y317518D01*
X225750Y175000D02*
X228250D01*
X227000Y173750D02*
Y176250D01*
X235750Y254000D02*
X238250D01*
X237000Y252750D02*
Y255250D01*
X226750Y219000D02*
X229250D01*
X228000Y217750D02*
Y220250D01*
X261750Y526000D02*
X264250D01*
X263000Y524750D02*
Y527250D01*
X185750Y536000D02*
X188250D01*
X187000Y534750D02*
Y537250D01*
X142750Y484000D02*
X145250D01*
X144000Y482750D02*
Y485250D01*
X83750Y309000D02*
X86250D01*
X85000Y307750D02*
Y310250D01*
X56750Y263000D02*
X59250D01*
X58000Y261750D02*
Y264250D01*
X236750Y467000D02*
X239250D01*
X238000Y465750D02*
Y468250D01*
M02*
